%TF.GenerationSoftware,KiCad,Pcbnew,8.0.1*%
%TF.CreationDate,2024-04-30T18:25:38+02:00*%
%TF.ProjectId,Simple panel,53696d70-6c65-4207-9061-6e656c2e6b69,rev?*%
%TF.SameCoordinates,Original*%
%TF.FileFunction,Drillmap*%
%TF.FilePolarity,Positive*%
%FSLAX45Y45*%
G04 Gerber Fmt 4.5, Leading zero omitted, Abs format (unit mm)*
G04 Created by KiCad (PCBNEW 8.0.1) date 2024-04-30 18:25:38*
%MOMM*%
%LPD*%
G01*
G04 APERTURE LIST*
%ADD10C,0.100000*%
%ADD11C,0.200000*%
%ADD12C,0.230000*%
%ADD13C,0.250000*%
%ADD14C,0.320000*%
%ADD15C,0.400000*%
%ADD16C,0.500000*%
%ADD17C,0.600000*%
G04 APERTURE END LIST*
D10*
X4218740Y-2932360D02*
X20444740Y-2932360D01*
X20444740Y-15782360D01*
X4218740Y-15782360D01*
X4218740Y-2932360D01*
D11*
D12*
X5161840Y-7661160D02*
X5391840Y-7891160D01*
X5391840Y-7661160D02*
X5161840Y-7891160D01*
D10*
X5161840Y-6691160D02*
X5161840Y-8861160D01*
X5391840Y-8861160D02*
G75*
G02*
X5161840Y-8861160I-115000J0D01*
G01*
X5391840Y-8861160D02*
X5391840Y-6691160D01*
X5391840Y-6691160D02*
G75*
G03*
X5161840Y-6691160I-115000J0D01*
G01*
D12*
X6469940Y-7991960D02*
X6699940Y-8221960D01*
X6699940Y-7991960D02*
X6469940Y-8221960D01*
D10*
X6469940Y-7021960D02*
X6469940Y-9191960D01*
X6699940Y-9191960D02*
G75*
G02*
X6469940Y-9191960I-115000J0D01*
G01*
X6699940Y-9191960D02*
X6699940Y-7021960D01*
X6699940Y-7021960D02*
G75*
G03*
X6469940Y-7021960I-115000J0D01*
G01*
D12*
X7778040Y-7673860D02*
X8008040Y-7903860D01*
X8008040Y-7673860D02*
X7778040Y-7903860D01*
D10*
X7778040Y-6703860D02*
X7778040Y-8873860D01*
X8008040Y-8873860D02*
G75*
G02*
X7778040Y-8873860I-115000J0D01*
G01*
X8008040Y-8873860D02*
X8008040Y-6703860D01*
X8008040Y-6703860D02*
G75*
G03*
X7778040Y-6703860I-115000J0D01*
G01*
D12*
X9086140Y-7979260D02*
X9316140Y-8209260D01*
X9316140Y-7979260D02*
X9086140Y-8209260D01*
D10*
X9086140Y-7009260D02*
X9086140Y-9179260D01*
X9316140Y-9179260D02*
G75*
G02*
X9086140Y-9179260I-115000J0D01*
G01*
X9316140Y-9179260D02*
X9316140Y-7009260D01*
X9316140Y-7009260D02*
G75*
G03*
X9086140Y-7009260I-115000J0D01*
G01*
D12*
X10394240Y-7687160D02*
X10624240Y-7917160D01*
X10624240Y-7687160D02*
X10394240Y-7917160D01*
D10*
X10394240Y-6717160D02*
X10394240Y-8887160D01*
X10624240Y-8887160D02*
G75*
G02*
X10394240Y-8887160I-115000J0D01*
G01*
X10624240Y-8887160D02*
X10624240Y-6717160D01*
X10624240Y-6717160D02*
G75*
G03*
X10394240Y-6717160I-115000J0D01*
G01*
D12*
X11702340Y-8017960D02*
X11932340Y-8247960D01*
X11932340Y-8017960D02*
X11702340Y-8247960D01*
D10*
X11702340Y-7047960D02*
X11702340Y-9217960D01*
X11932340Y-9217960D02*
G75*
G02*
X11702340Y-9217960I-115000J0D01*
G01*
X11932340Y-9217960D02*
X11932340Y-7047960D01*
X11932340Y-7047960D02*
G75*
G03*
X11702340Y-7047960I-115000J0D01*
G01*
D12*
X13010440Y-7699860D02*
X13240440Y-7929860D01*
X13240440Y-7699860D02*
X13010440Y-7929860D01*
D10*
X13010440Y-6729860D02*
X13010440Y-8899860D01*
X13240440Y-8899860D02*
G75*
G02*
X13010440Y-8899860I-115000J0D01*
G01*
X13240440Y-8899860D02*
X13240440Y-6729860D01*
X13240440Y-6729860D02*
G75*
G03*
X13010440Y-6729860I-115000J0D01*
G01*
D12*
X14318540Y-8005260D02*
X14548540Y-8235260D01*
X14548540Y-8005260D02*
X14318540Y-8235260D01*
D10*
X14318540Y-7035260D02*
X14318540Y-9205260D01*
X14548540Y-9205260D02*
G75*
G02*
X14318540Y-9205260I-115000J0D01*
G01*
X14548540Y-9205260D02*
X14548540Y-7035260D01*
X14548540Y-7035260D02*
G75*
G03*
X14318540Y-7035260I-115000J0D01*
G01*
D12*
X15626640Y-7661160D02*
X15856640Y-7891160D01*
X15856640Y-7661160D02*
X15626640Y-7891160D01*
D10*
X15626640Y-6691160D02*
X15626640Y-8861160D01*
X15856640Y-8861160D02*
G75*
G02*
X15626640Y-8861160I-115000J0D01*
G01*
X15856640Y-8861160D02*
X15856640Y-6691160D01*
X15856640Y-6691160D02*
G75*
G03*
X15626640Y-6691160I-115000J0D01*
G01*
D12*
X16934740Y-7991960D02*
X17164740Y-8221960D01*
X17164740Y-7991960D02*
X16934740Y-8221960D01*
D10*
X16934740Y-7021960D02*
X16934740Y-9191960D01*
X17164740Y-9191960D02*
G75*
G02*
X16934740Y-9191960I-115000J0D01*
G01*
X17164740Y-9191960D02*
X17164740Y-7021960D01*
X17164740Y-7021960D02*
G75*
G03*
X16934740Y-7021960I-115000J0D01*
G01*
D12*
X18242840Y-7673860D02*
X18472840Y-7903860D01*
X18472840Y-7673860D02*
X18242840Y-7903860D01*
D10*
X18242840Y-6703860D02*
X18242840Y-8873860D01*
X18472840Y-8873860D02*
G75*
G02*
X18242840Y-8873860I-115000J0D01*
G01*
X18472840Y-8873860D02*
X18472840Y-6703860D01*
X18472840Y-6703860D02*
G75*
G03*
X18242840Y-6703860I-115000J0D01*
G01*
D12*
X19550940Y-7979260D02*
X19780940Y-8209260D01*
X19780940Y-7979260D02*
X19550940Y-8209260D01*
D10*
X19550940Y-7009260D02*
X19550940Y-9179260D01*
X19780940Y-9179260D02*
G75*
G02*
X19550940Y-9179260I-115000J0D01*
G01*
X19780940Y-9179260D02*
X19780940Y-7009260D01*
X19780940Y-7009260D02*
G75*
G03*
X19550940Y-7009260I-115000J0D01*
G01*
D13*
X5401840Y-6226160D02*
G75*
G02*
X5151840Y-6226160I-125000J0D01*
G01*
X5151840Y-6226160D02*
G75*
G02*
X5401840Y-6226160I125000J0D01*
G01*
X5401840Y-9326160D02*
G75*
G02*
X5151840Y-9326160I-125000J0D01*
G01*
X5151840Y-9326160D02*
G75*
G02*
X5401840Y-9326160I125000J0D01*
G01*
X6709940Y-6556960D02*
G75*
G02*
X6459940Y-6556960I-125000J0D01*
G01*
X6459940Y-6556960D02*
G75*
G02*
X6709940Y-6556960I125000J0D01*
G01*
X6709940Y-9656960D02*
G75*
G02*
X6459940Y-9656960I-125000J0D01*
G01*
X6459940Y-9656960D02*
G75*
G02*
X6709940Y-9656960I125000J0D01*
G01*
X8018040Y-6238860D02*
G75*
G02*
X7768040Y-6238860I-125000J0D01*
G01*
X7768040Y-6238860D02*
G75*
G02*
X8018040Y-6238860I125000J0D01*
G01*
X8018040Y-9338860D02*
G75*
G02*
X7768040Y-9338860I-125000J0D01*
G01*
X7768040Y-9338860D02*
G75*
G02*
X8018040Y-9338860I125000J0D01*
G01*
X9326140Y-6544260D02*
G75*
G02*
X9076140Y-6544260I-125000J0D01*
G01*
X9076140Y-6544260D02*
G75*
G02*
X9326140Y-6544260I125000J0D01*
G01*
X9326140Y-9644260D02*
G75*
G02*
X9076140Y-9644260I-125000J0D01*
G01*
X9076140Y-9644260D02*
G75*
G02*
X9326140Y-9644260I125000J0D01*
G01*
X10634240Y-6252160D02*
G75*
G02*
X10384240Y-6252160I-125000J0D01*
G01*
X10384240Y-6252160D02*
G75*
G02*
X10634240Y-6252160I125000J0D01*
G01*
X10634240Y-9352160D02*
G75*
G02*
X10384240Y-9352160I-125000J0D01*
G01*
X10384240Y-9352160D02*
G75*
G02*
X10634240Y-9352160I125000J0D01*
G01*
X11942340Y-6582960D02*
G75*
G02*
X11692340Y-6582960I-125000J0D01*
G01*
X11692340Y-6582960D02*
G75*
G02*
X11942340Y-6582960I125000J0D01*
G01*
X11942340Y-9682960D02*
G75*
G02*
X11692340Y-9682960I-125000J0D01*
G01*
X11692340Y-9682960D02*
G75*
G02*
X11942340Y-9682960I125000J0D01*
G01*
X13250440Y-6264860D02*
G75*
G02*
X13000440Y-6264860I-125000J0D01*
G01*
X13000440Y-6264860D02*
G75*
G02*
X13250440Y-6264860I125000J0D01*
G01*
X13250440Y-9364860D02*
G75*
G02*
X13000440Y-9364860I-125000J0D01*
G01*
X13000440Y-9364860D02*
G75*
G02*
X13250440Y-9364860I125000J0D01*
G01*
X14558540Y-6570260D02*
G75*
G02*
X14308540Y-6570260I-125000J0D01*
G01*
X14308540Y-6570260D02*
G75*
G02*
X14558540Y-6570260I125000J0D01*
G01*
X14558540Y-9670260D02*
G75*
G02*
X14308540Y-9670260I-125000J0D01*
G01*
X14308540Y-9670260D02*
G75*
G02*
X14558540Y-9670260I125000J0D01*
G01*
X15866640Y-6226160D02*
G75*
G02*
X15616640Y-6226160I-125000J0D01*
G01*
X15616640Y-6226160D02*
G75*
G02*
X15866640Y-6226160I125000J0D01*
G01*
X15866640Y-9326160D02*
G75*
G02*
X15616640Y-9326160I-125000J0D01*
G01*
X15616640Y-9326160D02*
G75*
G02*
X15866640Y-9326160I125000J0D01*
G01*
X17174740Y-6556960D02*
G75*
G02*
X16924740Y-6556960I-125000J0D01*
G01*
X16924740Y-6556960D02*
G75*
G02*
X17174740Y-6556960I125000J0D01*
G01*
X17174740Y-9656960D02*
G75*
G02*
X16924740Y-9656960I-125000J0D01*
G01*
X16924740Y-9656960D02*
G75*
G02*
X17174740Y-9656960I125000J0D01*
G01*
X18482840Y-6238860D02*
G75*
G02*
X18232840Y-6238860I-125000J0D01*
G01*
X18232840Y-6238860D02*
G75*
G02*
X18482840Y-6238860I125000J0D01*
G01*
X18482840Y-9338860D02*
G75*
G02*
X18232840Y-9338860I-125000J0D01*
G01*
X18232840Y-9338860D02*
G75*
G02*
X18482840Y-9338860I125000J0D01*
G01*
X19790940Y-6544260D02*
G75*
G02*
X19540940Y-6544260I-125000J0D01*
G01*
X19540940Y-6544260D02*
G75*
G02*
X19790940Y-6544260I125000J0D01*
G01*
X19790940Y-9644260D02*
G75*
G02*
X19540940Y-9644260I-125000J0D01*
G01*
X19540940Y-9644260D02*
G75*
G02*
X19790940Y-9644260I125000J0D01*
G01*
D14*
X4918740Y-3072360D02*
X4918740Y-3392360D01*
X4758740Y-3232360D02*
X5078740Y-3232360D01*
D10*
X4818740Y-3392360D02*
X5018740Y-3392360D01*
X5018740Y-3072360D02*
G75*
G02*
X5018740Y-3392360I0J-160000D01*
G01*
X5018740Y-3072360D02*
X4818740Y-3072360D01*
X4818740Y-3072360D02*
G75*
G03*
X4818740Y-3392360I0J-160000D01*
G01*
D14*
X4918740Y-15322360D02*
X4918740Y-15642360D01*
X4758740Y-15482360D02*
X5078740Y-15482360D01*
D10*
X4818740Y-15642360D02*
X5018740Y-15642360D01*
X5018740Y-15322360D02*
G75*
G02*
X5018740Y-15642360I0J-160000D01*
G01*
X5018740Y-15322360D02*
X4818740Y-15322360D01*
X4818740Y-15322360D02*
G75*
G03*
X4818740Y-15642360I0J-160000D01*
G01*
D14*
X19744740Y-3072360D02*
X19744740Y-3392360D01*
X19584740Y-3232360D02*
X19904740Y-3232360D01*
D10*
X19644740Y-3392360D02*
X19844740Y-3392360D01*
X19844740Y-3072360D02*
G75*
G02*
X19844740Y-3392360I0J-160000D01*
G01*
X19844740Y-3072360D02*
X19644740Y-3072360D01*
X19644740Y-3072360D02*
G75*
G03*
X19644740Y-3392360I0J-160000D01*
G01*
D14*
X19744740Y-15322360D02*
X19744740Y-15642360D01*
X19584740Y-15482360D02*
X19904740Y-15482360D01*
D10*
X19644740Y-15642360D02*
X19844740Y-15642360D01*
X19844740Y-15322360D02*
G75*
G02*
X19844740Y-15642360I0J-160000D01*
G01*
X19844740Y-15322360D02*
X19644740Y-15322360D01*
X19644740Y-15322360D02*
G75*
G03*
X19644740Y-15642360I0J-160000D01*
G01*
D15*
X7816023Y-11108623D02*
X7816023Y-10825777D01*
X7533177Y-10825777D01*
X7533177Y-11108623D01*
X7816023Y-11108623D01*
D16*
X5058400Y-4819600D02*
X5308400Y-4569600D01*
X5058400Y-4319600D01*
X4808400Y-4569600D01*
X5058400Y-4819600D01*
X6366500Y-5124400D02*
X6616500Y-4874400D01*
X6366500Y-4624400D01*
X6116500Y-4874400D01*
X6366500Y-5124400D01*
X7674600Y-4819600D02*
X7924600Y-4569600D01*
X7674600Y-4319600D01*
X7424600Y-4569600D01*
X7674600Y-4819600D01*
X8982700Y-5124400D02*
X9232700Y-4874400D01*
X8982700Y-4624400D01*
X8732700Y-4874400D01*
X8982700Y-5124400D01*
X8982700Y-11322000D02*
X9232700Y-11072000D01*
X8982700Y-10822000D01*
X8732700Y-11072000D01*
X8982700Y-11322000D01*
X10290800Y-4819600D02*
X10540800Y-4569600D01*
X10290800Y-4319600D01*
X10040800Y-4569600D01*
X10290800Y-4819600D01*
X11598900Y-5124400D02*
X11848900Y-4874400D01*
X11598900Y-4624400D01*
X11348900Y-4874400D01*
X11598900Y-5124400D01*
X12907000Y-4819600D02*
X13157000Y-4569600D01*
X12907000Y-4319600D01*
X12657000Y-4569600D01*
X12907000Y-4819600D01*
X14215100Y-5124400D02*
X14465100Y-4874400D01*
X14215100Y-4624400D01*
X13965100Y-4874400D01*
X14215100Y-5124400D01*
X14215100Y-11322000D02*
X14465100Y-11072000D01*
X14215100Y-10822000D01*
X13965100Y-11072000D01*
X14215100Y-11322000D01*
X15523200Y-4819600D02*
X15773200Y-4569600D01*
X15523200Y-4319600D01*
X15273200Y-4569600D01*
X15523200Y-4819600D01*
X16831300Y-5124400D02*
X17081300Y-4874400D01*
X16831300Y-4624400D01*
X16581300Y-4874400D01*
X16831300Y-5124400D01*
X16831300Y-11322000D02*
X17081300Y-11072000D01*
X16831300Y-10822000D01*
X16581300Y-11072000D01*
X16831300Y-11322000D01*
X18139400Y-4819600D02*
X18389400Y-4569600D01*
X18139400Y-4319600D01*
X17889400Y-4569600D01*
X18139400Y-4819600D01*
X19447500Y-5124400D02*
X19697500Y-4874400D01*
X19447500Y-4624400D01*
X19197500Y-4874400D01*
X19447500Y-5124400D01*
D17*
X4758400Y-10467200D02*
X5358400Y-11067200D01*
X5358400Y-10467200D02*
X4758400Y-11067200D01*
X5358400Y-10767200D02*
G75*
G02*
X4758400Y-10767200I-300000J0D01*
G01*
X4758400Y-10767200D02*
G75*
G02*
X5358400Y-10767200I300000J0D01*
G01*
X6066500Y-10772000D02*
X6666500Y-11372000D01*
X6666500Y-10772000D02*
X6066500Y-11372000D01*
X6666500Y-11072000D02*
G75*
G02*
X6066500Y-11072000I-300000J0D01*
G01*
X6066500Y-11072000D02*
G75*
G02*
X6666500Y-11072000I300000J0D01*
G01*
X17839400Y-10467200D02*
X18439400Y-11067200D01*
X18439400Y-10467200D02*
X17839400Y-11067200D01*
X18439400Y-10767200D02*
G75*
G02*
X17839400Y-10767200I-300000J0D01*
G01*
X17839400Y-10767200D02*
G75*
G02*
X18439400Y-10767200I300000J0D01*
G01*
X19147500Y-10772000D02*
X19747500Y-11372000D01*
X19747500Y-10772000D02*
X19147500Y-11372000D01*
X19747500Y-11072000D02*
G75*
G02*
X19147500Y-11072000I-300000J0D01*
G01*
X19147500Y-11072000D02*
G75*
G02*
X19747500Y-11072000I300000J0D01*
G01*
D11*
X4474517Y-16098844D02*
X4474517Y-15898844D01*
X4474517Y-15898844D02*
X4522136Y-15898844D01*
X4522136Y-15898844D02*
X4550707Y-15908368D01*
X4550707Y-15908368D02*
X4569755Y-15927415D01*
X4569755Y-15927415D02*
X4579279Y-15946463D01*
X4579279Y-15946463D02*
X4588802Y-15984558D01*
X4588802Y-15984558D02*
X4588802Y-16013129D01*
X4588802Y-16013129D02*
X4579279Y-16051225D01*
X4579279Y-16051225D02*
X4569755Y-16070272D01*
X4569755Y-16070272D02*
X4550707Y-16089320D01*
X4550707Y-16089320D02*
X4522136Y-16098844D01*
X4522136Y-16098844D02*
X4474517Y-16098844D01*
X4674517Y-16098844D02*
X4674517Y-15965510D01*
X4674517Y-16003606D02*
X4684041Y-15984558D01*
X4684041Y-15984558D02*
X4693564Y-15975034D01*
X4693564Y-15975034D02*
X4712612Y-15965510D01*
X4712612Y-15965510D02*
X4731660Y-15965510D01*
X4798326Y-16098844D02*
X4798326Y-15965510D01*
X4798326Y-15898844D02*
X4788802Y-15908368D01*
X4788802Y-15908368D02*
X4798326Y-15917891D01*
X4798326Y-15917891D02*
X4807850Y-15908368D01*
X4807850Y-15908368D02*
X4798326Y-15898844D01*
X4798326Y-15898844D02*
X4798326Y-15917891D01*
X4922136Y-16098844D02*
X4903088Y-16089320D01*
X4903088Y-16089320D02*
X4893564Y-16070272D01*
X4893564Y-16070272D02*
X4893564Y-15898844D01*
X5026898Y-16098844D02*
X5007850Y-16089320D01*
X5007850Y-16089320D02*
X4998326Y-16070272D01*
X4998326Y-16070272D02*
X4998326Y-15898844D01*
X5255469Y-16098844D02*
X5255469Y-15898844D01*
X5255469Y-15898844D02*
X5322136Y-16041701D01*
X5322136Y-16041701D02*
X5388802Y-15898844D01*
X5388802Y-15898844D02*
X5388802Y-16098844D01*
X5569755Y-16098844D02*
X5569755Y-15994082D01*
X5569755Y-15994082D02*
X5560231Y-15975034D01*
X5560231Y-15975034D02*
X5541183Y-15965510D01*
X5541183Y-15965510D02*
X5503088Y-15965510D01*
X5503088Y-15965510D02*
X5484041Y-15975034D01*
X5569755Y-16089320D02*
X5550707Y-16098844D01*
X5550707Y-16098844D02*
X5503088Y-16098844D01*
X5503088Y-16098844D02*
X5484041Y-16089320D01*
X5484041Y-16089320D02*
X5474517Y-16070272D01*
X5474517Y-16070272D02*
X5474517Y-16051225D01*
X5474517Y-16051225D02*
X5484041Y-16032177D01*
X5484041Y-16032177D02*
X5503088Y-16022653D01*
X5503088Y-16022653D02*
X5550707Y-16022653D01*
X5550707Y-16022653D02*
X5569755Y-16013129D01*
X5664993Y-15965510D02*
X5664993Y-16165510D01*
X5664993Y-15975034D02*
X5684040Y-15965510D01*
X5684040Y-15965510D02*
X5722136Y-15965510D01*
X5722136Y-15965510D02*
X5741183Y-15975034D01*
X5741183Y-15975034D02*
X5750707Y-15984558D01*
X5750707Y-15984558D02*
X5760231Y-16003606D01*
X5760231Y-16003606D02*
X5760231Y-16060748D01*
X5760231Y-16060748D02*
X5750707Y-16079796D01*
X5750707Y-16079796D02*
X5741183Y-16089320D01*
X5741183Y-16089320D02*
X5722136Y-16098844D01*
X5722136Y-16098844D02*
X5684040Y-16098844D01*
X5684040Y-16098844D02*
X5664993Y-16089320D01*
X5845945Y-16079796D02*
X5855469Y-16089320D01*
X5855469Y-16089320D02*
X5845945Y-16098844D01*
X5845945Y-16098844D02*
X5836421Y-16089320D01*
X5836421Y-16089320D02*
X5845945Y-16079796D01*
X5845945Y-16079796D02*
X5845945Y-16098844D01*
X5845945Y-15975034D02*
X5855469Y-15984558D01*
X5855469Y-15984558D02*
X5845945Y-15994082D01*
X5845945Y-15994082D02*
X5836421Y-15984558D01*
X5836421Y-15984558D02*
X5845945Y-15975034D01*
X5845945Y-15975034D02*
X5845945Y-15994082D01*
X4013740Y-16327360D02*
X4213740Y-16527360D01*
X4213740Y-16327360D02*
X4013740Y-16527360D01*
X4464993Y-16337891D02*
X4474517Y-16328368D01*
X4474517Y-16328368D02*
X4493564Y-16318844D01*
X4493564Y-16318844D02*
X4541183Y-16318844D01*
X4541183Y-16318844D02*
X4560231Y-16328368D01*
X4560231Y-16328368D02*
X4569755Y-16337891D01*
X4569755Y-16337891D02*
X4579279Y-16356939D01*
X4579279Y-16356939D02*
X4579279Y-16375987D01*
X4579279Y-16375987D02*
X4569755Y-16404558D01*
X4569755Y-16404558D02*
X4455469Y-16518844D01*
X4455469Y-16518844D02*
X4579279Y-16518844D01*
X4664993Y-16499796D02*
X4674517Y-16509320D01*
X4674517Y-16509320D02*
X4664993Y-16518844D01*
X4664993Y-16518844D02*
X4655469Y-16509320D01*
X4655469Y-16509320D02*
X4664993Y-16499796D01*
X4664993Y-16499796D02*
X4664993Y-16518844D01*
X4741183Y-16318844D02*
X4864993Y-16318844D01*
X4864993Y-16318844D02*
X4798326Y-16395034D01*
X4798326Y-16395034D02*
X4826898Y-16395034D01*
X4826898Y-16395034D02*
X4845945Y-16404558D01*
X4845945Y-16404558D02*
X4855469Y-16414082D01*
X4855469Y-16414082D02*
X4864993Y-16433129D01*
X4864993Y-16433129D02*
X4864993Y-16480748D01*
X4864993Y-16480748D02*
X4855469Y-16499796D01*
X4855469Y-16499796D02*
X4845945Y-16509320D01*
X4845945Y-16509320D02*
X4826898Y-16518844D01*
X4826898Y-16518844D02*
X4769755Y-16518844D01*
X4769755Y-16518844D02*
X4750707Y-16509320D01*
X4750707Y-16509320D02*
X4741183Y-16499796D01*
X4988802Y-16318844D02*
X5007850Y-16318844D01*
X5007850Y-16318844D02*
X5026898Y-16328368D01*
X5026898Y-16328368D02*
X5036422Y-16337891D01*
X5036422Y-16337891D02*
X5045945Y-16356939D01*
X5045945Y-16356939D02*
X5055469Y-16395034D01*
X5055469Y-16395034D02*
X5055469Y-16442653D01*
X5055469Y-16442653D02*
X5045945Y-16480748D01*
X5045945Y-16480748D02*
X5036422Y-16499796D01*
X5036422Y-16499796D02*
X5026898Y-16509320D01*
X5026898Y-16509320D02*
X5007850Y-16518844D01*
X5007850Y-16518844D02*
X4988802Y-16518844D01*
X4988802Y-16518844D02*
X4969755Y-16509320D01*
X4969755Y-16509320D02*
X4960231Y-16499796D01*
X4960231Y-16499796D02*
X4950707Y-16480748D01*
X4950707Y-16480748D02*
X4941183Y-16442653D01*
X4941183Y-16442653D02*
X4941183Y-16395034D01*
X4941183Y-16395034D02*
X4950707Y-16356939D01*
X4950707Y-16356939D02*
X4960231Y-16337891D01*
X4960231Y-16337891D02*
X4969755Y-16328368D01*
X4969755Y-16328368D02*
X4988802Y-16318844D01*
X5179279Y-16318844D02*
X5198326Y-16318844D01*
X5198326Y-16318844D02*
X5217374Y-16328368D01*
X5217374Y-16328368D02*
X5226898Y-16337891D01*
X5226898Y-16337891D02*
X5236422Y-16356939D01*
X5236422Y-16356939D02*
X5245945Y-16395034D01*
X5245945Y-16395034D02*
X5245945Y-16442653D01*
X5245945Y-16442653D02*
X5236422Y-16480748D01*
X5236422Y-16480748D02*
X5226898Y-16499796D01*
X5226898Y-16499796D02*
X5217374Y-16509320D01*
X5217374Y-16509320D02*
X5198326Y-16518844D01*
X5198326Y-16518844D02*
X5179279Y-16518844D01*
X5179279Y-16518844D02*
X5160231Y-16509320D01*
X5160231Y-16509320D02*
X5150707Y-16499796D01*
X5150707Y-16499796D02*
X5141183Y-16480748D01*
X5141183Y-16480748D02*
X5131660Y-16442653D01*
X5131660Y-16442653D02*
X5131660Y-16395034D01*
X5131660Y-16395034D02*
X5141183Y-16356939D01*
X5141183Y-16356939D02*
X5150707Y-16337891D01*
X5150707Y-16337891D02*
X5160231Y-16328368D01*
X5160231Y-16328368D02*
X5179279Y-16318844D01*
X5331660Y-16518844D02*
X5331660Y-16385510D01*
X5331660Y-16404558D02*
X5341183Y-16395034D01*
X5341183Y-16395034D02*
X5360231Y-16385510D01*
X5360231Y-16385510D02*
X5388803Y-16385510D01*
X5388803Y-16385510D02*
X5407850Y-16395034D01*
X5407850Y-16395034D02*
X5417374Y-16414082D01*
X5417374Y-16414082D02*
X5417374Y-16518844D01*
X5417374Y-16414082D02*
X5426898Y-16395034D01*
X5426898Y-16395034D02*
X5445945Y-16385510D01*
X5445945Y-16385510D02*
X5474517Y-16385510D01*
X5474517Y-16385510D02*
X5493564Y-16395034D01*
X5493564Y-16395034D02*
X5503088Y-16414082D01*
X5503088Y-16414082D02*
X5503088Y-16518844D01*
X5598326Y-16518844D02*
X5598326Y-16385510D01*
X5598326Y-16404558D02*
X5607850Y-16395034D01*
X5607850Y-16395034D02*
X5626898Y-16385510D01*
X5626898Y-16385510D02*
X5655469Y-16385510D01*
X5655469Y-16385510D02*
X5674517Y-16395034D01*
X5674517Y-16395034D02*
X5684041Y-16414082D01*
X5684041Y-16414082D02*
X5684041Y-16518844D01*
X5684041Y-16414082D02*
X5693564Y-16395034D01*
X5693564Y-16395034D02*
X5712612Y-16385510D01*
X5712612Y-16385510D02*
X5741183Y-16385510D01*
X5741183Y-16385510D02*
X5760231Y-16395034D01*
X5760231Y-16395034D02*
X5769755Y-16414082D01*
X5769755Y-16414082D02*
X5769755Y-16518844D01*
X6160231Y-16309320D02*
X5988803Y-16566463D01*
X6417374Y-16318844D02*
X6436422Y-16318844D01*
X6436422Y-16318844D02*
X6455469Y-16328368D01*
X6455469Y-16328368D02*
X6464993Y-16337891D01*
X6464993Y-16337891D02*
X6474517Y-16356939D01*
X6474517Y-16356939D02*
X6484041Y-16395034D01*
X6484041Y-16395034D02*
X6484041Y-16442653D01*
X6484041Y-16442653D02*
X6474517Y-16480748D01*
X6474517Y-16480748D02*
X6464993Y-16499796D01*
X6464993Y-16499796D02*
X6455469Y-16509320D01*
X6455469Y-16509320D02*
X6436422Y-16518844D01*
X6436422Y-16518844D02*
X6417374Y-16518844D01*
X6417374Y-16518844D02*
X6398326Y-16509320D01*
X6398326Y-16509320D02*
X6388803Y-16499796D01*
X6388803Y-16499796D02*
X6379279Y-16480748D01*
X6379279Y-16480748D02*
X6369755Y-16442653D01*
X6369755Y-16442653D02*
X6369755Y-16395034D01*
X6369755Y-16395034D02*
X6379279Y-16356939D01*
X6379279Y-16356939D02*
X6388803Y-16337891D01*
X6388803Y-16337891D02*
X6398326Y-16328368D01*
X6398326Y-16328368D02*
X6417374Y-16318844D01*
X6569755Y-16499796D02*
X6579279Y-16509320D01*
X6579279Y-16509320D02*
X6569755Y-16518844D01*
X6569755Y-16518844D02*
X6560231Y-16509320D01*
X6560231Y-16509320D02*
X6569755Y-16499796D01*
X6569755Y-16499796D02*
X6569755Y-16518844D01*
X6703088Y-16318844D02*
X6722136Y-16318844D01*
X6722136Y-16318844D02*
X6741184Y-16328368D01*
X6741184Y-16328368D02*
X6750707Y-16337891D01*
X6750707Y-16337891D02*
X6760231Y-16356939D01*
X6760231Y-16356939D02*
X6769755Y-16395034D01*
X6769755Y-16395034D02*
X6769755Y-16442653D01*
X6769755Y-16442653D02*
X6760231Y-16480748D01*
X6760231Y-16480748D02*
X6750707Y-16499796D01*
X6750707Y-16499796D02*
X6741184Y-16509320D01*
X6741184Y-16509320D02*
X6722136Y-16518844D01*
X6722136Y-16518844D02*
X6703088Y-16518844D01*
X6703088Y-16518844D02*
X6684041Y-16509320D01*
X6684041Y-16509320D02*
X6674517Y-16499796D01*
X6674517Y-16499796D02*
X6664993Y-16480748D01*
X6664993Y-16480748D02*
X6655469Y-16442653D01*
X6655469Y-16442653D02*
X6655469Y-16395034D01*
X6655469Y-16395034D02*
X6664993Y-16356939D01*
X6664993Y-16356939D02*
X6674517Y-16337891D01*
X6674517Y-16337891D02*
X6684041Y-16328368D01*
X6684041Y-16328368D02*
X6703088Y-16318844D01*
X6864993Y-16518844D02*
X6903088Y-16518844D01*
X6903088Y-16518844D02*
X6922136Y-16509320D01*
X6922136Y-16509320D02*
X6931660Y-16499796D01*
X6931660Y-16499796D02*
X6950707Y-16471225D01*
X6950707Y-16471225D02*
X6960231Y-16433129D01*
X6960231Y-16433129D02*
X6960231Y-16356939D01*
X6960231Y-16356939D02*
X6950707Y-16337891D01*
X6950707Y-16337891D02*
X6941184Y-16328368D01*
X6941184Y-16328368D02*
X6922136Y-16318844D01*
X6922136Y-16318844D02*
X6884041Y-16318844D01*
X6884041Y-16318844D02*
X6864993Y-16328368D01*
X6864993Y-16328368D02*
X6855469Y-16337891D01*
X6855469Y-16337891D02*
X6845945Y-16356939D01*
X6845945Y-16356939D02*
X6845945Y-16404558D01*
X6845945Y-16404558D02*
X6855469Y-16423606D01*
X6855469Y-16423606D02*
X6864993Y-16433129D01*
X6864993Y-16433129D02*
X6884041Y-16442653D01*
X6884041Y-16442653D02*
X6922136Y-16442653D01*
X6922136Y-16442653D02*
X6941184Y-16433129D01*
X6941184Y-16433129D02*
X6950707Y-16423606D01*
X6950707Y-16423606D02*
X6960231Y-16404558D01*
X7084041Y-16318844D02*
X7103088Y-16318844D01*
X7103088Y-16318844D02*
X7122136Y-16328368D01*
X7122136Y-16328368D02*
X7131660Y-16337891D01*
X7131660Y-16337891D02*
X7141184Y-16356939D01*
X7141184Y-16356939D02*
X7150707Y-16395034D01*
X7150707Y-16395034D02*
X7150707Y-16442653D01*
X7150707Y-16442653D02*
X7141184Y-16480748D01*
X7141184Y-16480748D02*
X7131660Y-16499796D01*
X7131660Y-16499796D02*
X7122136Y-16509320D01*
X7122136Y-16509320D02*
X7103088Y-16518844D01*
X7103088Y-16518844D02*
X7084041Y-16518844D01*
X7084041Y-16518844D02*
X7064993Y-16509320D01*
X7064993Y-16509320D02*
X7055469Y-16499796D01*
X7055469Y-16499796D02*
X7045945Y-16480748D01*
X7045945Y-16480748D02*
X7036422Y-16442653D01*
X7036422Y-16442653D02*
X7036422Y-16395034D01*
X7036422Y-16395034D02*
X7045945Y-16356939D01*
X7045945Y-16356939D02*
X7055469Y-16337891D01*
X7055469Y-16337891D02*
X7064993Y-16328368D01*
X7064993Y-16328368D02*
X7084041Y-16318844D01*
X7322136Y-16318844D02*
X7284041Y-16318844D01*
X7284041Y-16318844D02*
X7264993Y-16328368D01*
X7264993Y-16328368D02*
X7255469Y-16337891D01*
X7255469Y-16337891D02*
X7236422Y-16366463D01*
X7236422Y-16366463D02*
X7226898Y-16404558D01*
X7226898Y-16404558D02*
X7226898Y-16480748D01*
X7226898Y-16480748D02*
X7236422Y-16499796D01*
X7236422Y-16499796D02*
X7245945Y-16509320D01*
X7245945Y-16509320D02*
X7264993Y-16518844D01*
X7264993Y-16518844D02*
X7303088Y-16518844D01*
X7303088Y-16518844D02*
X7322136Y-16509320D01*
X7322136Y-16509320D02*
X7331660Y-16499796D01*
X7331660Y-16499796D02*
X7341184Y-16480748D01*
X7341184Y-16480748D02*
X7341184Y-16433129D01*
X7341184Y-16433129D02*
X7331660Y-16414082D01*
X7331660Y-16414082D02*
X7322136Y-16404558D01*
X7322136Y-16404558D02*
X7303088Y-16395034D01*
X7303088Y-16395034D02*
X7264993Y-16395034D01*
X7264993Y-16395034D02*
X7245945Y-16404558D01*
X7245945Y-16404558D02*
X7236422Y-16414082D01*
X7236422Y-16414082D02*
X7226898Y-16433129D01*
X7417374Y-16318844D02*
X7417374Y-16356939D01*
X7493565Y-16318844D02*
X7493565Y-16356939D01*
X7788803Y-16595034D02*
X7779279Y-16585510D01*
X7779279Y-16585510D02*
X7760231Y-16556939D01*
X7760231Y-16556939D02*
X7750707Y-16537891D01*
X7750707Y-16537891D02*
X7741184Y-16509320D01*
X7741184Y-16509320D02*
X7731660Y-16461701D01*
X7731660Y-16461701D02*
X7731660Y-16423606D01*
X7731660Y-16423606D02*
X7741184Y-16375987D01*
X7741184Y-16375987D02*
X7750707Y-16347415D01*
X7750707Y-16347415D02*
X7760231Y-16328368D01*
X7760231Y-16328368D02*
X7779279Y-16299796D01*
X7779279Y-16299796D02*
X7788803Y-16290272D01*
X7903088Y-16318844D02*
X7922136Y-16318844D01*
X7922136Y-16318844D02*
X7941184Y-16328368D01*
X7941184Y-16328368D02*
X7950707Y-16337891D01*
X7950707Y-16337891D02*
X7960231Y-16356939D01*
X7960231Y-16356939D02*
X7969755Y-16395034D01*
X7969755Y-16395034D02*
X7969755Y-16442653D01*
X7969755Y-16442653D02*
X7960231Y-16480748D01*
X7960231Y-16480748D02*
X7950707Y-16499796D01*
X7950707Y-16499796D02*
X7941184Y-16509320D01*
X7941184Y-16509320D02*
X7922136Y-16518844D01*
X7922136Y-16518844D02*
X7903088Y-16518844D01*
X7903088Y-16518844D02*
X7884041Y-16509320D01*
X7884041Y-16509320D02*
X7874517Y-16499796D01*
X7874517Y-16499796D02*
X7864993Y-16480748D01*
X7864993Y-16480748D02*
X7855469Y-16442653D01*
X7855469Y-16442653D02*
X7855469Y-16395034D01*
X7855469Y-16395034D02*
X7864993Y-16356939D01*
X7864993Y-16356939D02*
X7874517Y-16337891D01*
X7874517Y-16337891D02*
X7884041Y-16328368D01*
X7884041Y-16328368D02*
X7903088Y-16318844D01*
X8207850Y-16518844D02*
X8207850Y-16318844D01*
X8293565Y-16518844D02*
X8293565Y-16414082D01*
X8293565Y-16414082D02*
X8284041Y-16395034D01*
X8284041Y-16395034D02*
X8264993Y-16385510D01*
X8264993Y-16385510D02*
X8236422Y-16385510D01*
X8236422Y-16385510D02*
X8217374Y-16395034D01*
X8217374Y-16395034D02*
X8207850Y-16404558D01*
X8417374Y-16518844D02*
X8398327Y-16509320D01*
X8398327Y-16509320D02*
X8388803Y-16499796D01*
X8388803Y-16499796D02*
X8379279Y-16480748D01*
X8379279Y-16480748D02*
X8379279Y-16423606D01*
X8379279Y-16423606D02*
X8388803Y-16404558D01*
X8388803Y-16404558D02*
X8398327Y-16395034D01*
X8398327Y-16395034D02*
X8417374Y-16385510D01*
X8417374Y-16385510D02*
X8445946Y-16385510D01*
X8445946Y-16385510D02*
X8464993Y-16395034D01*
X8464993Y-16395034D02*
X8474517Y-16404558D01*
X8474517Y-16404558D02*
X8484041Y-16423606D01*
X8484041Y-16423606D02*
X8484041Y-16480748D01*
X8484041Y-16480748D02*
X8474517Y-16499796D01*
X8474517Y-16499796D02*
X8464993Y-16509320D01*
X8464993Y-16509320D02*
X8445946Y-16518844D01*
X8445946Y-16518844D02*
X8417374Y-16518844D01*
X8598327Y-16518844D02*
X8579279Y-16509320D01*
X8579279Y-16509320D02*
X8569755Y-16490272D01*
X8569755Y-16490272D02*
X8569755Y-16318844D01*
X8750708Y-16509320D02*
X8731660Y-16518844D01*
X8731660Y-16518844D02*
X8693565Y-16518844D01*
X8693565Y-16518844D02*
X8674517Y-16509320D01*
X8674517Y-16509320D02*
X8664993Y-16490272D01*
X8664993Y-16490272D02*
X8664993Y-16414082D01*
X8664993Y-16414082D02*
X8674517Y-16395034D01*
X8674517Y-16395034D02*
X8693565Y-16385510D01*
X8693565Y-16385510D02*
X8731660Y-16385510D01*
X8731660Y-16385510D02*
X8750708Y-16395034D01*
X8750708Y-16395034D02*
X8760231Y-16414082D01*
X8760231Y-16414082D02*
X8760231Y-16433129D01*
X8760231Y-16433129D02*
X8664993Y-16452177D01*
X8836422Y-16509320D02*
X8855470Y-16518844D01*
X8855470Y-16518844D02*
X8893565Y-16518844D01*
X8893565Y-16518844D02*
X8912612Y-16509320D01*
X8912612Y-16509320D02*
X8922136Y-16490272D01*
X8922136Y-16490272D02*
X8922136Y-16480748D01*
X8922136Y-16480748D02*
X8912612Y-16461701D01*
X8912612Y-16461701D02*
X8893565Y-16452177D01*
X8893565Y-16452177D02*
X8864993Y-16452177D01*
X8864993Y-16452177D02*
X8845946Y-16442653D01*
X8845946Y-16442653D02*
X8836422Y-16423606D01*
X8836422Y-16423606D02*
X8836422Y-16414082D01*
X8836422Y-16414082D02*
X8845946Y-16395034D01*
X8845946Y-16395034D02*
X8864993Y-16385510D01*
X8864993Y-16385510D02*
X8893565Y-16385510D01*
X8893565Y-16385510D02*
X8912612Y-16395034D01*
X9160232Y-16442653D02*
X9312613Y-16442653D01*
X9236422Y-16518844D02*
X9236422Y-16366463D01*
X9664993Y-16518844D02*
X9550708Y-16518844D01*
X9607851Y-16518844D02*
X9607851Y-16318844D01*
X9607851Y-16318844D02*
X9588803Y-16347415D01*
X9588803Y-16347415D02*
X9569755Y-16366463D01*
X9569755Y-16366463D02*
X9550708Y-16375987D01*
X9741184Y-16337891D02*
X9750708Y-16328368D01*
X9750708Y-16328368D02*
X9769755Y-16318844D01*
X9769755Y-16318844D02*
X9817374Y-16318844D01*
X9817374Y-16318844D02*
X9836422Y-16328368D01*
X9836422Y-16328368D02*
X9845946Y-16337891D01*
X9845946Y-16337891D02*
X9855470Y-16356939D01*
X9855470Y-16356939D02*
X9855470Y-16375987D01*
X9855470Y-16375987D02*
X9845946Y-16404558D01*
X9845946Y-16404558D02*
X9731660Y-16518844D01*
X9731660Y-16518844D02*
X9855470Y-16518844D01*
X10084041Y-16509320D02*
X10103089Y-16518844D01*
X10103089Y-16518844D02*
X10141184Y-16518844D01*
X10141184Y-16518844D02*
X10160232Y-16509320D01*
X10160232Y-16509320D02*
X10169755Y-16490272D01*
X10169755Y-16490272D02*
X10169755Y-16480748D01*
X10169755Y-16480748D02*
X10160232Y-16461701D01*
X10160232Y-16461701D02*
X10141184Y-16452177D01*
X10141184Y-16452177D02*
X10112613Y-16452177D01*
X10112613Y-16452177D02*
X10093565Y-16442653D01*
X10093565Y-16442653D02*
X10084041Y-16423606D01*
X10084041Y-16423606D02*
X10084041Y-16414082D01*
X10084041Y-16414082D02*
X10093565Y-16395034D01*
X10093565Y-16395034D02*
X10112613Y-16385510D01*
X10112613Y-16385510D02*
X10141184Y-16385510D01*
X10141184Y-16385510D02*
X10160232Y-16395034D01*
X10284041Y-16518844D02*
X10264994Y-16509320D01*
X10264994Y-16509320D02*
X10255470Y-16490272D01*
X10255470Y-16490272D02*
X10255470Y-16318844D01*
X10388803Y-16518844D02*
X10369755Y-16509320D01*
X10369755Y-16509320D02*
X10360232Y-16499796D01*
X10360232Y-16499796D02*
X10350708Y-16480748D01*
X10350708Y-16480748D02*
X10350708Y-16423606D01*
X10350708Y-16423606D02*
X10360232Y-16404558D01*
X10360232Y-16404558D02*
X10369755Y-16395034D01*
X10369755Y-16395034D02*
X10388803Y-16385510D01*
X10388803Y-16385510D02*
X10417375Y-16385510D01*
X10417375Y-16385510D02*
X10436422Y-16395034D01*
X10436422Y-16395034D02*
X10445946Y-16404558D01*
X10445946Y-16404558D02*
X10455470Y-16423606D01*
X10455470Y-16423606D02*
X10455470Y-16480748D01*
X10455470Y-16480748D02*
X10445946Y-16499796D01*
X10445946Y-16499796D02*
X10436422Y-16509320D01*
X10436422Y-16509320D02*
X10417375Y-16518844D01*
X10417375Y-16518844D02*
X10388803Y-16518844D01*
X10512613Y-16385510D02*
X10588803Y-16385510D01*
X10541184Y-16318844D02*
X10541184Y-16490272D01*
X10541184Y-16490272D02*
X10550708Y-16509320D01*
X10550708Y-16509320D02*
X10569755Y-16518844D01*
X10569755Y-16518844D02*
X10588803Y-16518844D01*
X10645946Y-16509320D02*
X10664994Y-16518844D01*
X10664994Y-16518844D02*
X10703089Y-16518844D01*
X10703089Y-16518844D02*
X10722136Y-16509320D01*
X10722136Y-16509320D02*
X10731660Y-16490272D01*
X10731660Y-16490272D02*
X10731660Y-16480748D01*
X10731660Y-16480748D02*
X10722136Y-16461701D01*
X10722136Y-16461701D02*
X10703089Y-16452177D01*
X10703089Y-16452177D02*
X10674517Y-16452177D01*
X10674517Y-16452177D02*
X10655470Y-16442653D01*
X10655470Y-16442653D02*
X10645946Y-16423606D01*
X10645946Y-16423606D02*
X10645946Y-16414082D01*
X10645946Y-16414082D02*
X10655470Y-16395034D01*
X10655470Y-16395034D02*
X10674517Y-16385510D01*
X10674517Y-16385510D02*
X10703089Y-16385510D01*
X10703089Y-16385510D02*
X10722136Y-16395034D01*
X10798327Y-16595034D02*
X10807851Y-16585510D01*
X10807851Y-16585510D02*
X10826898Y-16556939D01*
X10826898Y-16556939D02*
X10836422Y-16537891D01*
X10836422Y-16537891D02*
X10845946Y-16509320D01*
X10845946Y-16509320D02*
X10855470Y-16461701D01*
X10855470Y-16461701D02*
X10855470Y-16423606D01*
X10855470Y-16423606D02*
X10845946Y-16375987D01*
X10845946Y-16375987D02*
X10836422Y-16347415D01*
X10836422Y-16347415D02*
X10826898Y-16328368D01*
X10826898Y-16328368D02*
X10807851Y-16299796D01*
X10807851Y-16299796D02*
X10798327Y-16290272D01*
X4213740Y-16747360D02*
G75*
G02*
X4013740Y-16747360I-100000J0D01*
G01*
X4013740Y-16747360D02*
G75*
G02*
X4213740Y-16747360I100000J0D01*
G01*
X4464993Y-16657891D02*
X4474517Y-16648368D01*
X4474517Y-16648368D02*
X4493564Y-16638844D01*
X4493564Y-16638844D02*
X4541183Y-16638844D01*
X4541183Y-16638844D02*
X4560231Y-16648368D01*
X4560231Y-16648368D02*
X4569755Y-16657891D01*
X4569755Y-16657891D02*
X4579279Y-16676939D01*
X4579279Y-16676939D02*
X4579279Y-16695987D01*
X4579279Y-16695987D02*
X4569755Y-16724558D01*
X4569755Y-16724558D02*
X4455469Y-16838844D01*
X4455469Y-16838844D02*
X4579279Y-16838844D01*
X4664993Y-16819796D02*
X4674517Y-16829320D01*
X4674517Y-16829320D02*
X4664993Y-16838844D01*
X4664993Y-16838844D02*
X4655469Y-16829320D01*
X4655469Y-16829320D02*
X4664993Y-16819796D01*
X4664993Y-16819796D02*
X4664993Y-16838844D01*
X4855469Y-16638844D02*
X4760231Y-16638844D01*
X4760231Y-16638844D02*
X4750707Y-16734082D01*
X4750707Y-16734082D02*
X4760231Y-16724558D01*
X4760231Y-16724558D02*
X4779279Y-16715034D01*
X4779279Y-16715034D02*
X4826898Y-16715034D01*
X4826898Y-16715034D02*
X4845945Y-16724558D01*
X4845945Y-16724558D02*
X4855469Y-16734082D01*
X4855469Y-16734082D02*
X4864993Y-16753129D01*
X4864993Y-16753129D02*
X4864993Y-16800749D01*
X4864993Y-16800749D02*
X4855469Y-16819796D01*
X4855469Y-16819796D02*
X4845945Y-16829320D01*
X4845945Y-16829320D02*
X4826898Y-16838844D01*
X4826898Y-16838844D02*
X4779279Y-16838844D01*
X4779279Y-16838844D02*
X4760231Y-16829320D01*
X4760231Y-16829320D02*
X4750707Y-16819796D01*
X4988802Y-16638844D02*
X5007850Y-16638844D01*
X5007850Y-16638844D02*
X5026898Y-16648368D01*
X5026898Y-16648368D02*
X5036422Y-16657891D01*
X5036422Y-16657891D02*
X5045945Y-16676939D01*
X5045945Y-16676939D02*
X5055469Y-16715034D01*
X5055469Y-16715034D02*
X5055469Y-16762653D01*
X5055469Y-16762653D02*
X5045945Y-16800749D01*
X5045945Y-16800749D02*
X5036422Y-16819796D01*
X5036422Y-16819796D02*
X5026898Y-16829320D01*
X5026898Y-16829320D02*
X5007850Y-16838844D01*
X5007850Y-16838844D02*
X4988802Y-16838844D01*
X4988802Y-16838844D02*
X4969755Y-16829320D01*
X4969755Y-16829320D02*
X4960231Y-16819796D01*
X4960231Y-16819796D02*
X4950707Y-16800749D01*
X4950707Y-16800749D02*
X4941183Y-16762653D01*
X4941183Y-16762653D02*
X4941183Y-16715034D01*
X4941183Y-16715034D02*
X4950707Y-16676939D01*
X4950707Y-16676939D02*
X4960231Y-16657891D01*
X4960231Y-16657891D02*
X4969755Y-16648368D01*
X4969755Y-16648368D02*
X4988802Y-16638844D01*
X5179279Y-16638844D02*
X5198326Y-16638844D01*
X5198326Y-16638844D02*
X5217374Y-16648368D01*
X5217374Y-16648368D02*
X5226898Y-16657891D01*
X5226898Y-16657891D02*
X5236422Y-16676939D01*
X5236422Y-16676939D02*
X5245945Y-16715034D01*
X5245945Y-16715034D02*
X5245945Y-16762653D01*
X5245945Y-16762653D02*
X5236422Y-16800749D01*
X5236422Y-16800749D02*
X5226898Y-16819796D01*
X5226898Y-16819796D02*
X5217374Y-16829320D01*
X5217374Y-16829320D02*
X5198326Y-16838844D01*
X5198326Y-16838844D02*
X5179279Y-16838844D01*
X5179279Y-16838844D02*
X5160231Y-16829320D01*
X5160231Y-16829320D02*
X5150707Y-16819796D01*
X5150707Y-16819796D02*
X5141183Y-16800749D01*
X5141183Y-16800749D02*
X5131660Y-16762653D01*
X5131660Y-16762653D02*
X5131660Y-16715034D01*
X5131660Y-16715034D02*
X5141183Y-16676939D01*
X5141183Y-16676939D02*
X5150707Y-16657891D01*
X5150707Y-16657891D02*
X5160231Y-16648368D01*
X5160231Y-16648368D02*
X5179279Y-16638844D01*
X5331660Y-16838844D02*
X5331660Y-16705510D01*
X5331660Y-16724558D02*
X5341183Y-16715034D01*
X5341183Y-16715034D02*
X5360231Y-16705510D01*
X5360231Y-16705510D02*
X5388803Y-16705510D01*
X5388803Y-16705510D02*
X5407850Y-16715034D01*
X5407850Y-16715034D02*
X5417374Y-16734082D01*
X5417374Y-16734082D02*
X5417374Y-16838844D01*
X5417374Y-16734082D02*
X5426898Y-16715034D01*
X5426898Y-16715034D02*
X5445945Y-16705510D01*
X5445945Y-16705510D02*
X5474517Y-16705510D01*
X5474517Y-16705510D02*
X5493564Y-16715034D01*
X5493564Y-16715034D02*
X5503088Y-16734082D01*
X5503088Y-16734082D02*
X5503088Y-16838844D01*
X5598326Y-16838844D02*
X5598326Y-16705510D01*
X5598326Y-16724558D02*
X5607850Y-16715034D01*
X5607850Y-16715034D02*
X5626898Y-16705510D01*
X5626898Y-16705510D02*
X5655469Y-16705510D01*
X5655469Y-16705510D02*
X5674517Y-16715034D01*
X5674517Y-16715034D02*
X5684041Y-16734082D01*
X5684041Y-16734082D02*
X5684041Y-16838844D01*
X5684041Y-16734082D02*
X5693564Y-16715034D01*
X5693564Y-16715034D02*
X5712612Y-16705510D01*
X5712612Y-16705510D02*
X5741183Y-16705510D01*
X5741183Y-16705510D02*
X5760231Y-16715034D01*
X5760231Y-16715034D02*
X5769755Y-16734082D01*
X5769755Y-16734082D02*
X5769755Y-16838844D01*
X6160231Y-16629320D02*
X5988803Y-16886463D01*
X6417374Y-16638844D02*
X6436422Y-16638844D01*
X6436422Y-16638844D02*
X6455469Y-16648368D01*
X6455469Y-16648368D02*
X6464993Y-16657891D01*
X6464993Y-16657891D02*
X6474517Y-16676939D01*
X6474517Y-16676939D02*
X6484041Y-16715034D01*
X6484041Y-16715034D02*
X6484041Y-16762653D01*
X6484041Y-16762653D02*
X6474517Y-16800749D01*
X6474517Y-16800749D02*
X6464993Y-16819796D01*
X6464993Y-16819796D02*
X6455469Y-16829320D01*
X6455469Y-16829320D02*
X6436422Y-16838844D01*
X6436422Y-16838844D02*
X6417374Y-16838844D01*
X6417374Y-16838844D02*
X6398326Y-16829320D01*
X6398326Y-16829320D02*
X6388803Y-16819796D01*
X6388803Y-16819796D02*
X6379279Y-16800749D01*
X6379279Y-16800749D02*
X6369755Y-16762653D01*
X6369755Y-16762653D02*
X6369755Y-16715034D01*
X6369755Y-16715034D02*
X6379279Y-16676939D01*
X6379279Y-16676939D02*
X6388803Y-16657891D01*
X6388803Y-16657891D02*
X6398326Y-16648368D01*
X6398326Y-16648368D02*
X6417374Y-16638844D01*
X6569755Y-16819796D02*
X6579279Y-16829320D01*
X6579279Y-16829320D02*
X6569755Y-16838844D01*
X6569755Y-16838844D02*
X6560231Y-16829320D01*
X6560231Y-16829320D02*
X6569755Y-16819796D01*
X6569755Y-16819796D02*
X6569755Y-16838844D01*
X6703088Y-16638844D02*
X6722136Y-16638844D01*
X6722136Y-16638844D02*
X6741184Y-16648368D01*
X6741184Y-16648368D02*
X6750707Y-16657891D01*
X6750707Y-16657891D02*
X6760231Y-16676939D01*
X6760231Y-16676939D02*
X6769755Y-16715034D01*
X6769755Y-16715034D02*
X6769755Y-16762653D01*
X6769755Y-16762653D02*
X6760231Y-16800749D01*
X6760231Y-16800749D02*
X6750707Y-16819796D01*
X6750707Y-16819796D02*
X6741184Y-16829320D01*
X6741184Y-16829320D02*
X6722136Y-16838844D01*
X6722136Y-16838844D02*
X6703088Y-16838844D01*
X6703088Y-16838844D02*
X6684041Y-16829320D01*
X6684041Y-16829320D02*
X6674517Y-16819796D01*
X6674517Y-16819796D02*
X6664993Y-16800749D01*
X6664993Y-16800749D02*
X6655469Y-16762653D01*
X6655469Y-16762653D02*
X6655469Y-16715034D01*
X6655469Y-16715034D02*
X6664993Y-16676939D01*
X6664993Y-16676939D02*
X6674517Y-16657891D01*
X6674517Y-16657891D02*
X6684041Y-16648368D01*
X6684041Y-16648368D02*
X6703088Y-16638844D01*
X6864993Y-16838844D02*
X6903088Y-16838844D01*
X6903088Y-16838844D02*
X6922136Y-16829320D01*
X6922136Y-16829320D02*
X6931660Y-16819796D01*
X6931660Y-16819796D02*
X6950707Y-16791225D01*
X6950707Y-16791225D02*
X6960231Y-16753129D01*
X6960231Y-16753129D02*
X6960231Y-16676939D01*
X6960231Y-16676939D02*
X6950707Y-16657891D01*
X6950707Y-16657891D02*
X6941184Y-16648368D01*
X6941184Y-16648368D02*
X6922136Y-16638844D01*
X6922136Y-16638844D02*
X6884041Y-16638844D01*
X6884041Y-16638844D02*
X6864993Y-16648368D01*
X6864993Y-16648368D02*
X6855469Y-16657891D01*
X6855469Y-16657891D02*
X6845945Y-16676939D01*
X6845945Y-16676939D02*
X6845945Y-16724558D01*
X6845945Y-16724558D02*
X6855469Y-16743606D01*
X6855469Y-16743606D02*
X6864993Y-16753129D01*
X6864993Y-16753129D02*
X6884041Y-16762653D01*
X6884041Y-16762653D02*
X6922136Y-16762653D01*
X6922136Y-16762653D02*
X6941184Y-16753129D01*
X6941184Y-16753129D02*
X6950707Y-16743606D01*
X6950707Y-16743606D02*
X6960231Y-16724558D01*
X7074517Y-16724558D02*
X7055469Y-16715034D01*
X7055469Y-16715034D02*
X7045945Y-16705510D01*
X7045945Y-16705510D02*
X7036422Y-16686463D01*
X7036422Y-16686463D02*
X7036422Y-16676939D01*
X7036422Y-16676939D02*
X7045945Y-16657891D01*
X7045945Y-16657891D02*
X7055469Y-16648368D01*
X7055469Y-16648368D02*
X7074517Y-16638844D01*
X7074517Y-16638844D02*
X7112612Y-16638844D01*
X7112612Y-16638844D02*
X7131660Y-16648368D01*
X7131660Y-16648368D02*
X7141184Y-16657891D01*
X7141184Y-16657891D02*
X7150707Y-16676939D01*
X7150707Y-16676939D02*
X7150707Y-16686463D01*
X7150707Y-16686463D02*
X7141184Y-16705510D01*
X7141184Y-16705510D02*
X7131660Y-16715034D01*
X7131660Y-16715034D02*
X7112612Y-16724558D01*
X7112612Y-16724558D02*
X7074517Y-16724558D01*
X7074517Y-16724558D02*
X7055469Y-16734082D01*
X7055469Y-16734082D02*
X7045945Y-16743606D01*
X7045945Y-16743606D02*
X7036422Y-16762653D01*
X7036422Y-16762653D02*
X7036422Y-16800749D01*
X7036422Y-16800749D02*
X7045945Y-16819796D01*
X7045945Y-16819796D02*
X7055469Y-16829320D01*
X7055469Y-16829320D02*
X7074517Y-16838844D01*
X7074517Y-16838844D02*
X7112612Y-16838844D01*
X7112612Y-16838844D02*
X7131660Y-16829320D01*
X7131660Y-16829320D02*
X7141184Y-16819796D01*
X7141184Y-16819796D02*
X7150707Y-16800749D01*
X7150707Y-16800749D02*
X7150707Y-16762653D01*
X7150707Y-16762653D02*
X7141184Y-16743606D01*
X7141184Y-16743606D02*
X7131660Y-16734082D01*
X7131660Y-16734082D02*
X7112612Y-16724558D01*
X7322136Y-16705510D02*
X7322136Y-16838844D01*
X7274517Y-16629320D02*
X7226898Y-16772177D01*
X7226898Y-16772177D02*
X7350707Y-16772177D01*
X7417374Y-16638844D02*
X7417374Y-16676939D01*
X7493565Y-16638844D02*
X7493565Y-16676939D01*
X7788803Y-16915034D02*
X7779279Y-16905510D01*
X7779279Y-16905510D02*
X7760231Y-16876939D01*
X7760231Y-16876939D02*
X7750707Y-16857891D01*
X7750707Y-16857891D02*
X7741184Y-16829320D01*
X7741184Y-16829320D02*
X7731660Y-16781701D01*
X7731660Y-16781701D02*
X7731660Y-16743606D01*
X7731660Y-16743606D02*
X7741184Y-16695987D01*
X7741184Y-16695987D02*
X7750707Y-16667415D01*
X7750707Y-16667415D02*
X7760231Y-16648368D01*
X7760231Y-16648368D02*
X7779279Y-16619796D01*
X7779279Y-16619796D02*
X7788803Y-16610272D01*
X7855469Y-16657891D02*
X7864993Y-16648368D01*
X7864993Y-16648368D02*
X7884041Y-16638844D01*
X7884041Y-16638844D02*
X7931660Y-16638844D01*
X7931660Y-16638844D02*
X7950707Y-16648368D01*
X7950707Y-16648368D02*
X7960231Y-16657891D01*
X7960231Y-16657891D02*
X7969755Y-16676939D01*
X7969755Y-16676939D02*
X7969755Y-16695987D01*
X7969755Y-16695987D02*
X7960231Y-16724558D01*
X7960231Y-16724558D02*
X7845946Y-16838844D01*
X7845946Y-16838844D02*
X7969755Y-16838844D01*
X8141184Y-16705510D02*
X8141184Y-16838844D01*
X8093565Y-16629320D02*
X8045946Y-16772177D01*
X8045946Y-16772177D02*
X8169755Y-16772177D01*
X8398327Y-16838844D02*
X8398327Y-16638844D01*
X8484041Y-16838844D02*
X8484041Y-16734082D01*
X8484041Y-16734082D02*
X8474517Y-16715034D01*
X8474517Y-16715034D02*
X8455470Y-16705510D01*
X8455470Y-16705510D02*
X8426898Y-16705510D01*
X8426898Y-16705510D02*
X8407850Y-16715034D01*
X8407850Y-16715034D02*
X8398327Y-16724558D01*
X8607850Y-16838844D02*
X8588803Y-16829320D01*
X8588803Y-16829320D02*
X8579279Y-16819796D01*
X8579279Y-16819796D02*
X8569755Y-16800749D01*
X8569755Y-16800749D02*
X8569755Y-16743606D01*
X8569755Y-16743606D02*
X8579279Y-16724558D01*
X8579279Y-16724558D02*
X8588803Y-16715034D01*
X8588803Y-16715034D02*
X8607850Y-16705510D01*
X8607850Y-16705510D02*
X8636422Y-16705510D01*
X8636422Y-16705510D02*
X8655470Y-16715034D01*
X8655470Y-16715034D02*
X8664993Y-16724558D01*
X8664993Y-16724558D02*
X8674517Y-16743606D01*
X8674517Y-16743606D02*
X8674517Y-16800749D01*
X8674517Y-16800749D02*
X8664993Y-16819796D01*
X8664993Y-16819796D02*
X8655470Y-16829320D01*
X8655470Y-16829320D02*
X8636422Y-16838844D01*
X8636422Y-16838844D02*
X8607850Y-16838844D01*
X8788803Y-16838844D02*
X8769755Y-16829320D01*
X8769755Y-16829320D02*
X8760231Y-16810272D01*
X8760231Y-16810272D02*
X8760231Y-16638844D01*
X8941184Y-16829320D02*
X8922136Y-16838844D01*
X8922136Y-16838844D02*
X8884041Y-16838844D01*
X8884041Y-16838844D02*
X8864993Y-16829320D01*
X8864993Y-16829320D02*
X8855470Y-16810272D01*
X8855470Y-16810272D02*
X8855470Y-16734082D01*
X8855470Y-16734082D02*
X8864993Y-16715034D01*
X8864993Y-16715034D02*
X8884041Y-16705510D01*
X8884041Y-16705510D02*
X8922136Y-16705510D01*
X8922136Y-16705510D02*
X8941184Y-16715034D01*
X8941184Y-16715034D02*
X8950708Y-16734082D01*
X8950708Y-16734082D02*
X8950708Y-16753129D01*
X8950708Y-16753129D02*
X8855470Y-16772177D01*
X9026898Y-16829320D02*
X9045946Y-16838844D01*
X9045946Y-16838844D02*
X9084041Y-16838844D01*
X9084041Y-16838844D02*
X9103089Y-16829320D01*
X9103089Y-16829320D02*
X9112612Y-16810272D01*
X9112612Y-16810272D02*
X9112612Y-16800749D01*
X9112612Y-16800749D02*
X9103089Y-16781701D01*
X9103089Y-16781701D02*
X9084041Y-16772177D01*
X9084041Y-16772177D02*
X9055470Y-16772177D01*
X9055470Y-16772177D02*
X9036422Y-16762653D01*
X9036422Y-16762653D02*
X9026898Y-16743606D01*
X9026898Y-16743606D02*
X9026898Y-16734082D01*
X9026898Y-16734082D02*
X9036422Y-16715034D01*
X9036422Y-16715034D02*
X9055470Y-16705510D01*
X9055470Y-16705510D02*
X9084041Y-16705510D01*
X9084041Y-16705510D02*
X9103089Y-16715034D01*
X9179279Y-16915034D02*
X9188803Y-16905510D01*
X9188803Y-16905510D02*
X9207851Y-16876939D01*
X9207851Y-16876939D02*
X9217374Y-16857891D01*
X9217374Y-16857891D02*
X9226898Y-16829320D01*
X9226898Y-16829320D02*
X9236422Y-16781701D01*
X9236422Y-16781701D02*
X9236422Y-16743606D01*
X9236422Y-16743606D02*
X9226898Y-16695987D01*
X9226898Y-16695987D02*
X9217374Y-16667415D01*
X9217374Y-16667415D02*
X9207851Y-16648368D01*
X9207851Y-16648368D02*
X9188803Y-16619796D01*
X9188803Y-16619796D02*
X9179279Y-16610272D01*
X4113740Y-16967360D02*
X4113740Y-17167360D01*
X4013740Y-17067360D02*
X4213740Y-17067360D01*
X4455469Y-16958844D02*
X4579279Y-16958844D01*
X4579279Y-16958844D02*
X4512612Y-17035034D01*
X4512612Y-17035034D02*
X4541183Y-17035034D01*
X4541183Y-17035034D02*
X4560231Y-17044558D01*
X4560231Y-17044558D02*
X4569755Y-17054082D01*
X4569755Y-17054082D02*
X4579279Y-17073130D01*
X4579279Y-17073130D02*
X4579279Y-17120749D01*
X4579279Y-17120749D02*
X4569755Y-17139796D01*
X4569755Y-17139796D02*
X4560231Y-17149320D01*
X4560231Y-17149320D02*
X4541183Y-17158844D01*
X4541183Y-17158844D02*
X4484041Y-17158844D01*
X4484041Y-17158844D02*
X4464993Y-17149320D01*
X4464993Y-17149320D02*
X4455469Y-17139796D01*
X4664993Y-17139796D02*
X4674517Y-17149320D01*
X4674517Y-17149320D02*
X4664993Y-17158844D01*
X4664993Y-17158844D02*
X4655469Y-17149320D01*
X4655469Y-17149320D02*
X4664993Y-17139796D01*
X4664993Y-17139796D02*
X4664993Y-17158844D01*
X4750707Y-16977891D02*
X4760231Y-16968368D01*
X4760231Y-16968368D02*
X4779279Y-16958844D01*
X4779279Y-16958844D02*
X4826898Y-16958844D01*
X4826898Y-16958844D02*
X4845945Y-16968368D01*
X4845945Y-16968368D02*
X4855469Y-16977891D01*
X4855469Y-16977891D02*
X4864993Y-16996939D01*
X4864993Y-16996939D02*
X4864993Y-17015987D01*
X4864993Y-17015987D02*
X4855469Y-17044558D01*
X4855469Y-17044558D02*
X4741183Y-17158844D01*
X4741183Y-17158844D02*
X4864993Y-17158844D01*
X4988802Y-16958844D02*
X5007850Y-16958844D01*
X5007850Y-16958844D02*
X5026898Y-16968368D01*
X5026898Y-16968368D02*
X5036422Y-16977891D01*
X5036422Y-16977891D02*
X5045945Y-16996939D01*
X5045945Y-16996939D02*
X5055469Y-17035034D01*
X5055469Y-17035034D02*
X5055469Y-17082653D01*
X5055469Y-17082653D02*
X5045945Y-17120749D01*
X5045945Y-17120749D02*
X5036422Y-17139796D01*
X5036422Y-17139796D02*
X5026898Y-17149320D01*
X5026898Y-17149320D02*
X5007850Y-17158844D01*
X5007850Y-17158844D02*
X4988802Y-17158844D01*
X4988802Y-17158844D02*
X4969755Y-17149320D01*
X4969755Y-17149320D02*
X4960231Y-17139796D01*
X4960231Y-17139796D02*
X4950707Y-17120749D01*
X4950707Y-17120749D02*
X4941183Y-17082653D01*
X4941183Y-17082653D02*
X4941183Y-17035034D01*
X4941183Y-17035034D02*
X4950707Y-16996939D01*
X4950707Y-16996939D02*
X4960231Y-16977891D01*
X4960231Y-16977891D02*
X4969755Y-16968368D01*
X4969755Y-16968368D02*
X4988802Y-16958844D01*
X5179279Y-16958844D02*
X5198326Y-16958844D01*
X5198326Y-16958844D02*
X5217374Y-16968368D01*
X5217374Y-16968368D02*
X5226898Y-16977891D01*
X5226898Y-16977891D02*
X5236422Y-16996939D01*
X5236422Y-16996939D02*
X5245945Y-17035034D01*
X5245945Y-17035034D02*
X5245945Y-17082653D01*
X5245945Y-17082653D02*
X5236422Y-17120749D01*
X5236422Y-17120749D02*
X5226898Y-17139796D01*
X5226898Y-17139796D02*
X5217374Y-17149320D01*
X5217374Y-17149320D02*
X5198326Y-17158844D01*
X5198326Y-17158844D02*
X5179279Y-17158844D01*
X5179279Y-17158844D02*
X5160231Y-17149320D01*
X5160231Y-17149320D02*
X5150707Y-17139796D01*
X5150707Y-17139796D02*
X5141183Y-17120749D01*
X5141183Y-17120749D02*
X5131660Y-17082653D01*
X5131660Y-17082653D02*
X5131660Y-17035034D01*
X5131660Y-17035034D02*
X5141183Y-16996939D01*
X5141183Y-16996939D02*
X5150707Y-16977891D01*
X5150707Y-16977891D02*
X5160231Y-16968368D01*
X5160231Y-16968368D02*
X5179279Y-16958844D01*
X5331660Y-17158844D02*
X5331660Y-17025510D01*
X5331660Y-17044558D02*
X5341183Y-17035034D01*
X5341183Y-17035034D02*
X5360231Y-17025510D01*
X5360231Y-17025510D02*
X5388803Y-17025510D01*
X5388803Y-17025510D02*
X5407850Y-17035034D01*
X5407850Y-17035034D02*
X5417374Y-17054082D01*
X5417374Y-17054082D02*
X5417374Y-17158844D01*
X5417374Y-17054082D02*
X5426898Y-17035034D01*
X5426898Y-17035034D02*
X5445945Y-17025510D01*
X5445945Y-17025510D02*
X5474517Y-17025510D01*
X5474517Y-17025510D02*
X5493564Y-17035034D01*
X5493564Y-17035034D02*
X5503088Y-17054082D01*
X5503088Y-17054082D02*
X5503088Y-17158844D01*
X5598326Y-17158844D02*
X5598326Y-17025510D01*
X5598326Y-17044558D02*
X5607850Y-17035034D01*
X5607850Y-17035034D02*
X5626898Y-17025510D01*
X5626898Y-17025510D02*
X5655469Y-17025510D01*
X5655469Y-17025510D02*
X5674517Y-17035034D01*
X5674517Y-17035034D02*
X5684041Y-17054082D01*
X5684041Y-17054082D02*
X5684041Y-17158844D01*
X5684041Y-17054082D02*
X5693564Y-17035034D01*
X5693564Y-17035034D02*
X5712612Y-17025510D01*
X5712612Y-17025510D02*
X5741183Y-17025510D01*
X5741183Y-17025510D02*
X5760231Y-17035034D01*
X5760231Y-17035034D02*
X5769755Y-17054082D01*
X5769755Y-17054082D02*
X5769755Y-17158844D01*
X6160231Y-16949320D02*
X5988803Y-17206463D01*
X6417374Y-16958844D02*
X6436422Y-16958844D01*
X6436422Y-16958844D02*
X6455469Y-16968368D01*
X6455469Y-16968368D02*
X6464993Y-16977891D01*
X6464993Y-16977891D02*
X6474517Y-16996939D01*
X6474517Y-16996939D02*
X6484041Y-17035034D01*
X6484041Y-17035034D02*
X6484041Y-17082653D01*
X6484041Y-17082653D02*
X6474517Y-17120749D01*
X6474517Y-17120749D02*
X6464993Y-17139796D01*
X6464993Y-17139796D02*
X6455469Y-17149320D01*
X6455469Y-17149320D02*
X6436422Y-17158844D01*
X6436422Y-17158844D02*
X6417374Y-17158844D01*
X6417374Y-17158844D02*
X6398326Y-17149320D01*
X6398326Y-17149320D02*
X6388803Y-17139796D01*
X6388803Y-17139796D02*
X6379279Y-17120749D01*
X6379279Y-17120749D02*
X6369755Y-17082653D01*
X6369755Y-17082653D02*
X6369755Y-17035034D01*
X6369755Y-17035034D02*
X6379279Y-16996939D01*
X6379279Y-16996939D02*
X6388803Y-16977891D01*
X6388803Y-16977891D02*
X6398326Y-16968368D01*
X6398326Y-16968368D02*
X6417374Y-16958844D01*
X6569755Y-17139796D02*
X6579279Y-17149320D01*
X6579279Y-17149320D02*
X6569755Y-17158844D01*
X6569755Y-17158844D02*
X6560231Y-17149320D01*
X6560231Y-17149320D02*
X6569755Y-17139796D01*
X6569755Y-17139796D02*
X6569755Y-17158844D01*
X6769755Y-17158844D02*
X6655469Y-17158844D01*
X6712612Y-17158844D02*
X6712612Y-16958844D01*
X6712612Y-16958844D02*
X6693564Y-16987415D01*
X6693564Y-16987415D02*
X6674517Y-17006463D01*
X6674517Y-17006463D02*
X6655469Y-17015987D01*
X6845945Y-16977891D02*
X6855469Y-16968368D01*
X6855469Y-16968368D02*
X6874517Y-16958844D01*
X6874517Y-16958844D02*
X6922136Y-16958844D01*
X6922136Y-16958844D02*
X6941184Y-16968368D01*
X6941184Y-16968368D02*
X6950707Y-16977891D01*
X6950707Y-16977891D02*
X6960231Y-16996939D01*
X6960231Y-16996939D02*
X6960231Y-17015987D01*
X6960231Y-17015987D02*
X6950707Y-17044558D01*
X6950707Y-17044558D02*
X6836422Y-17158844D01*
X6836422Y-17158844D02*
X6960231Y-17158844D01*
X7131660Y-16958844D02*
X7093564Y-16958844D01*
X7093564Y-16958844D02*
X7074517Y-16968368D01*
X7074517Y-16968368D02*
X7064993Y-16977891D01*
X7064993Y-16977891D02*
X7045945Y-17006463D01*
X7045945Y-17006463D02*
X7036422Y-17044558D01*
X7036422Y-17044558D02*
X7036422Y-17120749D01*
X7036422Y-17120749D02*
X7045945Y-17139796D01*
X7045945Y-17139796D02*
X7055469Y-17149320D01*
X7055469Y-17149320D02*
X7074517Y-17158844D01*
X7074517Y-17158844D02*
X7112612Y-17158844D01*
X7112612Y-17158844D02*
X7131660Y-17149320D01*
X7131660Y-17149320D02*
X7141184Y-17139796D01*
X7141184Y-17139796D02*
X7150707Y-17120749D01*
X7150707Y-17120749D02*
X7150707Y-17073130D01*
X7150707Y-17073130D02*
X7141184Y-17054082D01*
X7141184Y-17054082D02*
X7131660Y-17044558D01*
X7131660Y-17044558D02*
X7112612Y-17035034D01*
X7112612Y-17035034D02*
X7074517Y-17035034D01*
X7074517Y-17035034D02*
X7055469Y-17044558D01*
X7055469Y-17044558D02*
X7045945Y-17054082D01*
X7045945Y-17054082D02*
X7036422Y-17073130D01*
X7274517Y-16958844D02*
X7293565Y-16958844D01*
X7293565Y-16958844D02*
X7312612Y-16968368D01*
X7312612Y-16968368D02*
X7322136Y-16977891D01*
X7322136Y-16977891D02*
X7331660Y-16996939D01*
X7331660Y-16996939D02*
X7341184Y-17035034D01*
X7341184Y-17035034D02*
X7341184Y-17082653D01*
X7341184Y-17082653D02*
X7331660Y-17120749D01*
X7331660Y-17120749D02*
X7322136Y-17139796D01*
X7322136Y-17139796D02*
X7312612Y-17149320D01*
X7312612Y-17149320D02*
X7293565Y-17158844D01*
X7293565Y-17158844D02*
X7274517Y-17158844D01*
X7274517Y-17158844D02*
X7255469Y-17149320D01*
X7255469Y-17149320D02*
X7245945Y-17139796D01*
X7245945Y-17139796D02*
X7236422Y-17120749D01*
X7236422Y-17120749D02*
X7226898Y-17082653D01*
X7226898Y-17082653D02*
X7226898Y-17035034D01*
X7226898Y-17035034D02*
X7236422Y-16996939D01*
X7236422Y-16996939D02*
X7245945Y-16977891D01*
X7245945Y-16977891D02*
X7255469Y-16968368D01*
X7255469Y-16968368D02*
X7274517Y-16958844D01*
X7417374Y-16958844D02*
X7417374Y-16996939D01*
X7493565Y-16958844D02*
X7493565Y-16996939D01*
X7788803Y-17235034D02*
X7779279Y-17225510D01*
X7779279Y-17225510D02*
X7760231Y-17196939D01*
X7760231Y-17196939D02*
X7750707Y-17177891D01*
X7750707Y-17177891D02*
X7741184Y-17149320D01*
X7741184Y-17149320D02*
X7731660Y-17101701D01*
X7731660Y-17101701D02*
X7731660Y-17063606D01*
X7731660Y-17063606D02*
X7741184Y-17015987D01*
X7741184Y-17015987D02*
X7750707Y-16987415D01*
X7750707Y-16987415D02*
X7760231Y-16968368D01*
X7760231Y-16968368D02*
X7779279Y-16939796D01*
X7779279Y-16939796D02*
X7788803Y-16930272D01*
X7903088Y-16958844D02*
X7922136Y-16958844D01*
X7922136Y-16958844D02*
X7941184Y-16968368D01*
X7941184Y-16968368D02*
X7950707Y-16977891D01*
X7950707Y-16977891D02*
X7960231Y-16996939D01*
X7960231Y-16996939D02*
X7969755Y-17035034D01*
X7969755Y-17035034D02*
X7969755Y-17082653D01*
X7969755Y-17082653D02*
X7960231Y-17120749D01*
X7960231Y-17120749D02*
X7950707Y-17139796D01*
X7950707Y-17139796D02*
X7941184Y-17149320D01*
X7941184Y-17149320D02*
X7922136Y-17158844D01*
X7922136Y-17158844D02*
X7903088Y-17158844D01*
X7903088Y-17158844D02*
X7884041Y-17149320D01*
X7884041Y-17149320D02*
X7874517Y-17139796D01*
X7874517Y-17139796D02*
X7864993Y-17120749D01*
X7864993Y-17120749D02*
X7855469Y-17082653D01*
X7855469Y-17082653D02*
X7855469Y-17035034D01*
X7855469Y-17035034D02*
X7864993Y-16996939D01*
X7864993Y-16996939D02*
X7874517Y-16977891D01*
X7874517Y-16977891D02*
X7884041Y-16968368D01*
X7884041Y-16968368D02*
X7903088Y-16958844D01*
X8207850Y-17158844D02*
X8207850Y-16958844D01*
X8293565Y-17158844D02*
X8293565Y-17054082D01*
X8293565Y-17054082D02*
X8284041Y-17035034D01*
X8284041Y-17035034D02*
X8264993Y-17025510D01*
X8264993Y-17025510D02*
X8236422Y-17025510D01*
X8236422Y-17025510D02*
X8217374Y-17035034D01*
X8217374Y-17035034D02*
X8207850Y-17044558D01*
X8417374Y-17158844D02*
X8398327Y-17149320D01*
X8398327Y-17149320D02*
X8388803Y-17139796D01*
X8388803Y-17139796D02*
X8379279Y-17120749D01*
X8379279Y-17120749D02*
X8379279Y-17063606D01*
X8379279Y-17063606D02*
X8388803Y-17044558D01*
X8388803Y-17044558D02*
X8398327Y-17035034D01*
X8398327Y-17035034D02*
X8417374Y-17025510D01*
X8417374Y-17025510D02*
X8445946Y-17025510D01*
X8445946Y-17025510D02*
X8464993Y-17035034D01*
X8464993Y-17035034D02*
X8474517Y-17044558D01*
X8474517Y-17044558D02*
X8484041Y-17063606D01*
X8484041Y-17063606D02*
X8484041Y-17120749D01*
X8484041Y-17120749D02*
X8474517Y-17139796D01*
X8474517Y-17139796D02*
X8464993Y-17149320D01*
X8464993Y-17149320D02*
X8445946Y-17158844D01*
X8445946Y-17158844D02*
X8417374Y-17158844D01*
X8598327Y-17158844D02*
X8579279Y-17149320D01*
X8579279Y-17149320D02*
X8569755Y-17130272D01*
X8569755Y-17130272D02*
X8569755Y-16958844D01*
X8750708Y-17149320D02*
X8731660Y-17158844D01*
X8731660Y-17158844D02*
X8693565Y-17158844D01*
X8693565Y-17158844D02*
X8674517Y-17149320D01*
X8674517Y-17149320D02*
X8664993Y-17130272D01*
X8664993Y-17130272D02*
X8664993Y-17054082D01*
X8664993Y-17054082D02*
X8674517Y-17035034D01*
X8674517Y-17035034D02*
X8693565Y-17025510D01*
X8693565Y-17025510D02*
X8731660Y-17025510D01*
X8731660Y-17025510D02*
X8750708Y-17035034D01*
X8750708Y-17035034D02*
X8760231Y-17054082D01*
X8760231Y-17054082D02*
X8760231Y-17073130D01*
X8760231Y-17073130D02*
X8664993Y-17092177D01*
X8836422Y-17149320D02*
X8855470Y-17158844D01*
X8855470Y-17158844D02*
X8893565Y-17158844D01*
X8893565Y-17158844D02*
X8912612Y-17149320D01*
X8912612Y-17149320D02*
X8922136Y-17130272D01*
X8922136Y-17130272D02*
X8922136Y-17120749D01*
X8922136Y-17120749D02*
X8912612Y-17101701D01*
X8912612Y-17101701D02*
X8893565Y-17092177D01*
X8893565Y-17092177D02*
X8864993Y-17092177D01*
X8864993Y-17092177D02*
X8845946Y-17082653D01*
X8845946Y-17082653D02*
X8836422Y-17063606D01*
X8836422Y-17063606D02*
X8836422Y-17054082D01*
X8836422Y-17054082D02*
X8845946Y-17035034D01*
X8845946Y-17035034D02*
X8864993Y-17025510D01*
X8864993Y-17025510D02*
X8893565Y-17025510D01*
X8893565Y-17025510D02*
X8912612Y-17035034D01*
X9160232Y-17082653D02*
X9312613Y-17082653D01*
X9236422Y-17158844D02*
X9236422Y-17006463D01*
X9645946Y-17025510D02*
X9645946Y-17158844D01*
X9598327Y-16949320D02*
X9550708Y-17092177D01*
X9550708Y-17092177D02*
X9674517Y-17092177D01*
X9893565Y-17149320D02*
X9912613Y-17158844D01*
X9912613Y-17158844D02*
X9950708Y-17158844D01*
X9950708Y-17158844D02*
X9969755Y-17149320D01*
X9969755Y-17149320D02*
X9979279Y-17130272D01*
X9979279Y-17130272D02*
X9979279Y-17120749D01*
X9979279Y-17120749D02*
X9969755Y-17101701D01*
X9969755Y-17101701D02*
X9950708Y-17092177D01*
X9950708Y-17092177D02*
X9922136Y-17092177D01*
X9922136Y-17092177D02*
X9903089Y-17082653D01*
X9903089Y-17082653D02*
X9893565Y-17063606D01*
X9893565Y-17063606D02*
X9893565Y-17054082D01*
X9893565Y-17054082D02*
X9903089Y-17035034D01*
X9903089Y-17035034D02*
X9922136Y-17025510D01*
X9922136Y-17025510D02*
X9950708Y-17025510D01*
X9950708Y-17025510D02*
X9969755Y-17035034D01*
X10093565Y-17158844D02*
X10074517Y-17149320D01*
X10074517Y-17149320D02*
X10064994Y-17130272D01*
X10064994Y-17130272D02*
X10064994Y-16958844D01*
X10198327Y-17158844D02*
X10179279Y-17149320D01*
X10179279Y-17149320D02*
X10169755Y-17139796D01*
X10169755Y-17139796D02*
X10160232Y-17120749D01*
X10160232Y-17120749D02*
X10160232Y-17063606D01*
X10160232Y-17063606D02*
X10169755Y-17044558D01*
X10169755Y-17044558D02*
X10179279Y-17035034D01*
X10179279Y-17035034D02*
X10198327Y-17025510D01*
X10198327Y-17025510D02*
X10226898Y-17025510D01*
X10226898Y-17025510D02*
X10245946Y-17035034D01*
X10245946Y-17035034D02*
X10255470Y-17044558D01*
X10255470Y-17044558D02*
X10264994Y-17063606D01*
X10264994Y-17063606D02*
X10264994Y-17120749D01*
X10264994Y-17120749D02*
X10255470Y-17139796D01*
X10255470Y-17139796D02*
X10245946Y-17149320D01*
X10245946Y-17149320D02*
X10226898Y-17158844D01*
X10226898Y-17158844D02*
X10198327Y-17158844D01*
X10322136Y-17025510D02*
X10398327Y-17025510D01*
X10350708Y-16958844D02*
X10350708Y-17130272D01*
X10350708Y-17130272D02*
X10360232Y-17149320D01*
X10360232Y-17149320D02*
X10379279Y-17158844D01*
X10379279Y-17158844D02*
X10398327Y-17158844D01*
X10455470Y-17149320D02*
X10474517Y-17158844D01*
X10474517Y-17158844D02*
X10512613Y-17158844D01*
X10512613Y-17158844D02*
X10531660Y-17149320D01*
X10531660Y-17149320D02*
X10541184Y-17130272D01*
X10541184Y-17130272D02*
X10541184Y-17120749D01*
X10541184Y-17120749D02*
X10531660Y-17101701D01*
X10531660Y-17101701D02*
X10512613Y-17092177D01*
X10512613Y-17092177D02*
X10484041Y-17092177D01*
X10484041Y-17092177D02*
X10464994Y-17082653D01*
X10464994Y-17082653D02*
X10455470Y-17063606D01*
X10455470Y-17063606D02*
X10455470Y-17054082D01*
X10455470Y-17054082D02*
X10464994Y-17035034D01*
X10464994Y-17035034D02*
X10484041Y-17025510D01*
X10484041Y-17025510D02*
X10512613Y-17025510D01*
X10512613Y-17025510D02*
X10531660Y-17035034D01*
X10607851Y-17235034D02*
X10617375Y-17225510D01*
X10617375Y-17225510D02*
X10636422Y-17196939D01*
X10636422Y-17196939D02*
X10645946Y-17177891D01*
X10645946Y-17177891D02*
X10655470Y-17149320D01*
X10655470Y-17149320D02*
X10664994Y-17101701D01*
X10664994Y-17101701D02*
X10664994Y-17063606D01*
X10664994Y-17063606D02*
X10655470Y-17015987D01*
X10655470Y-17015987D02*
X10645946Y-16987415D01*
X10645946Y-16987415D02*
X10636422Y-16968368D01*
X10636422Y-16968368D02*
X10617375Y-16939796D01*
X10617375Y-16939796D02*
X10607851Y-16930272D01*
X4184451Y-17458071D02*
X4184451Y-17316649D01*
X4043028Y-17316649D01*
X4043028Y-17458071D01*
X4184451Y-17458071D01*
X4560231Y-17345510D02*
X4560231Y-17478844D01*
X4512612Y-17269320D02*
X4464993Y-17412177D01*
X4464993Y-17412177D02*
X4588802Y-17412177D01*
X4664993Y-17459796D02*
X4674517Y-17469320D01*
X4674517Y-17469320D02*
X4664993Y-17478844D01*
X4664993Y-17478844D02*
X4655469Y-17469320D01*
X4655469Y-17469320D02*
X4664993Y-17459796D01*
X4664993Y-17459796D02*
X4664993Y-17478844D01*
X4798326Y-17278844D02*
X4817374Y-17278844D01*
X4817374Y-17278844D02*
X4836422Y-17288368D01*
X4836422Y-17288368D02*
X4845945Y-17297891D01*
X4845945Y-17297891D02*
X4855469Y-17316939D01*
X4855469Y-17316939D02*
X4864993Y-17355034D01*
X4864993Y-17355034D02*
X4864993Y-17402653D01*
X4864993Y-17402653D02*
X4855469Y-17440749D01*
X4855469Y-17440749D02*
X4845945Y-17459796D01*
X4845945Y-17459796D02*
X4836422Y-17469320D01*
X4836422Y-17469320D02*
X4817374Y-17478844D01*
X4817374Y-17478844D02*
X4798326Y-17478844D01*
X4798326Y-17478844D02*
X4779279Y-17469320D01*
X4779279Y-17469320D02*
X4769755Y-17459796D01*
X4769755Y-17459796D02*
X4760231Y-17440749D01*
X4760231Y-17440749D02*
X4750707Y-17402653D01*
X4750707Y-17402653D02*
X4750707Y-17355034D01*
X4750707Y-17355034D02*
X4760231Y-17316939D01*
X4760231Y-17316939D02*
X4769755Y-17297891D01*
X4769755Y-17297891D02*
X4779279Y-17288368D01*
X4779279Y-17288368D02*
X4798326Y-17278844D01*
X4988802Y-17278844D02*
X5007850Y-17278844D01*
X5007850Y-17278844D02*
X5026898Y-17288368D01*
X5026898Y-17288368D02*
X5036422Y-17297891D01*
X5036422Y-17297891D02*
X5045945Y-17316939D01*
X5045945Y-17316939D02*
X5055469Y-17355034D01*
X5055469Y-17355034D02*
X5055469Y-17402653D01*
X5055469Y-17402653D02*
X5045945Y-17440749D01*
X5045945Y-17440749D02*
X5036422Y-17459796D01*
X5036422Y-17459796D02*
X5026898Y-17469320D01*
X5026898Y-17469320D02*
X5007850Y-17478844D01*
X5007850Y-17478844D02*
X4988802Y-17478844D01*
X4988802Y-17478844D02*
X4969755Y-17469320D01*
X4969755Y-17469320D02*
X4960231Y-17459796D01*
X4960231Y-17459796D02*
X4950707Y-17440749D01*
X4950707Y-17440749D02*
X4941183Y-17402653D01*
X4941183Y-17402653D02*
X4941183Y-17355034D01*
X4941183Y-17355034D02*
X4950707Y-17316939D01*
X4950707Y-17316939D02*
X4960231Y-17297891D01*
X4960231Y-17297891D02*
X4969755Y-17288368D01*
X4969755Y-17288368D02*
X4988802Y-17278844D01*
X5179279Y-17278844D02*
X5198326Y-17278844D01*
X5198326Y-17278844D02*
X5217374Y-17288368D01*
X5217374Y-17288368D02*
X5226898Y-17297891D01*
X5226898Y-17297891D02*
X5236422Y-17316939D01*
X5236422Y-17316939D02*
X5245945Y-17355034D01*
X5245945Y-17355034D02*
X5245945Y-17402653D01*
X5245945Y-17402653D02*
X5236422Y-17440749D01*
X5236422Y-17440749D02*
X5226898Y-17459796D01*
X5226898Y-17459796D02*
X5217374Y-17469320D01*
X5217374Y-17469320D02*
X5198326Y-17478844D01*
X5198326Y-17478844D02*
X5179279Y-17478844D01*
X5179279Y-17478844D02*
X5160231Y-17469320D01*
X5160231Y-17469320D02*
X5150707Y-17459796D01*
X5150707Y-17459796D02*
X5141183Y-17440749D01*
X5141183Y-17440749D02*
X5131660Y-17402653D01*
X5131660Y-17402653D02*
X5131660Y-17355034D01*
X5131660Y-17355034D02*
X5141183Y-17316939D01*
X5141183Y-17316939D02*
X5150707Y-17297891D01*
X5150707Y-17297891D02*
X5160231Y-17288368D01*
X5160231Y-17288368D02*
X5179279Y-17278844D01*
X5331660Y-17478844D02*
X5331660Y-17345510D01*
X5331660Y-17364558D02*
X5341183Y-17355034D01*
X5341183Y-17355034D02*
X5360231Y-17345510D01*
X5360231Y-17345510D02*
X5388803Y-17345510D01*
X5388803Y-17345510D02*
X5407850Y-17355034D01*
X5407850Y-17355034D02*
X5417374Y-17374082D01*
X5417374Y-17374082D02*
X5417374Y-17478844D01*
X5417374Y-17374082D02*
X5426898Y-17355034D01*
X5426898Y-17355034D02*
X5445945Y-17345510D01*
X5445945Y-17345510D02*
X5474517Y-17345510D01*
X5474517Y-17345510D02*
X5493564Y-17355034D01*
X5493564Y-17355034D02*
X5503088Y-17374082D01*
X5503088Y-17374082D02*
X5503088Y-17478844D01*
X5598326Y-17478844D02*
X5598326Y-17345510D01*
X5598326Y-17364558D02*
X5607850Y-17355034D01*
X5607850Y-17355034D02*
X5626898Y-17345510D01*
X5626898Y-17345510D02*
X5655469Y-17345510D01*
X5655469Y-17345510D02*
X5674517Y-17355034D01*
X5674517Y-17355034D02*
X5684041Y-17374082D01*
X5684041Y-17374082D02*
X5684041Y-17478844D01*
X5684041Y-17374082D02*
X5693564Y-17355034D01*
X5693564Y-17355034D02*
X5712612Y-17345510D01*
X5712612Y-17345510D02*
X5741183Y-17345510D01*
X5741183Y-17345510D02*
X5760231Y-17355034D01*
X5760231Y-17355034D02*
X5769755Y-17374082D01*
X5769755Y-17374082D02*
X5769755Y-17478844D01*
X6160231Y-17269320D02*
X5988803Y-17526463D01*
X6417374Y-17278844D02*
X6436422Y-17278844D01*
X6436422Y-17278844D02*
X6455469Y-17288368D01*
X6455469Y-17288368D02*
X6464993Y-17297891D01*
X6464993Y-17297891D02*
X6474517Y-17316939D01*
X6474517Y-17316939D02*
X6484041Y-17355034D01*
X6484041Y-17355034D02*
X6484041Y-17402653D01*
X6484041Y-17402653D02*
X6474517Y-17440749D01*
X6474517Y-17440749D02*
X6464993Y-17459796D01*
X6464993Y-17459796D02*
X6455469Y-17469320D01*
X6455469Y-17469320D02*
X6436422Y-17478844D01*
X6436422Y-17478844D02*
X6417374Y-17478844D01*
X6417374Y-17478844D02*
X6398326Y-17469320D01*
X6398326Y-17469320D02*
X6388803Y-17459796D01*
X6388803Y-17459796D02*
X6379279Y-17440749D01*
X6379279Y-17440749D02*
X6369755Y-17402653D01*
X6369755Y-17402653D02*
X6369755Y-17355034D01*
X6369755Y-17355034D02*
X6379279Y-17316939D01*
X6379279Y-17316939D02*
X6388803Y-17297891D01*
X6388803Y-17297891D02*
X6398326Y-17288368D01*
X6398326Y-17288368D02*
X6417374Y-17278844D01*
X6569755Y-17459796D02*
X6579279Y-17469320D01*
X6579279Y-17469320D02*
X6569755Y-17478844D01*
X6569755Y-17478844D02*
X6560231Y-17469320D01*
X6560231Y-17469320D02*
X6569755Y-17459796D01*
X6569755Y-17459796D02*
X6569755Y-17478844D01*
X6769755Y-17478844D02*
X6655469Y-17478844D01*
X6712612Y-17478844D02*
X6712612Y-17278844D01*
X6712612Y-17278844D02*
X6693564Y-17307415D01*
X6693564Y-17307415D02*
X6674517Y-17326463D01*
X6674517Y-17326463D02*
X6655469Y-17335987D01*
X6950707Y-17278844D02*
X6855469Y-17278844D01*
X6855469Y-17278844D02*
X6845945Y-17374082D01*
X6845945Y-17374082D02*
X6855469Y-17364558D01*
X6855469Y-17364558D02*
X6874517Y-17355034D01*
X6874517Y-17355034D02*
X6922136Y-17355034D01*
X6922136Y-17355034D02*
X6941184Y-17364558D01*
X6941184Y-17364558D02*
X6950707Y-17374082D01*
X6950707Y-17374082D02*
X6960231Y-17393130D01*
X6960231Y-17393130D02*
X6960231Y-17440749D01*
X6960231Y-17440749D02*
X6950707Y-17459796D01*
X6950707Y-17459796D02*
X6941184Y-17469320D01*
X6941184Y-17469320D02*
X6922136Y-17478844D01*
X6922136Y-17478844D02*
X6874517Y-17478844D01*
X6874517Y-17478844D02*
X6855469Y-17469320D01*
X6855469Y-17469320D02*
X6845945Y-17459796D01*
X7026898Y-17278844D02*
X7160231Y-17278844D01*
X7160231Y-17278844D02*
X7074517Y-17478844D01*
X7331660Y-17278844D02*
X7236422Y-17278844D01*
X7236422Y-17278844D02*
X7226898Y-17374082D01*
X7226898Y-17374082D02*
X7236422Y-17364558D01*
X7236422Y-17364558D02*
X7255469Y-17355034D01*
X7255469Y-17355034D02*
X7303088Y-17355034D01*
X7303088Y-17355034D02*
X7322136Y-17364558D01*
X7322136Y-17364558D02*
X7331660Y-17374082D01*
X7331660Y-17374082D02*
X7341184Y-17393130D01*
X7341184Y-17393130D02*
X7341184Y-17440749D01*
X7341184Y-17440749D02*
X7331660Y-17459796D01*
X7331660Y-17459796D02*
X7322136Y-17469320D01*
X7322136Y-17469320D02*
X7303088Y-17478844D01*
X7303088Y-17478844D02*
X7255469Y-17478844D01*
X7255469Y-17478844D02*
X7236422Y-17469320D01*
X7236422Y-17469320D02*
X7226898Y-17459796D01*
X7417374Y-17278844D02*
X7417374Y-17316939D01*
X7493565Y-17278844D02*
X7493565Y-17316939D01*
X7788803Y-17555034D02*
X7779279Y-17545510D01*
X7779279Y-17545510D02*
X7760231Y-17516939D01*
X7760231Y-17516939D02*
X7750707Y-17497891D01*
X7750707Y-17497891D02*
X7741184Y-17469320D01*
X7741184Y-17469320D02*
X7731660Y-17421701D01*
X7731660Y-17421701D02*
X7731660Y-17383606D01*
X7731660Y-17383606D02*
X7741184Y-17335987D01*
X7741184Y-17335987D02*
X7750707Y-17307415D01*
X7750707Y-17307415D02*
X7760231Y-17288368D01*
X7760231Y-17288368D02*
X7779279Y-17259796D01*
X7779279Y-17259796D02*
X7788803Y-17250272D01*
X7969755Y-17478844D02*
X7855469Y-17478844D01*
X7912612Y-17478844D02*
X7912612Y-17278844D01*
X7912612Y-17278844D02*
X7893565Y-17307415D01*
X7893565Y-17307415D02*
X7874517Y-17326463D01*
X7874517Y-17326463D02*
X7855469Y-17335987D01*
X8207850Y-17478844D02*
X8207850Y-17278844D01*
X8293565Y-17478844D02*
X8293565Y-17374082D01*
X8293565Y-17374082D02*
X8284041Y-17355034D01*
X8284041Y-17355034D02*
X8264993Y-17345510D01*
X8264993Y-17345510D02*
X8236422Y-17345510D01*
X8236422Y-17345510D02*
X8217374Y-17355034D01*
X8217374Y-17355034D02*
X8207850Y-17364558D01*
X8417374Y-17478844D02*
X8398327Y-17469320D01*
X8398327Y-17469320D02*
X8388803Y-17459796D01*
X8388803Y-17459796D02*
X8379279Y-17440749D01*
X8379279Y-17440749D02*
X8379279Y-17383606D01*
X8379279Y-17383606D02*
X8388803Y-17364558D01*
X8388803Y-17364558D02*
X8398327Y-17355034D01*
X8398327Y-17355034D02*
X8417374Y-17345510D01*
X8417374Y-17345510D02*
X8445946Y-17345510D01*
X8445946Y-17345510D02*
X8464993Y-17355034D01*
X8464993Y-17355034D02*
X8474517Y-17364558D01*
X8474517Y-17364558D02*
X8484041Y-17383606D01*
X8484041Y-17383606D02*
X8484041Y-17440749D01*
X8484041Y-17440749D02*
X8474517Y-17459796D01*
X8474517Y-17459796D02*
X8464993Y-17469320D01*
X8464993Y-17469320D02*
X8445946Y-17478844D01*
X8445946Y-17478844D02*
X8417374Y-17478844D01*
X8598327Y-17478844D02*
X8579279Y-17469320D01*
X8579279Y-17469320D02*
X8569755Y-17450272D01*
X8569755Y-17450272D02*
X8569755Y-17278844D01*
X8750708Y-17469320D02*
X8731660Y-17478844D01*
X8731660Y-17478844D02*
X8693565Y-17478844D01*
X8693565Y-17478844D02*
X8674517Y-17469320D01*
X8674517Y-17469320D02*
X8664993Y-17450272D01*
X8664993Y-17450272D02*
X8664993Y-17374082D01*
X8664993Y-17374082D02*
X8674517Y-17355034D01*
X8674517Y-17355034D02*
X8693565Y-17345510D01*
X8693565Y-17345510D02*
X8731660Y-17345510D01*
X8731660Y-17345510D02*
X8750708Y-17355034D01*
X8750708Y-17355034D02*
X8760231Y-17374082D01*
X8760231Y-17374082D02*
X8760231Y-17393130D01*
X8760231Y-17393130D02*
X8664993Y-17412177D01*
X8826898Y-17555034D02*
X8836422Y-17545510D01*
X8836422Y-17545510D02*
X8855470Y-17516939D01*
X8855470Y-17516939D02*
X8864993Y-17497891D01*
X8864993Y-17497891D02*
X8874517Y-17469320D01*
X8874517Y-17469320D02*
X8884041Y-17421701D01*
X8884041Y-17421701D02*
X8884041Y-17383606D01*
X8884041Y-17383606D02*
X8874517Y-17335987D01*
X8874517Y-17335987D02*
X8864993Y-17307415D01*
X8864993Y-17307415D02*
X8855470Y-17288368D01*
X8855470Y-17288368D02*
X8836422Y-17259796D01*
X8836422Y-17259796D02*
X8826898Y-17250272D01*
X4113740Y-17807360D02*
X4213740Y-17707360D01*
X4113740Y-17607360D01*
X4013740Y-17707360D01*
X4113740Y-17807360D01*
X4569755Y-17598844D02*
X4474517Y-17598844D01*
X4474517Y-17598844D02*
X4464993Y-17694082D01*
X4464993Y-17694082D02*
X4474517Y-17684558D01*
X4474517Y-17684558D02*
X4493564Y-17675034D01*
X4493564Y-17675034D02*
X4541183Y-17675034D01*
X4541183Y-17675034D02*
X4560231Y-17684558D01*
X4560231Y-17684558D02*
X4569755Y-17694082D01*
X4569755Y-17694082D02*
X4579279Y-17713130D01*
X4579279Y-17713130D02*
X4579279Y-17760749D01*
X4579279Y-17760749D02*
X4569755Y-17779796D01*
X4569755Y-17779796D02*
X4560231Y-17789320D01*
X4560231Y-17789320D02*
X4541183Y-17798844D01*
X4541183Y-17798844D02*
X4493564Y-17798844D01*
X4493564Y-17798844D02*
X4474517Y-17789320D01*
X4474517Y-17789320D02*
X4464993Y-17779796D01*
X4664993Y-17779796D02*
X4674517Y-17789320D01*
X4674517Y-17789320D02*
X4664993Y-17798844D01*
X4664993Y-17798844D02*
X4655469Y-17789320D01*
X4655469Y-17789320D02*
X4664993Y-17779796D01*
X4664993Y-17779796D02*
X4664993Y-17798844D01*
X4798326Y-17598844D02*
X4817374Y-17598844D01*
X4817374Y-17598844D02*
X4836422Y-17608368D01*
X4836422Y-17608368D02*
X4845945Y-17617891D01*
X4845945Y-17617891D02*
X4855469Y-17636939D01*
X4855469Y-17636939D02*
X4864993Y-17675034D01*
X4864993Y-17675034D02*
X4864993Y-17722653D01*
X4864993Y-17722653D02*
X4855469Y-17760749D01*
X4855469Y-17760749D02*
X4845945Y-17779796D01*
X4845945Y-17779796D02*
X4836422Y-17789320D01*
X4836422Y-17789320D02*
X4817374Y-17798844D01*
X4817374Y-17798844D02*
X4798326Y-17798844D01*
X4798326Y-17798844D02*
X4779279Y-17789320D01*
X4779279Y-17789320D02*
X4769755Y-17779796D01*
X4769755Y-17779796D02*
X4760231Y-17760749D01*
X4760231Y-17760749D02*
X4750707Y-17722653D01*
X4750707Y-17722653D02*
X4750707Y-17675034D01*
X4750707Y-17675034D02*
X4760231Y-17636939D01*
X4760231Y-17636939D02*
X4769755Y-17617891D01*
X4769755Y-17617891D02*
X4779279Y-17608368D01*
X4779279Y-17608368D02*
X4798326Y-17598844D01*
X4988802Y-17598844D02*
X5007850Y-17598844D01*
X5007850Y-17598844D02*
X5026898Y-17608368D01*
X5026898Y-17608368D02*
X5036422Y-17617891D01*
X5036422Y-17617891D02*
X5045945Y-17636939D01*
X5045945Y-17636939D02*
X5055469Y-17675034D01*
X5055469Y-17675034D02*
X5055469Y-17722653D01*
X5055469Y-17722653D02*
X5045945Y-17760749D01*
X5045945Y-17760749D02*
X5036422Y-17779796D01*
X5036422Y-17779796D02*
X5026898Y-17789320D01*
X5026898Y-17789320D02*
X5007850Y-17798844D01*
X5007850Y-17798844D02*
X4988802Y-17798844D01*
X4988802Y-17798844D02*
X4969755Y-17789320D01*
X4969755Y-17789320D02*
X4960231Y-17779796D01*
X4960231Y-17779796D02*
X4950707Y-17760749D01*
X4950707Y-17760749D02*
X4941183Y-17722653D01*
X4941183Y-17722653D02*
X4941183Y-17675034D01*
X4941183Y-17675034D02*
X4950707Y-17636939D01*
X4950707Y-17636939D02*
X4960231Y-17617891D01*
X4960231Y-17617891D02*
X4969755Y-17608368D01*
X4969755Y-17608368D02*
X4988802Y-17598844D01*
X5179279Y-17598844D02*
X5198326Y-17598844D01*
X5198326Y-17598844D02*
X5217374Y-17608368D01*
X5217374Y-17608368D02*
X5226898Y-17617891D01*
X5226898Y-17617891D02*
X5236422Y-17636939D01*
X5236422Y-17636939D02*
X5245945Y-17675034D01*
X5245945Y-17675034D02*
X5245945Y-17722653D01*
X5245945Y-17722653D02*
X5236422Y-17760749D01*
X5236422Y-17760749D02*
X5226898Y-17779796D01*
X5226898Y-17779796D02*
X5217374Y-17789320D01*
X5217374Y-17789320D02*
X5198326Y-17798844D01*
X5198326Y-17798844D02*
X5179279Y-17798844D01*
X5179279Y-17798844D02*
X5160231Y-17789320D01*
X5160231Y-17789320D02*
X5150707Y-17779796D01*
X5150707Y-17779796D02*
X5141183Y-17760749D01*
X5141183Y-17760749D02*
X5131660Y-17722653D01*
X5131660Y-17722653D02*
X5131660Y-17675034D01*
X5131660Y-17675034D02*
X5141183Y-17636939D01*
X5141183Y-17636939D02*
X5150707Y-17617891D01*
X5150707Y-17617891D02*
X5160231Y-17608368D01*
X5160231Y-17608368D02*
X5179279Y-17598844D01*
X5331660Y-17798844D02*
X5331660Y-17665510D01*
X5331660Y-17684558D02*
X5341183Y-17675034D01*
X5341183Y-17675034D02*
X5360231Y-17665510D01*
X5360231Y-17665510D02*
X5388803Y-17665510D01*
X5388803Y-17665510D02*
X5407850Y-17675034D01*
X5407850Y-17675034D02*
X5417374Y-17694082D01*
X5417374Y-17694082D02*
X5417374Y-17798844D01*
X5417374Y-17694082D02*
X5426898Y-17675034D01*
X5426898Y-17675034D02*
X5445945Y-17665510D01*
X5445945Y-17665510D02*
X5474517Y-17665510D01*
X5474517Y-17665510D02*
X5493564Y-17675034D01*
X5493564Y-17675034D02*
X5503088Y-17694082D01*
X5503088Y-17694082D02*
X5503088Y-17798844D01*
X5598326Y-17798844D02*
X5598326Y-17665510D01*
X5598326Y-17684558D02*
X5607850Y-17675034D01*
X5607850Y-17675034D02*
X5626898Y-17665510D01*
X5626898Y-17665510D02*
X5655469Y-17665510D01*
X5655469Y-17665510D02*
X5674517Y-17675034D01*
X5674517Y-17675034D02*
X5684041Y-17694082D01*
X5684041Y-17694082D02*
X5684041Y-17798844D01*
X5684041Y-17694082D02*
X5693564Y-17675034D01*
X5693564Y-17675034D02*
X5712612Y-17665510D01*
X5712612Y-17665510D02*
X5741183Y-17665510D01*
X5741183Y-17665510D02*
X5760231Y-17675034D01*
X5760231Y-17675034D02*
X5769755Y-17694082D01*
X5769755Y-17694082D02*
X5769755Y-17798844D01*
X6160231Y-17589320D02*
X5988803Y-17846463D01*
X6417374Y-17598844D02*
X6436422Y-17598844D01*
X6436422Y-17598844D02*
X6455469Y-17608368D01*
X6455469Y-17608368D02*
X6464993Y-17617891D01*
X6464993Y-17617891D02*
X6474517Y-17636939D01*
X6474517Y-17636939D02*
X6484041Y-17675034D01*
X6484041Y-17675034D02*
X6484041Y-17722653D01*
X6484041Y-17722653D02*
X6474517Y-17760749D01*
X6474517Y-17760749D02*
X6464993Y-17779796D01*
X6464993Y-17779796D02*
X6455469Y-17789320D01*
X6455469Y-17789320D02*
X6436422Y-17798844D01*
X6436422Y-17798844D02*
X6417374Y-17798844D01*
X6417374Y-17798844D02*
X6398326Y-17789320D01*
X6398326Y-17789320D02*
X6388803Y-17779796D01*
X6388803Y-17779796D02*
X6379279Y-17760749D01*
X6379279Y-17760749D02*
X6369755Y-17722653D01*
X6369755Y-17722653D02*
X6369755Y-17675034D01*
X6369755Y-17675034D02*
X6379279Y-17636939D01*
X6379279Y-17636939D02*
X6388803Y-17617891D01*
X6388803Y-17617891D02*
X6398326Y-17608368D01*
X6398326Y-17608368D02*
X6417374Y-17598844D01*
X6569755Y-17779796D02*
X6579279Y-17789320D01*
X6579279Y-17789320D02*
X6569755Y-17798844D01*
X6569755Y-17798844D02*
X6560231Y-17789320D01*
X6560231Y-17789320D02*
X6569755Y-17779796D01*
X6569755Y-17779796D02*
X6569755Y-17798844D01*
X6769755Y-17798844D02*
X6655469Y-17798844D01*
X6712612Y-17798844D02*
X6712612Y-17598844D01*
X6712612Y-17598844D02*
X6693564Y-17627415D01*
X6693564Y-17627415D02*
X6674517Y-17646463D01*
X6674517Y-17646463D02*
X6655469Y-17655987D01*
X6864993Y-17798844D02*
X6903088Y-17798844D01*
X6903088Y-17798844D02*
X6922136Y-17789320D01*
X6922136Y-17789320D02*
X6931660Y-17779796D01*
X6931660Y-17779796D02*
X6950707Y-17751225D01*
X6950707Y-17751225D02*
X6960231Y-17713130D01*
X6960231Y-17713130D02*
X6960231Y-17636939D01*
X6960231Y-17636939D02*
X6950707Y-17617891D01*
X6950707Y-17617891D02*
X6941184Y-17608368D01*
X6941184Y-17608368D02*
X6922136Y-17598844D01*
X6922136Y-17598844D02*
X6884041Y-17598844D01*
X6884041Y-17598844D02*
X6864993Y-17608368D01*
X6864993Y-17608368D02*
X6855469Y-17617891D01*
X6855469Y-17617891D02*
X6845945Y-17636939D01*
X6845945Y-17636939D02*
X6845945Y-17684558D01*
X6845945Y-17684558D02*
X6855469Y-17703606D01*
X6855469Y-17703606D02*
X6864993Y-17713130D01*
X6864993Y-17713130D02*
X6884041Y-17722653D01*
X6884041Y-17722653D02*
X6922136Y-17722653D01*
X6922136Y-17722653D02*
X6941184Y-17713130D01*
X6941184Y-17713130D02*
X6950707Y-17703606D01*
X6950707Y-17703606D02*
X6960231Y-17684558D01*
X7131660Y-17598844D02*
X7093564Y-17598844D01*
X7093564Y-17598844D02*
X7074517Y-17608368D01*
X7074517Y-17608368D02*
X7064993Y-17617891D01*
X7064993Y-17617891D02*
X7045945Y-17646463D01*
X7045945Y-17646463D02*
X7036422Y-17684558D01*
X7036422Y-17684558D02*
X7036422Y-17760749D01*
X7036422Y-17760749D02*
X7045945Y-17779796D01*
X7045945Y-17779796D02*
X7055469Y-17789320D01*
X7055469Y-17789320D02*
X7074517Y-17798844D01*
X7074517Y-17798844D02*
X7112612Y-17798844D01*
X7112612Y-17798844D02*
X7131660Y-17789320D01*
X7131660Y-17789320D02*
X7141184Y-17779796D01*
X7141184Y-17779796D02*
X7150707Y-17760749D01*
X7150707Y-17760749D02*
X7150707Y-17713130D01*
X7150707Y-17713130D02*
X7141184Y-17694082D01*
X7141184Y-17694082D02*
X7131660Y-17684558D01*
X7131660Y-17684558D02*
X7112612Y-17675034D01*
X7112612Y-17675034D02*
X7074517Y-17675034D01*
X7074517Y-17675034D02*
X7055469Y-17684558D01*
X7055469Y-17684558D02*
X7045945Y-17694082D01*
X7045945Y-17694082D02*
X7036422Y-17713130D01*
X7245945Y-17798844D02*
X7284041Y-17798844D01*
X7284041Y-17798844D02*
X7303088Y-17789320D01*
X7303088Y-17789320D02*
X7312612Y-17779796D01*
X7312612Y-17779796D02*
X7331660Y-17751225D01*
X7331660Y-17751225D02*
X7341184Y-17713130D01*
X7341184Y-17713130D02*
X7341184Y-17636939D01*
X7341184Y-17636939D02*
X7331660Y-17617891D01*
X7331660Y-17617891D02*
X7322136Y-17608368D01*
X7322136Y-17608368D02*
X7303088Y-17598844D01*
X7303088Y-17598844D02*
X7264993Y-17598844D01*
X7264993Y-17598844D02*
X7245945Y-17608368D01*
X7245945Y-17608368D02*
X7236422Y-17617891D01*
X7236422Y-17617891D02*
X7226898Y-17636939D01*
X7226898Y-17636939D02*
X7226898Y-17684558D01*
X7226898Y-17684558D02*
X7236422Y-17703606D01*
X7236422Y-17703606D02*
X7245945Y-17713130D01*
X7245945Y-17713130D02*
X7264993Y-17722653D01*
X7264993Y-17722653D02*
X7303088Y-17722653D01*
X7303088Y-17722653D02*
X7322136Y-17713130D01*
X7322136Y-17713130D02*
X7331660Y-17703606D01*
X7331660Y-17703606D02*
X7341184Y-17684558D01*
X7417374Y-17598844D02*
X7417374Y-17636939D01*
X7493565Y-17598844D02*
X7493565Y-17636939D01*
X7788803Y-17875034D02*
X7779279Y-17865510D01*
X7779279Y-17865510D02*
X7760231Y-17836939D01*
X7760231Y-17836939D02*
X7750707Y-17817891D01*
X7750707Y-17817891D02*
X7741184Y-17789320D01*
X7741184Y-17789320D02*
X7731660Y-17741701D01*
X7731660Y-17741701D02*
X7731660Y-17703606D01*
X7731660Y-17703606D02*
X7741184Y-17655987D01*
X7741184Y-17655987D02*
X7750707Y-17627415D01*
X7750707Y-17627415D02*
X7760231Y-17608368D01*
X7760231Y-17608368D02*
X7779279Y-17579796D01*
X7779279Y-17579796D02*
X7788803Y-17570272D01*
X7969755Y-17798844D02*
X7855469Y-17798844D01*
X7912612Y-17798844D02*
X7912612Y-17598844D01*
X7912612Y-17598844D02*
X7893565Y-17627415D01*
X7893565Y-17627415D02*
X7874517Y-17646463D01*
X7874517Y-17646463D02*
X7855469Y-17655987D01*
X8150707Y-17598844D02*
X8055469Y-17598844D01*
X8055469Y-17598844D02*
X8045946Y-17694082D01*
X8045946Y-17694082D02*
X8055469Y-17684558D01*
X8055469Y-17684558D02*
X8074517Y-17675034D01*
X8074517Y-17675034D02*
X8122136Y-17675034D01*
X8122136Y-17675034D02*
X8141184Y-17684558D01*
X8141184Y-17684558D02*
X8150707Y-17694082D01*
X8150707Y-17694082D02*
X8160231Y-17713130D01*
X8160231Y-17713130D02*
X8160231Y-17760749D01*
X8160231Y-17760749D02*
X8150707Y-17779796D01*
X8150707Y-17779796D02*
X8141184Y-17789320D01*
X8141184Y-17789320D02*
X8122136Y-17798844D01*
X8122136Y-17798844D02*
X8074517Y-17798844D01*
X8074517Y-17798844D02*
X8055469Y-17789320D01*
X8055469Y-17789320D02*
X8045946Y-17779796D01*
X8398327Y-17798844D02*
X8398327Y-17598844D01*
X8484041Y-17798844D02*
X8484041Y-17694082D01*
X8484041Y-17694082D02*
X8474517Y-17675034D01*
X8474517Y-17675034D02*
X8455470Y-17665510D01*
X8455470Y-17665510D02*
X8426898Y-17665510D01*
X8426898Y-17665510D02*
X8407850Y-17675034D01*
X8407850Y-17675034D02*
X8398327Y-17684558D01*
X8607850Y-17798844D02*
X8588803Y-17789320D01*
X8588803Y-17789320D02*
X8579279Y-17779796D01*
X8579279Y-17779796D02*
X8569755Y-17760749D01*
X8569755Y-17760749D02*
X8569755Y-17703606D01*
X8569755Y-17703606D02*
X8579279Y-17684558D01*
X8579279Y-17684558D02*
X8588803Y-17675034D01*
X8588803Y-17675034D02*
X8607850Y-17665510D01*
X8607850Y-17665510D02*
X8636422Y-17665510D01*
X8636422Y-17665510D02*
X8655470Y-17675034D01*
X8655470Y-17675034D02*
X8664993Y-17684558D01*
X8664993Y-17684558D02*
X8674517Y-17703606D01*
X8674517Y-17703606D02*
X8674517Y-17760749D01*
X8674517Y-17760749D02*
X8664993Y-17779796D01*
X8664993Y-17779796D02*
X8655470Y-17789320D01*
X8655470Y-17789320D02*
X8636422Y-17798844D01*
X8636422Y-17798844D02*
X8607850Y-17798844D01*
X8788803Y-17798844D02*
X8769755Y-17789320D01*
X8769755Y-17789320D02*
X8760231Y-17770272D01*
X8760231Y-17770272D02*
X8760231Y-17598844D01*
X8941184Y-17789320D02*
X8922136Y-17798844D01*
X8922136Y-17798844D02*
X8884041Y-17798844D01*
X8884041Y-17798844D02*
X8864993Y-17789320D01*
X8864993Y-17789320D02*
X8855470Y-17770272D01*
X8855470Y-17770272D02*
X8855470Y-17694082D01*
X8855470Y-17694082D02*
X8864993Y-17675034D01*
X8864993Y-17675034D02*
X8884041Y-17665510D01*
X8884041Y-17665510D02*
X8922136Y-17665510D01*
X8922136Y-17665510D02*
X8941184Y-17675034D01*
X8941184Y-17675034D02*
X8950708Y-17694082D01*
X8950708Y-17694082D02*
X8950708Y-17713130D01*
X8950708Y-17713130D02*
X8855470Y-17732177D01*
X9026898Y-17789320D02*
X9045946Y-17798844D01*
X9045946Y-17798844D02*
X9084041Y-17798844D01*
X9084041Y-17798844D02*
X9103089Y-17789320D01*
X9103089Y-17789320D02*
X9112612Y-17770272D01*
X9112612Y-17770272D02*
X9112612Y-17760749D01*
X9112612Y-17760749D02*
X9103089Y-17741701D01*
X9103089Y-17741701D02*
X9084041Y-17732177D01*
X9084041Y-17732177D02*
X9055470Y-17732177D01*
X9055470Y-17732177D02*
X9036422Y-17722653D01*
X9036422Y-17722653D02*
X9026898Y-17703606D01*
X9026898Y-17703606D02*
X9026898Y-17694082D01*
X9026898Y-17694082D02*
X9036422Y-17675034D01*
X9036422Y-17675034D02*
X9055470Y-17665510D01*
X9055470Y-17665510D02*
X9084041Y-17665510D01*
X9084041Y-17665510D02*
X9103089Y-17675034D01*
X9179279Y-17875034D02*
X9188803Y-17865510D01*
X9188803Y-17865510D02*
X9207851Y-17836939D01*
X9207851Y-17836939D02*
X9217374Y-17817891D01*
X9217374Y-17817891D02*
X9226898Y-17789320D01*
X9226898Y-17789320D02*
X9236422Y-17741701D01*
X9236422Y-17741701D02*
X9236422Y-17703606D01*
X9236422Y-17703606D02*
X9226898Y-17655987D01*
X9226898Y-17655987D02*
X9217374Y-17627415D01*
X9217374Y-17627415D02*
X9207851Y-17608368D01*
X9207851Y-17608368D02*
X9188803Y-17579796D01*
X9188803Y-17579796D02*
X9179279Y-17570272D01*
X4013740Y-17927360D02*
X4213740Y-18127360D01*
X4213740Y-17927360D02*
X4013740Y-18127360D01*
X4213740Y-18027360D02*
G75*
G02*
X4013740Y-18027360I-100000J0D01*
G01*
X4013740Y-18027360D02*
G75*
G02*
X4213740Y-18027360I100000J0D01*
G01*
X4560231Y-17918844D02*
X4522136Y-17918844D01*
X4522136Y-17918844D02*
X4503088Y-17928368D01*
X4503088Y-17928368D02*
X4493564Y-17937891D01*
X4493564Y-17937891D02*
X4474517Y-17966463D01*
X4474517Y-17966463D02*
X4464993Y-18004558D01*
X4464993Y-18004558D02*
X4464993Y-18080749D01*
X4464993Y-18080749D02*
X4474517Y-18099796D01*
X4474517Y-18099796D02*
X4484041Y-18109320D01*
X4484041Y-18109320D02*
X4503088Y-18118844D01*
X4503088Y-18118844D02*
X4541183Y-18118844D01*
X4541183Y-18118844D02*
X4560231Y-18109320D01*
X4560231Y-18109320D02*
X4569755Y-18099796D01*
X4569755Y-18099796D02*
X4579279Y-18080749D01*
X4579279Y-18080749D02*
X4579279Y-18033130D01*
X4579279Y-18033130D02*
X4569755Y-18014082D01*
X4569755Y-18014082D02*
X4560231Y-18004558D01*
X4560231Y-18004558D02*
X4541183Y-17995034D01*
X4541183Y-17995034D02*
X4503088Y-17995034D01*
X4503088Y-17995034D02*
X4484041Y-18004558D01*
X4484041Y-18004558D02*
X4474517Y-18014082D01*
X4474517Y-18014082D02*
X4464993Y-18033130D01*
X4664993Y-18099796D02*
X4674517Y-18109320D01*
X4674517Y-18109320D02*
X4664993Y-18118844D01*
X4664993Y-18118844D02*
X4655469Y-18109320D01*
X4655469Y-18109320D02*
X4664993Y-18099796D01*
X4664993Y-18099796D02*
X4664993Y-18118844D01*
X4798326Y-17918844D02*
X4817374Y-17918844D01*
X4817374Y-17918844D02*
X4836422Y-17928368D01*
X4836422Y-17928368D02*
X4845945Y-17937891D01*
X4845945Y-17937891D02*
X4855469Y-17956939D01*
X4855469Y-17956939D02*
X4864993Y-17995034D01*
X4864993Y-17995034D02*
X4864993Y-18042653D01*
X4864993Y-18042653D02*
X4855469Y-18080749D01*
X4855469Y-18080749D02*
X4845945Y-18099796D01*
X4845945Y-18099796D02*
X4836422Y-18109320D01*
X4836422Y-18109320D02*
X4817374Y-18118844D01*
X4817374Y-18118844D02*
X4798326Y-18118844D01*
X4798326Y-18118844D02*
X4779279Y-18109320D01*
X4779279Y-18109320D02*
X4769755Y-18099796D01*
X4769755Y-18099796D02*
X4760231Y-18080749D01*
X4760231Y-18080749D02*
X4750707Y-18042653D01*
X4750707Y-18042653D02*
X4750707Y-17995034D01*
X4750707Y-17995034D02*
X4760231Y-17956939D01*
X4760231Y-17956939D02*
X4769755Y-17937891D01*
X4769755Y-17937891D02*
X4779279Y-17928368D01*
X4779279Y-17928368D02*
X4798326Y-17918844D01*
X4988802Y-17918844D02*
X5007850Y-17918844D01*
X5007850Y-17918844D02*
X5026898Y-17928368D01*
X5026898Y-17928368D02*
X5036422Y-17937891D01*
X5036422Y-17937891D02*
X5045945Y-17956939D01*
X5045945Y-17956939D02*
X5055469Y-17995034D01*
X5055469Y-17995034D02*
X5055469Y-18042653D01*
X5055469Y-18042653D02*
X5045945Y-18080749D01*
X5045945Y-18080749D02*
X5036422Y-18099796D01*
X5036422Y-18099796D02*
X5026898Y-18109320D01*
X5026898Y-18109320D02*
X5007850Y-18118844D01*
X5007850Y-18118844D02*
X4988802Y-18118844D01*
X4988802Y-18118844D02*
X4969755Y-18109320D01*
X4969755Y-18109320D02*
X4960231Y-18099796D01*
X4960231Y-18099796D02*
X4950707Y-18080749D01*
X4950707Y-18080749D02*
X4941183Y-18042653D01*
X4941183Y-18042653D02*
X4941183Y-17995034D01*
X4941183Y-17995034D02*
X4950707Y-17956939D01*
X4950707Y-17956939D02*
X4960231Y-17937891D01*
X4960231Y-17937891D02*
X4969755Y-17928368D01*
X4969755Y-17928368D02*
X4988802Y-17918844D01*
X5179279Y-17918844D02*
X5198326Y-17918844D01*
X5198326Y-17918844D02*
X5217374Y-17928368D01*
X5217374Y-17928368D02*
X5226898Y-17937891D01*
X5226898Y-17937891D02*
X5236422Y-17956939D01*
X5236422Y-17956939D02*
X5245945Y-17995034D01*
X5245945Y-17995034D02*
X5245945Y-18042653D01*
X5245945Y-18042653D02*
X5236422Y-18080749D01*
X5236422Y-18080749D02*
X5226898Y-18099796D01*
X5226898Y-18099796D02*
X5217374Y-18109320D01*
X5217374Y-18109320D02*
X5198326Y-18118844D01*
X5198326Y-18118844D02*
X5179279Y-18118844D01*
X5179279Y-18118844D02*
X5160231Y-18109320D01*
X5160231Y-18109320D02*
X5150707Y-18099796D01*
X5150707Y-18099796D02*
X5141183Y-18080749D01*
X5141183Y-18080749D02*
X5131660Y-18042653D01*
X5131660Y-18042653D02*
X5131660Y-17995034D01*
X5131660Y-17995034D02*
X5141183Y-17956939D01*
X5141183Y-17956939D02*
X5150707Y-17937891D01*
X5150707Y-17937891D02*
X5160231Y-17928368D01*
X5160231Y-17928368D02*
X5179279Y-17918844D01*
X5331660Y-18118844D02*
X5331660Y-17985510D01*
X5331660Y-18004558D02*
X5341183Y-17995034D01*
X5341183Y-17995034D02*
X5360231Y-17985510D01*
X5360231Y-17985510D02*
X5388803Y-17985510D01*
X5388803Y-17985510D02*
X5407850Y-17995034D01*
X5407850Y-17995034D02*
X5417374Y-18014082D01*
X5417374Y-18014082D02*
X5417374Y-18118844D01*
X5417374Y-18014082D02*
X5426898Y-17995034D01*
X5426898Y-17995034D02*
X5445945Y-17985510D01*
X5445945Y-17985510D02*
X5474517Y-17985510D01*
X5474517Y-17985510D02*
X5493564Y-17995034D01*
X5493564Y-17995034D02*
X5503088Y-18014082D01*
X5503088Y-18014082D02*
X5503088Y-18118844D01*
X5598326Y-18118844D02*
X5598326Y-17985510D01*
X5598326Y-18004558D02*
X5607850Y-17995034D01*
X5607850Y-17995034D02*
X5626898Y-17985510D01*
X5626898Y-17985510D02*
X5655469Y-17985510D01*
X5655469Y-17985510D02*
X5674517Y-17995034D01*
X5674517Y-17995034D02*
X5684041Y-18014082D01*
X5684041Y-18014082D02*
X5684041Y-18118844D01*
X5684041Y-18014082D02*
X5693564Y-17995034D01*
X5693564Y-17995034D02*
X5712612Y-17985510D01*
X5712612Y-17985510D02*
X5741183Y-17985510D01*
X5741183Y-17985510D02*
X5760231Y-17995034D01*
X5760231Y-17995034D02*
X5769755Y-18014082D01*
X5769755Y-18014082D02*
X5769755Y-18118844D01*
X6160231Y-17909320D02*
X5988803Y-18166463D01*
X6417374Y-17918844D02*
X6436422Y-17918844D01*
X6436422Y-17918844D02*
X6455469Y-17928368D01*
X6455469Y-17928368D02*
X6464993Y-17937891D01*
X6464993Y-17937891D02*
X6474517Y-17956939D01*
X6474517Y-17956939D02*
X6484041Y-17995034D01*
X6484041Y-17995034D02*
X6484041Y-18042653D01*
X6484041Y-18042653D02*
X6474517Y-18080749D01*
X6474517Y-18080749D02*
X6464993Y-18099796D01*
X6464993Y-18099796D02*
X6455469Y-18109320D01*
X6455469Y-18109320D02*
X6436422Y-18118844D01*
X6436422Y-18118844D02*
X6417374Y-18118844D01*
X6417374Y-18118844D02*
X6398326Y-18109320D01*
X6398326Y-18109320D02*
X6388803Y-18099796D01*
X6388803Y-18099796D02*
X6379279Y-18080749D01*
X6379279Y-18080749D02*
X6369755Y-18042653D01*
X6369755Y-18042653D02*
X6369755Y-17995034D01*
X6369755Y-17995034D02*
X6379279Y-17956939D01*
X6379279Y-17956939D02*
X6388803Y-17937891D01*
X6388803Y-17937891D02*
X6398326Y-17928368D01*
X6398326Y-17928368D02*
X6417374Y-17918844D01*
X6569755Y-18099796D02*
X6579279Y-18109320D01*
X6579279Y-18109320D02*
X6569755Y-18118844D01*
X6569755Y-18118844D02*
X6560231Y-18109320D01*
X6560231Y-18109320D02*
X6569755Y-18099796D01*
X6569755Y-18099796D02*
X6569755Y-18118844D01*
X6655469Y-17937891D02*
X6664993Y-17928368D01*
X6664993Y-17928368D02*
X6684041Y-17918844D01*
X6684041Y-17918844D02*
X6731660Y-17918844D01*
X6731660Y-17918844D02*
X6750707Y-17928368D01*
X6750707Y-17928368D02*
X6760231Y-17937891D01*
X6760231Y-17937891D02*
X6769755Y-17956939D01*
X6769755Y-17956939D02*
X6769755Y-17975987D01*
X6769755Y-17975987D02*
X6760231Y-18004558D01*
X6760231Y-18004558D02*
X6645945Y-18118844D01*
X6645945Y-18118844D02*
X6769755Y-18118844D01*
X6836422Y-17918844D02*
X6960231Y-17918844D01*
X6960231Y-17918844D02*
X6893564Y-17995034D01*
X6893564Y-17995034D02*
X6922136Y-17995034D01*
X6922136Y-17995034D02*
X6941184Y-18004558D01*
X6941184Y-18004558D02*
X6950707Y-18014082D01*
X6950707Y-18014082D02*
X6960231Y-18033130D01*
X6960231Y-18033130D02*
X6960231Y-18080749D01*
X6960231Y-18080749D02*
X6950707Y-18099796D01*
X6950707Y-18099796D02*
X6941184Y-18109320D01*
X6941184Y-18109320D02*
X6922136Y-18118844D01*
X6922136Y-18118844D02*
X6864993Y-18118844D01*
X6864993Y-18118844D02*
X6845945Y-18109320D01*
X6845945Y-18109320D02*
X6836422Y-18099796D01*
X7131660Y-17918844D02*
X7093564Y-17918844D01*
X7093564Y-17918844D02*
X7074517Y-17928368D01*
X7074517Y-17928368D02*
X7064993Y-17937891D01*
X7064993Y-17937891D02*
X7045945Y-17966463D01*
X7045945Y-17966463D02*
X7036422Y-18004558D01*
X7036422Y-18004558D02*
X7036422Y-18080749D01*
X7036422Y-18080749D02*
X7045945Y-18099796D01*
X7045945Y-18099796D02*
X7055469Y-18109320D01*
X7055469Y-18109320D02*
X7074517Y-18118844D01*
X7074517Y-18118844D02*
X7112612Y-18118844D01*
X7112612Y-18118844D02*
X7131660Y-18109320D01*
X7131660Y-18109320D02*
X7141184Y-18099796D01*
X7141184Y-18099796D02*
X7150707Y-18080749D01*
X7150707Y-18080749D02*
X7150707Y-18033130D01*
X7150707Y-18033130D02*
X7141184Y-18014082D01*
X7141184Y-18014082D02*
X7131660Y-18004558D01*
X7131660Y-18004558D02*
X7112612Y-17995034D01*
X7112612Y-17995034D02*
X7074517Y-17995034D01*
X7074517Y-17995034D02*
X7055469Y-18004558D01*
X7055469Y-18004558D02*
X7045945Y-18014082D01*
X7045945Y-18014082D02*
X7036422Y-18033130D01*
X7226898Y-17937891D02*
X7236422Y-17928368D01*
X7236422Y-17928368D02*
X7255469Y-17918844D01*
X7255469Y-17918844D02*
X7303088Y-17918844D01*
X7303088Y-17918844D02*
X7322136Y-17928368D01*
X7322136Y-17928368D02*
X7331660Y-17937891D01*
X7331660Y-17937891D02*
X7341184Y-17956939D01*
X7341184Y-17956939D02*
X7341184Y-17975987D01*
X7341184Y-17975987D02*
X7331660Y-18004558D01*
X7331660Y-18004558D02*
X7217374Y-18118844D01*
X7217374Y-18118844D02*
X7341184Y-18118844D01*
X7417374Y-17918844D02*
X7417374Y-17956939D01*
X7493565Y-17918844D02*
X7493565Y-17956939D01*
X7788803Y-18195034D02*
X7779279Y-18185510D01*
X7779279Y-18185510D02*
X7760231Y-18156939D01*
X7760231Y-18156939D02*
X7750707Y-18137891D01*
X7750707Y-18137891D02*
X7741184Y-18109320D01*
X7741184Y-18109320D02*
X7731660Y-18061701D01*
X7731660Y-18061701D02*
X7731660Y-18023606D01*
X7731660Y-18023606D02*
X7741184Y-17975987D01*
X7741184Y-17975987D02*
X7750707Y-17947415D01*
X7750707Y-17947415D02*
X7760231Y-17928368D01*
X7760231Y-17928368D02*
X7779279Y-17899796D01*
X7779279Y-17899796D02*
X7788803Y-17890272D01*
X7950707Y-17985510D02*
X7950707Y-18118844D01*
X7903088Y-17909320D02*
X7855469Y-18052177D01*
X7855469Y-18052177D02*
X7979279Y-18052177D01*
X8207850Y-18118844D02*
X8207850Y-17918844D01*
X8293565Y-18118844D02*
X8293565Y-18014082D01*
X8293565Y-18014082D02*
X8284041Y-17995034D01*
X8284041Y-17995034D02*
X8264993Y-17985510D01*
X8264993Y-17985510D02*
X8236422Y-17985510D01*
X8236422Y-17985510D02*
X8217374Y-17995034D01*
X8217374Y-17995034D02*
X8207850Y-18004558D01*
X8417374Y-18118844D02*
X8398327Y-18109320D01*
X8398327Y-18109320D02*
X8388803Y-18099796D01*
X8388803Y-18099796D02*
X8379279Y-18080749D01*
X8379279Y-18080749D02*
X8379279Y-18023606D01*
X8379279Y-18023606D02*
X8388803Y-18004558D01*
X8388803Y-18004558D02*
X8398327Y-17995034D01*
X8398327Y-17995034D02*
X8417374Y-17985510D01*
X8417374Y-17985510D02*
X8445946Y-17985510D01*
X8445946Y-17985510D02*
X8464993Y-17995034D01*
X8464993Y-17995034D02*
X8474517Y-18004558D01*
X8474517Y-18004558D02*
X8484041Y-18023606D01*
X8484041Y-18023606D02*
X8484041Y-18080749D01*
X8484041Y-18080749D02*
X8474517Y-18099796D01*
X8474517Y-18099796D02*
X8464993Y-18109320D01*
X8464993Y-18109320D02*
X8445946Y-18118844D01*
X8445946Y-18118844D02*
X8417374Y-18118844D01*
X8598327Y-18118844D02*
X8579279Y-18109320D01*
X8579279Y-18109320D02*
X8569755Y-18090272D01*
X8569755Y-18090272D02*
X8569755Y-17918844D01*
X8750708Y-18109320D02*
X8731660Y-18118844D01*
X8731660Y-18118844D02*
X8693565Y-18118844D01*
X8693565Y-18118844D02*
X8674517Y-18109320D01*
X8674517Y-18109320D02*
X8664993Y-18090272D01*
X8664993Y-18090272D02*
X8664993Y-18014082D01*
X8664993Y-18014082D02*
X8674517Y-17995034D01*
X8674517Y-17995034D02*
X8693565Y-17985510D01*
X8693565Y-17985510D02*
X8731660Y-17985510D01*
X8731660Y-17985510D02*
X8750708Y-17995034D01*
X8750708Y-17995034D02*
X8760231Y-18014082D01*
X8760231Y-18014082D02*
X8760231Y-18033130D01*
X8760231Y-18033130D02*
X8664993Y-18052177D01*
X8836422Y-18109320D02*
X8855470Y-18118844D01*
X8855470Y-18118844D02*
X8893565Y-18118844D01*
X8893565Y-18118844D02*
X8912612Y-18109320D01*
X8912612Y-18109320D02*
X8922136Y-18090272D01*
X8922136Y-18090272D02*
X8922136Y-18080749D01*
X8922136Y-18080749D02*
X8912612Y-18061701D01*
X8912612Y-18061701D02*
X8893565Y-18052177D01*
X8893565Y-18052177D02*
X8864993Y-18052177D01*
X8864993Y-18052177D02*
X8845946Y-18042653D01*
X8845946Y-18042653D02*
X8836422Y-18023606D01*
X8836422Y-18023606D02*
X8836422Y-18014082D01*
X8836422Y-18014082D02*
X8845946Y-17995034D01*
X8845946Y-17995034D02*
X8864993Y-17985510D01*
X8864993Y-17985510D02*
X8893565Y-17985510D01*
X8893565Y-17985510D02*
X8912612Y-17995034D01*
X8988803Y-18195034D02*
X8998327Y-18185510D01*
X8998327Y-18185510D02*
X9017374Y-18156939D01*
X9017374Y-18156939D02*
X9026898Y-18137891D01*
X9026898Y-18137891D02*
X9036422Y-18109320D01*
X9036422Y-18109320D02*
X9045946Y-18061701D01*
X9045946Y-18061701D02*
X9045946Y-18023606D01*
X9045946Y-18023606D02*
X9036422Y-17975987D01*
X9036422Y-17975987D02*
X9026898Y-17947415D01*
X9026898Y-17947415D02*
X9017374Y-17928368D01*
X9017374Y-17928368D02*
X8998327Y-17899796D01*
X8998327Y-17899796D02*
X8988803Y-17890272D01*
M02*
