M48
; DRILL file {KiCad 8.0.1} date 2024-04-30T18:25:37+0200
; FORMAT={-:-/ absolute / inch / decimal}
; #@! TF.CreationDate,2024-04-30T18:25:37+02:00
; #@! TF.GenerationSoftware,Kicad,Pcbnew,8.0.1
; #@! TF.FileFunction,Plated,1,2,PTH
FMAT,2
INCH
; #@! TA.AperFunction,Plated,PTH,ComponentDrill
T1C0.0906
; #@! TA.AperFunction,Plated,PTH,ComponentDrill
T2C0.0984
; #@! TA.AperFunction,Plated,PTH,ComponentDrill
T3C0.1260
; #@! TA.AperFunction,Plated,PTH,ComponentDrill
T4C0.1575
; #@! TA.AperFunction,Plated,PTH,ComponentDrill
T5C0.1969
; #@! TA.AperFunction,Plated,PTH,ComponentDrill
T6C0.2362
%
G90
G05
T2
X2.0775Y-2.4512
X2.0775Y-3.6717
X2.5925Y-2.5815
X2.5925Y-3.802
X3.1075Y-2.4562
X3.1075Y-3.6767
X3.6225Y-2.5765
X3.6225Y-3.797
X4.1375Y-2.4615
X4.1375Y-3.682
X4.6525Y-2.5917
X4.6525Y-3.8122
X5.1675Y-2.4665
X5.1675Y-3.687
X5.6825Y-2.5867
X5.6825Y-3.8072
X6.1975Y-2.4512
X6.1975Y-3.6717
X6.7125Y-2.5815
X6.7125Y-3.802
X7.2275Y-2.4562
X7.2275Y-3.6767
X7.7425Y-2.5765
X7.7425Y-3.797
T4
X3.0215Y-4.3178
T5
X1.9915Y-1.7991
X2.5065Y-1.9191
X3.0215Y-1.7991
X3.5365Y-1.9191
X3.5365Y-4.3591
X4.0515Y-1.7991
X4.5665Y-1.9191
X5.0815Y-1.7991
X5.5965Y-1.9191
X5.5965Y-4.3591
X6.1115Y-1.7991
X6.6265Y-1.9191
X6.6265Y-4.3591
X7.1415Y-1.7991
X7.6565Y-1.9191
T6
X1.9915Y-4.2391
X2.5065Y-4.3591
X7.1415Y-4.2391
X7.6565Y-4.3591
T1
G00X2.0775Y-2.6343
M15
G01X2.0775Y-3.4886
M16
G05
G00X2.5925Y-2.7646
M15
G01X2.5925Y-3.6189
M16
G05
G00X3.1075Y-2.6393
M15
G01X3.1075Y-3.4936
M16
G05
G00X3.6225Y-2.7596
M15
G01X3.6225Y-3.6139
M16
G05
G00X4.1375Y-2.6446
M15
G01X4.1375Y-3.4989
M16
G05
G00X4.6525Y-2.7748
M15
G01X4.6525Y-3.6291
M16
G05
G00X5.1675Y-2.6496
M15
G01X5.1675Y-3.5039
M16
G05
G00X5.6825Y-2.7698
M15
G01X5.6825Y-3.6241
M16
G05
G00X6.1975Y-2.6343
M15
G01X6.1975Y-3.4886
M16
G05
G00X6.7125Y-2.7646
M15
G01X6.7125Y-3.6189
M16
G05
G00X7.2275Y-2.6393
M15
G01X7.2275Y-3.4936
M16
G05
G00X7.7425Y-2.7596
M15
G01X7.7425Y-3.6139
M16
G05
T3
G00X1.8971Y-1.2726
M15
G01X1.9759Y-1.2726
M16
G05
G00X1.8971Y-6.0954
M15
G01X1.9759Y-6.0954
M16
G05
G00X7.7341Y-1.2726
M15
G01X7.8129Y-1.2726
M16
G05
G00X7.7341Y-6.0954
M15
G01X7.8129Y-6.0954
M16
G05
M30
