%TF.GenerationSoftware,KiCad,Pcbnew,8.0.1*%
%TF.CreationDate,2024-04-30T18:25:33+02:00*%
%TF.ProjectId,Simple panel,53696d70-6c65-4207-9061-6e656c2e6b69,rev?*%
%TF.SameCoordinates,Original*%
%TF.FileFunction,Soldermask,Bot*%
%TF.FilePolarity,Negative*%
%FSLAX46Y46*%
G04 Gerber Fmt 4.6, Leading zero omitted, Abs format (unit mm)*
G04 Created by KiCad (PCBNEW 8.0.1) date 2024-04-30 18:25:33*
%MOMM*%
%LPD*%
G01*
G04 APERTURE LIST*
%ADD10C,3.500000*%
%ADD11O,3.300000X25.000000*%
%ADD12C,6.000000*%
%ADD13O,6.000000X4.000000*%
%ADD14C,7.000000*%
%ADD15C,5.000000*%
G04 APERTURE END LIST*
D10*
%TO.C,REF\u002A\u002A*%
X183578399Y-62388600D03*
D11*
X183578399Y-77888600D03*
D10*
X183578399Y-93388600D03*
%TD*%
%TO.C,REF\u002A\u002A*%
X157416399Y-62261600D03*
D11*
X157416399Y-77761600D03*
D10*
X157416399Y-93261600D03*
%TD*%
%TO.C,REF\u002A\u002A*%
X196659399Y-65442600D03*
D11*
X196659399Y-80942600D03*
D10*
X196659399Y-96442600D03*
%TD*%
%TO.C,REF\u002A\u002A*%
X118173399Y-65829600D03*
D11*
X118173399Y-81329600D03*
D10*
X118173399Y-96829600D03*
%TD*%
D12*
%TO.C,REF\u002A\u002A*%
X168312999Y-110720000D03*
%TD*%
%TO.C,REF\u002A\u002A*%
X89826999Y-110720000D03*
%TD*%
%TO.C,REF\u002A\u002A*%
X194474999Y-48744000D03*
%TD*%
D13*
%TO.C,REF\u002A\u002A*%
X49187399Y-154823600D03*
%TD*%
D12*
%TO.C,REF\u002A\u002A*%
X76745999Y-45696000D03*
%TD*%
%TO.C,REF\u002A\u002A*%
X168312999Y-48744000D03*
%TD*%
D13*
%TO.C,REF\u002A\u002A*%
X49187399Y-32323600D03*
%TD*%
D12*
%TO.C,REF\u002A\u002A*%
X89826999Y-48744000D03*
%TD*%
%TO.C,REF\u002A\u002A*%
X102907999Y-45696000D03*
%TD*%
%TO.C,REF\u002A\u002A*%
X129069999Y-45696000D03*
%TD*%
D14*
%TO.C,REF\u002A\u002A*%
X50583999Y-107672000D03*
%TD*%
D10*
%TO.C,REF\u002A\u002A*%
X144335399Y-65702600D03*
D11*
X144335399Y-81202600D03*
D10*
X144335399Y-96702600D03*
%TD*%
%TO.C,REF\u002A\u002A*%
X78930399Y-62388600D03*
D11*
X78930399Y-77888600D03*
D10*
X78930399Y-93388600D03*
%TD*%
D14*
%TO.C,REF\u002A\u002A*%
X63664999Y-110720000D03*
%TD*%
D15*
%TO.C,*%
X76745999Y-109672000D03*
%TD*%
D10*
%TO.C,REF\u002A\u002A*%
X131254399Y-62648600D03*
D11*
X131254399Y-78148600D03*
D10*
X131254399Y-93648600D03*
%TD*%
D12*
%TO.C,REF\u002A\u002A*%
X142150999Y-48744000D03*
%TD*%
%TO.C,REF\u002A\u002A*%
X115988999Y-48744000D03*
%TD*%
D13*
%TO.C,REF\u002A\u002A*%
X197447399Y-154823600D03*
%TD*%
%TO.C,REF\u002A\u002A*%
X197447399Y-32323600D03*
%TD*%
D10*
%TO.C,REF\u002A\u002A*%
X65849399Y-65569600D03*
D11*
X65849399Y-81069600D03*
D10*
X65849399Y-96569600D03*
%TD*%
%TO.C,REF\u002A\u002A*%
X105092399Y-62521600D03*
D11*
X105092399Y-78021600D03*
D10*
X105092399Y-93521600D03*
%TD*%
D12*
%TO.C,REF\u002A\u002A*%
X181393999Y-45696000D03*
%TD*%
D10*
%TO.C,REF\u002A\u002A*%
X92011399Y-65442600D03*
D11*
X92011399Y-80942600D03*
D10*
X92011399Y-96442600D03*
%TD*%
D14*
%TO.C,REF\u002A\u002A*%
X194474999Y-110720000D03*
%TD*%
D12*
%TO.C,REF\u002A\u002A*%
X50583999Y-45696000D03*
%TD*%
%TO.C,REF\u002A\u002A*%
X142150999Y-110720000D03*
%TD*%
D14*
%TO.C,REF\u002A\u002A*%
X181393999Y-107672000D03*
%TD*%
D12*
%TO.C,REF\u002A\u002A*%
X155231999Y-45696000D03*
%TD*%
D10*
%TO.C,REF\u002A\u002A*%
X170497399Y-65569600D03*
D11*
X170497399Y-81069600D03*
D10*
X170497399Y-96569600D03*
%TD*%
%TO.C,REF\u002A\u002A*%
X52768399Y-62261600D03*
D11*
X52768399Y-77761600D03*
D10*
X52768399Y-93261600D03*
%TD*%
D12*
%TO.C,REF\u002A\u002A*%
X63664999Y-48744000D03*
%TD*%
M02*
