%TF.GenerationSoftware,KiCad,Pcbnew,8.0.1*%
%TF.CreationDate,2024-04-30T18:25:33+02:00*%
%TF.ProjectId,Simple panel,53696d70-6c65-4207-9061-6e656c2e6b69,rev?*%
%TF.SameCoordinates,Original*%
%TF.FileFunction,Copper,L1,Top*%
%TF.FilePolarity,Positive*%
%FSLAX46Y46*%
G04 Gerber Fmt 4.6, Leading zero omitted, Abs format (unit mm)*
G04 Created by KiCad (PCBNEW 8.0.1) date 2024-04-30 18:25:33*
%MOMM*%
%LPD*%
G01*
G04 APERTURE LIST*
%TA.AperFunction,ComponentPad*%
%ADD10C,3.500000*%
%TD*%
%TA.AperFunction,ComponentPad*%
%ADD11O,3.300000X25.000000*%
%TD*%
%TA.AperFunction,ComponentPad*%
%ADD12C,6.000000*%
%TD*%
%TA.AperFunction,ComponentPad*%
%ADD13O,6.000000X4.000000*%
%TD*%
%TA.AperFunction,ComponentPad*%
%ADD14C,7.000000*%
%TD*%
%TA.AperFunction,ComponentPad*%
%ADD15C,5.000000*%
%TD*%
G04 APERTURE END LIST*
D10*
%TO.P,REF\u002A\u002A,*%
%TO.N,*%
X183578399Y-62388600D03*
D11*
X183578399Y-77888600D03*
D10*
X183578399Y-93388600D03*
%TD*%
%TO.P,REF\u002A\u002A,*%
%TO.N,*%
X157416399Y-62261600D03*
D11*
X157416399Y-77761600D03*
D10*
X157416399Y-93261600D03*
%TD*%
%TO.P,REF\u002A\u002A,*%
%TO.N,*%
X196659399Y-65442600D03*
D11*
X196659399Y-80942600D03*
D10*
X196659399Y-96442600D03*
%TD*%
%TO.P,REF\u002A\u002A,*%
%TO.N,*%
X118173399Y-65829600D03*
D11*
X118173399Y-81329600D03*
D10*
X118173399Y-96829600D03*
%TD*%
D12*
%TO.P,REF\u002A\u002A,*%
%TO.N,*%
X168312999Y-110720000D03*
%TD*%
%TO.P,REF\u002A\u002A,*%
%TO.N,*%
X89826999Y-110720000D03*
%TD*%
%TO.P,REF\u002A\u002A,*%
%TO.N,*%
X194474999Y-48744000D03*
%TD*%
D13*
%TO.P,REF\u002A\u002A,*%
%TO.N,*%
X49187399Y-154823600D03*
%TD*%
D12*
%TO.P,REF\u002A\u002A,*%
%TO.N,*%
X76745999Y-45696000D03*
%TD*%
%TO.P,REF\u002A\u002A,*%
%TO.N,*%
X168312999Y-48744000D03*
%TD*%
D13*
%TO.P,REF\u002A\u002A,*%
%TO.N,*%
X49187399Y-32323600D03*
%TD*%
D12*
%TO.P,REF\u002A\u002A,*%
%TO.N,*%
X89826999Y-48744000D03*
%TD*%
%TO.P,REF\u002A\u002A,*%
%TO.N,*%
X102907999Y-45696000D03*
%TD*%
%TO.P,REF\u002A\u002A,*%
%TO.N,*%
X129069999Y-45696000D03*
%TD*%
D14*
%TO.P,REF\u002A\u002A,*%
%TO.N,*%
X50583999Y-107672000D03*
%TD*%
D10*
%TO.P,REF\u002A\u002A,*%
%TO.N,*%
X144335399Y-65702600D03*
D11*
X144335399Y-81202600D03*
D10*
X144335399Y-96702600D03*
%TD*%
%TO.P,REF\u002A\u002A,*%
%TO.N,*%
X78930399Y-62388600D03*
D11*
X78930399Y-77888600D03*
D10*
X78930399Y-93388600D03*
%TD*%
D14*
%TO.P,REF\u002A\u002A,*%
%TO.N,*%
X63664999Y-110720000D03*
%TD*%
D15*
%TO.P,,*%
%TO.N,*%
X76745999Y-109672000D03*
%TD*%
D10*
%TO.P,REF\u002A\u002A,*%
%TO.N,*%
X131254399Y-62648600D03*
D11*
X131254399Y-78148600D03*
D10*
X131254399Y-93648600D03*
%TD*%
D12*
%TO.P,REF\u002A\u002A,*%
%TO.N,*%
X142150999Y-48744000D03*
%TD*%
%TO.P,REF\u002A\u002A,*%
%TO.N,*%
X115988999Y-48744000D03*
%TD*%
D13*
%TO.P,REF\u002A\u002A,*%
%TO.N,*%
X197447399Y-154823600D03*
%TD*%
%TO.P,REF\u002A\u002A,*%
%TO.N,*%
X197447399Y-32323600D03*
%TD*%
D10*
%TO.P,REF\u002A\u002A,*%
%TO.N,*%
X65849399Y-65569600D03*
D11*
X65849399Y-81069600D03*
D10*
X65849399Y-96569600D03*
%TD*%
%TO.P,REF\u002A\u002A,*%
%TO.N,*%
X105092399Y-62521600D03*
D11*
X105092399Y-78021600D03*
D10*
X105092399Y-93521600D03*
%TD*%
D12*
%TO.P,REF\u002A\u002A,*%
%TO.N,*%
X181393999Y-45696000D03*
%TD*%
D10*
%TO.P,REF\u002A\u002A,*%
%TO.N,*%
X92011399Y-65442600D03*
D11*
X92011399Y-80942600D03*
D10*
X92011399Y-96442600D03*
%TD*%
D14*
%TO.P,REF\u002A\u002A,*%
%TO.N,*%
X194474999Y-110720000D03*
%TD*%
D12*
%TO.P,REF\u002A\u002A,*%
%TO.N,*%
X50583999Y-45696000D03*
%TD*%
%TO.P,REF\u002A\u002A,*%
%TO.N,*%
X142150999Y-110720000D03*
%TD*%
D14*
%TO.P,REF\u002A\u002A,*%
%TO.N,*%
X181393999Y-107672000D03*
%TD*%
D12*
%TO.P,REF\u002A\u002A,*%
%TO.N,*%
X155231999Y-45696000D03*
%TD*%
D10*
%TO.P,REF\u002A\u002A,*%
%TO.N,*%
X170497399Y-65569600D03*
D11*
X170497399Y-81069600D03*
D10*
X170497399Y-96569600D03*
%TD*%
%TO.P,REF\u002A\u002A,*%
%TO.N,*%
X52768399Y-62261600D03*
D11*
X52768399Y-77761600D03*
D10*
X52768399Y-93261600D03*
%TD*%
D12*
%TO.P,REF\u002A\u002A,*%
%TO.N,*%
X63664999Y-48744000D03*
%TD*%
%TA.AperFunction,NonConductor*%
G36*
X204189938Y-29543785D02*
G01*
X204235693Y-29596589D01*
X204246899Y-29648100D01*
X204246899Y-157499100D01*
X204227214Y-157566139D01*
X204174410Y-157611894D01*
X204122899Y-157623100D01*
X42511899Y-157623100D01*
X42444860Y-157603415D01*
X42399105Y-157550611D01*
X42387899Y-157499100D01*
X42387899Y-154977653D01*
X45836899Y-154977653D01*
X45836900Y-154977669D01*
X45877116Y-155283142D01*
X45956863Y-155580762D01*
X46074775Y-155865426D01*
X46074780Y-155865437D01*
X46167413Y-156025880D01*
X46228837Y-156132270D01*
X46228839Y-156132273D01*
X46228840Y-156132274D01*
X46416406Y-156376715D01*
X46416412Y-156376722D01*
X46634276Y-156594586D01*
X46634282Y-156594591D01*
X46878729Y-156782162D01*
X47050229Y-156881178D01*
X47145561Y-156936218D01*
X47145566Y-156936220D01*
X47145569Y-156936222D01*
X47430235Y-157054135D01*
X47727855Y-157133882D01*
X48033339Y-157174100D01*
X48033346Y-157174100D01*
X50341452Y-157174100D01*
X50341459Y-157174100D01*
X50646943Y-157133882D01*
X50944563Y-157054135D01*
X51229229Y-156936222D01*
X51496069Y-156782162D01*
X51740516Y-156594591D01*
X51958390Y-156376717D01*
X52145961Y-156132270D01*
X52300021Y-155865430D01*
X52417934Y-155580764D01*
X52497681Y-155283144D01*
X52537899Y-154977660D01*
X52537899Y-154977653D01*
X194096899Y-154977653D01*
X194096900Y-154977669D01*
X194137116Y-155283142D01*
X194216863Y-155580762D01*
X194334775Y-155865426D01*
X194334780Y-155865437D01*
X194427413Y-156025880D01*
X194488837Y-156132270D01*
X194488839Y-156132273D01*
X194488840Y-156132274D01*
X194676406Y-156376715D01*
X194676412Y-156376722D01*
X194894276Y-156594586D01*
X194894282Y-156594591D01*
X195138729Y-156782162D01*
X195310229Y-156881178D01*
X195405561Y-156936218D01*
X195405566Y-156936220D01*
X195405569Y-156936222D01*
X195690235Y-157054135D01*
X195987855Y-157133882D01*
X196293339Y-157174100D01*
X196293346Y-157174100D01*
X198601452Y-157174100D01*
X198601459Y-157174100D01*
X198906943Y-157133882D01*
X199204563Y-157054135D01*
X199489229Y-156936222D01*
X199756069Y-156782162D01*
X200000516Y-156594591D01*
X200218390Y-156376717D01*
X200405961Y-156132270D01*
X200560021Y-155865430D01*
X200677934Y-155580764D01*
X200757681Y-155283144D01*
X200797899Y-154977660D01*
X200797899Y-154669540D01*
X200757681Y-154364056D01*
X200677934Y-154066436D01*
X200560021Y-153781770D01*
X200560019Y-153781767D01*
X200560017Y-153781762D01*
X200504977Y-153686430D01*
X200405961Y-153514930D01*
X200218390Y-153270483D01*
X200218385Y-153270477D01*
X200000521Y-153052613D01*
X200000514Y-153052607D01*
X199756073Y-152865041D01*
X199756072Y-152865040D01*
X199756069Y-152865038D01*
X199649679Y-152803614D01*
X199489236Y-152710981D01*
X199489225Y-152710976D01*
X199204561Y-152593064D01*
X198906941Y-152513317D01*
X198601468Y-152473101D01*
X198601465Y-152473100D01*
X198601459Y-152473100D01*
X196293339Y-152473100D01*
X196293333Y-152473100D01*
X196293329Y-152473101D01*
X195987856Y-152513317D01*
X195690236Y-152593064D01*
X195405572Y-152710976D01*
X195405561Y-152710981D01*
X195138724Y-152865041D01*
X194894283Y-153052607D01*
X194894276Y-153052613D01*
X194676412Y-153270477D01*
X194676406Y-153270484D01*
X194488840Y-153514925D01*
X194334780Y-153781762D01*
X194334775Y-153781773D01*
X194216863Y-154066437D01*
X194137116Y-154364057D01*
X194096900Y-154669530D01*
X194096899Y-154669546D01*
X194096899Y-154977653D01*
X52537899Y-154977653D01*
X52537899Y-154669540D01*
X52497681Y-154364056D01*
X52417934Y-154066436D01*
X52300021Y-153781770D01*
X52300019Y-153781767D01*
X52300017Y-153781762D01*
X52244977Y-153686430D01*
X52145961Y-153514930D01*
X51958390Y-153270483D01*
X51958385Y-153270477D01*
X51740521Y-153052613D01*
X51740514Y-153052607D01*
X51496073Y-152865041D01*
X51496072Y-152865040D01*
X51496069Y-152865038D01*
X51389679Y-152803614D01*
X51229236Y-152710981D01*
X51229225Y-152710976D01*
X50944561Y-152593064D01*
X50646941Y-152513317D01*
X50341468Y-152473101D01*
X50341465Y-152473100D01*
X50341459Y-152473100D01*
X48033339Y-152473100D01*
X48033333Y-152473100D01*
X48033329Y-152473101D01*
X47727856Y-152513317D01*
X47430236Y-152593064D01*
X47145572Y-152710976D01*
X47145561Y-152710981D01*
X46878724Y-152865041D01*
X46634283Y-153052607D01*
X46634276Y-153052613D01*
X46416412Y-153270477D01*
X46416406Y-153270484D01*
X46228840Y-153514925D01*
X46074780Y-153781762D01*
X46074775Y-153781773D01*
X45956863Y-154066437D01*
X45877116Y-154364057D01*
X45836900Y-154669530D01*
X45836899Y-154669546D01*
X45836899Y-154977653D01*
X42387899Y-154977653D01*
X42387899Y-107672000D01*
X46728551Y-107672000D01*
X46748331Y-108062048D01*
X46807471Y-108448091D01*
X46807472Y-108448096D01*
X46869947Y-108689386D01*
X46905367Y-108826186D01*
X46905367Y-108826187D01*
X47041001Y-109192409D01*
X47041007Y-109192422D01*
X47213000Y-109543055D01*
X47213005Y-109543064D01*
X47419588Y-109874495D01*
X47658647Y-110183333D01*
X47823920Y-110357200D01*
X47927723Y-110466401D01*
X48224053Y-110720793D01*
X48224056Y-110720795D01*
X48544606Y-110943904D01*
X48886082Y-111133439D01*
X48886086Y-111133441D01*
X49028071Y-111194371D01*
X49244982Y-111287455D01*
X49244985Y-111287456D01*
X49244990Y-111287458D01*
X49617610Y-111404368D01*
X49617613Y-111404368D01*
X49617621Y-111404371D01*
X50000177Y-111482988D01*
X50311014Y-111514597D01*
X50388723Y-111522500D01*
X50388724Y-111522500D01*
X50779275Y-111522500D01*
X50844031Y-111515914D01*
X51167821Y-111482988D01*
X51550377Y-111404371D01*
X51550387Y-111404368D01*
X51923007Y-111287458D01*
X51923008Y-111287457D01*
X51923016Y-111287455D01*
X52281916Y-111133439D01*
X52623392Y-110943904D01*
X52943942Y-110720795D01*
X52944868Y-110720000D01*
X59809551Y-110720000D01*
X59829331Y-111110048D01*
X59874420Y-111404369D01*
X59888472Y-111496096D01*
X59895309Y-111522500D01*
X59986367Y-111874186D01*
X59986367Y-111874187D01*
X60122001Y-112240409D01*
X60122007Y-112240422D01*
X60294000Y-112591055D01*
X60294005Y-112591064D01*
X60500588Y-112922495D01*
X60581883Y-113027520D01*
X60739647Y-113231333D01*
X60783420Y-113277382D01*
X61008723Y-113514401D01*
X61305053Y-113768793D01*
X61305056Y-113768795D01*
X61625606Y-113991904D01*
X61967082Y-114181439D01*
X61967086Y-114181441D01*
X62109071Y-114242371D01*
X62325982Y-114335455D01*
X62325985Y-114335456D01*
X62325990Y-114335458D01*
X62698610Y-114452368D01*
X62698613Y-114452368D01*
X62698621Y-114452371D01*
X63081177Y-114530988D01*
X63392014Y-114562597D01*
X63469723Y-114570500D01*
X63469724Y-114570500D01*
X63860275Y-114570500D01*
X63925031Y-114563914D01*
X64248821Y-114530988D01*
X64631377Y-114452371D01*
X64631387Y-114452368D01*
X65004007Y-114335458D01*
X65004008Y-114335457D01*
X65004016Y-114335455D01*
X65362916Y-114181439D01*
X65704392Y-113991904D01*
X66024942Y-113768795D01*
X66321275Y-113514401D01*
X66590351Y-113231333D01*
X66829410Y-112922495D01*
X67035997Y-112591056D01*
X67207993Y-112240418D01*
X67343633Y-111874179D01*
X67441526Y-111496096D01*
X67500666Y-111110049D01*
X67520447Y-110720000D01*
X67500666Y-110329951D01*
X67441526Y-109943904D01*
X67371126Y-109672003D01*
X73890668Y-109672003D01*
X73909975Y-110003484D01*
X73909976Y-110003495D01*
X73967630Y-110330467D01*
X73967633Y-110330481D01*
X73967634Y-110330485D01*
X73975637Y-110357217D01*
X74062865Y-110648580D01*
X74194378Y-110953461D01*
X74194384Y-110953474D01*
X74360405Y-111241031D01*
X74558677Y-111507356D01*
X74558682Y-111507362D01*
X74558689Y-111507371D01*
X74786552Y-111748893D01*
X74970688Y-111903400D01*
X75040911Y-111962325D01*
X75040919Y-111962331D01*
X75318329Y-112144787D01*
X75318333Y-112144789D01*
X75615060Y-112293811D01*
X75927081Y-112407377D01*
X75927087Y-112407378D01*
X75927089Y-112407379D01*
X76250160Y-112483949D01*
X76250167Y-112483950D01*
X76250176Y-112483952D01*
X76579976Y-112522500D01*
X76579983Y-112522500D01*
X76912015Y-112522500D01*
X76912022Y-112522500D01*
X77241822Y-112483952D01*
X77241831Y-112483949D01*
X77241837Y-112483949D01*
X77502444Y-112422183D01*
X77564917Y-112407377D01*
X77876938Y-112293811D01*
X78173665Y-112144789D01*
X78451084Y-111962327D01*
X78705446Y-111748893D01*
X78933309Y-111507371D01*
X79131593Y-111241030D01*
X79297616Y-110953470D01*
X79398324Y-110720002D01*
X86471578Y-110720002D01*
X86491247Y-111082782D01*
X86491249Y-111082799D01*
X86550023Y-111441303D01*
X86550029Y-111441329D01*
X86647220Y-111791381D01*
X86647225Y-111791396D01*
X86781699Y-112128901D01*
X86781705Y-112128913D01*
X86951877Y-112449892D01*
X86951880Y-112449897D01*
X86951882Y-112449900D01*
X87155772Y-112750614D01*
X87390978Y-113027521D01*
X87654745Y-113277375D01*
X87943980Y-113497245D01*
X88255291Y-113684555D01*
X88255293Y-113684556D01*
X88255295Y-113684557D01*
X88255299Y-113684559D01*
X88437369Y-113768793D01*
X88585030Y-113837108D01*
X88929329Y-113953116D01*
X89284152Y-114031218D01*
X89645340Y-114070500D01*
X89645346Y-114070500D01*
X90008652Y-114070500D01*
X90008658Y-114070500D01*
X90369846Y-114031218D01*
X90724669Y-113953116D01*
X91068968Y-113837108D01*
X91398707Y-113684555D01*
X91710018Y-113497245D01*
X91999253Y-113277375D01*
X92263020Y-113027521D01*
X92498226Y-112750614D01*
X92702116Y-112449900D01*
X92872297Y-112128905D01*
X93006774Y-111791391D01*
X93103972Y-111441316D01*
X93136807Y-111241030D01*
X93162748Y-111082799D01*
X93162750Y-111082782D01*
X93182420Y-110720002D01*
X138795578Y-110720002D01*
X138815247Y-111082782D01*
X138815249Y-111082799D01*
X138874023Y-111441303D01*
X138874029Y-111441329D01*
X138971220Y-111791381D01*
X138971225Y-111791396D01*
X139105699Y-112128901D01*
X139105705Y-112128913D01*
X139275877Y-112449892D01*
X139275880Y-112449897D01*
X139275882Y-112449900D01*
X139479772Y-112750614D01*
X139714978Y-113027521D01*
X139978745Y-113277375D01*
X140267980Y-113497245D01*
X140579291Y-113684555D01*
X140579293Y-113684556D01*
X140579295Y-113684557D01*
X140579299Y-113684559D01*
X140761369Y-113768793D01*
X140909030Y-113837108D01*
X141253329Y-113953116D01*
X141608152Y-114031218D01*
X141969340Y-114070500D01*
X141969346Y-114070500D01*
X142332652Y-114070500D01*
X142332658Y-114070500D01*
X142693846Y-114031218D01*
X143048669Y-113953116D01*
X143392968Y-113837108D01*
X143722707Y-113684555D01*
X144034018Y-113497245D01*
X144323253Y-113277375D01*
X144587020Y-113027521D01*
X144822226Y-112750614D01*
X145026116Y-112449900D01*
X145196297Y-112128905D01*
X145330774Y-111791391D01*
X145427972Y-111441316D01*
X145460807Y-111241030D01*
X145486748Y-111082799D01*
X145486750Y-111082782D01*
X145506420Y-110720002D01*
X164957578Y-110720002D01*
X164977247Y-111082782D01*
X164977249Y-111082799D01*
X165036023Y-111441303D01*
X165036029Y-111441329D01*
X165133220Y-111791381D01*
X165133225Y-111791396D01*
X165267699Y-112128901D01*
X165267705Y-112128913D01*
X165437877Y-112449892D01*
X165437880Y-112449897D01*
X165437882Y-112449900D01*
X165641772Y-112750614D01*
X165876978Y-113027521D01*
X166140745Y-113277375D01*
X166429980Y-113497245D01*
X166741291Y-113684555D01*
X166741293Y-113684556D01*
X166741295Y-113684557D01*
X166741299Y-113684559D01*
X166923369Y-113768793D01*
X167071030Y-113837108D01*
X167415329Y-113953116D01*
X167770152Y-114031218D01*
X168131340Y-114070500D01*
X168131346Y-114070500D01*
X168494652Y-114070500D01*
X168494658Y-114070500D01*
X168855846Y-114031218D01*
X169210669Y-113953116D01*
X169554968Y-113837108D01*
X169884707Y-113684555D01*
X170196018Y-113497245D01*
X170485253Y-113277375D01*
X170749020Y-113027521D01*
X170984226Y-112750614D01*
X171188116Y-112449900D01*
X171358297Y-112128905D01*
X171492774Y-111791391D01*
X171589972Y-111441316D01*
X171622807Y-111241030D01*
X171648748Y-111082799D01*
X171648750Y-111082782D01*
X171668420Y-110720002D01*
X171668420Y-110719997D01*
X171648750Y-110357217D01*
X171648748Y-110357200D01*
X171589974Y-109998696D01*
X171589973Y-109998695D01*
X171589972Y-109998684D01*
X171555491Y-109874495D01*
X171492777Y-109648618D01*
X171492772Y-109648603D01*
X171370019Y-109340515D01*
X171358297Y-109311095D01*
X171200539Y-109013532D01*
X171188120Y-108990107D01*
X171188118Y-108990104D01*
X171188116Y-108990100D01*
X170984226Y-108689386D01*
X170749020Y-108412479D01*
X170485253Y-108162625D01*
X170485243Y-108162617D01*
X170352947Y-108062049D01*
X170196018Y-107942755D01*
X169884707Y-107755445D01*
X169884706Y-107755444D01*
X169884702Y-107755442D01*
X169884698Y-107755440D01*
X169704345Y-107672000D01*
X177538551Y-107672000D01*
X177558331Y-108062048D01*
X177617471Y-108448091D01*
X177617472Y-108448096D01*
X177679947Y-108689386D01*
X177715367Y-108826186D01*
X177715367Y-108826187D01*
X177851001Y-109192409D01*
X177851007Y-109192422D01*
X178023000Y-109543055D01*
X178023005Y-109543064D01*
X178229588Y-109874495D01*
X178468647Y-110183333D01*
X178633920Y-110357200D01*
X178737723Y-110466401D01*
X179034053Y-110720793D01*
X179034056Y-110720795D01*
X179354606Y-110943904D01*
X179696082Y-111133439D01*
X179696086Y-111133441D01*
X179838071Y-111194371D01*
X180054982Y-111287455D01*
X180054985Y-111287456D01*
X180054990Y-111287458D01*
X180427610Y-111404368D01*
X180427613Y-111404368D01*
X180427621Y-111404371D01*
X180810177Y-111482988D01*
X181121014Y-111514597D01*
X181198723Y-111522500D01*
X181198724Y-111522500D01*
X181589275Y-111522500D01*
X181654031Y-111515914D01*
X181977821Y-111482988D01*
X182360377Y-111404371D01*
X182360387Y-111404368D01*
X182733007Y-111287458D01*
X182733008Y-111287457D01*
X182733016Y-111287455D01*
X183091916Y-111133439D01*
X183433392Y-110943904D01*
X183753942Y-110720795D01*
X183754868Y-110720000D01*
X190619551Y-110720000D01*
X190639331Y-111110048D01*
X190684420Y-111404369D01*
X190698472Y-111496096D01*
X190705309Y-111522500D01*
X190796367Y-111874186D01*
X190796367Y-111874187D01*
X190932001Y-112240409D01*
X190932007Y-112240422D01*
X191104000Y-112591055D01*
X191104005Y-112591064D01*
X191310588Y-112922495D01*
X191391883Y-113027520D01*
X191549647Y-113231333D01*
X191593420Y-113277382D01*
X191818723Y-113514401D01*
X192115053Y-113768793D01*
X192115056Y-113768795D01*
X192435606Y-113991904D01*
X192777082Y-114181439D01*
X192777086Y-114181441D01*
X192919071Y-114242371D01*
X193135982Y-114335455D01*
X193135985Y-114335456D01*
X193135990Y-114335458D01*
X193508610Y-114452368D01*
X193508613Y-114452368D01*
X193508621Y-114452371D01*
X193891177Y-114530988D01*
X194202014Y-114562597D01*
X194279723Y-114570500D01*
X194279724Y-114570500D01*
X194670275Y-114570500D01*
X194735031Y-114563914D01*
X195058821Y-114530988D01*
X195441377Y-114452371D01*
X195441387Y-114452368D01*
X195814007Y-114335458D01*
X195814008Y-114335457D01*
X195814016Y-114335455D01*
X196172916Y-114181439D01*
X196514392Y-113991904D01*
X196834942Y-113768795D01*
X197131275Y-113514401D01*
X197400351Y-113231333D01*
X197639410Y-112922495D01*
X197845997Y-112591056D01*
X198017993Y-112240418D01*
X198153633Y-111874179D01*
X198251526Y-111496096D01*
X198310666Y-111110049D01*
X198330447Y-110720000D01*
X198310666Y-110329951D01*
X198251526Y-109943904D01*
X198153633Y-109565821D01*
X198145201Y-109543055D01*
X198017996Y-109199590D01*
X198017995Y-109199589D01*
X198017993Y-109199582D01*
X197845997Y-108848944D01*
X197845992Y-108848935D01*
X197639409Y-108517504D01*
X197400355Y-108208672D01*
X197400354Y-108208671D01*
X197400351Y-108208667D01*
X197131275Y-107925599D01*
X196933070Y-107755445D01*
X196834944Y-107671206D01*
X196514393Y-107448097D01*
X196514392Y-107448096D01*
X196172916Y-107258561D01*
X196172917Y-107258561D01*
X196172911Y-107258558D01*
X195814007Y-107104541D01*
X195441387Y-106987631D01*
X195441381Y-106987630D01*
X195441378Y-106987629D01*
X195441377Y-106987629D01*
X195058821Y-106909012D01*
X195058820Y-106909011D01*
X195058816Y-106909011D01*
X194670275Y-106869500D01*
X194670274Y-106869500D01*
X194279724Y-106869500D01*
X194279723Y-106869500D01*
X193891181Y-106909011D01*
X193508616Y-106987630D01*
X193508610Y-106987631D01*
X193135990Y-107104541D01*
X192777086Y-107258558D01*
X192435604Y-107448097D01*
X192115053Y-107671206D01*
X191818723Y-107925598D01*
X191549642Y-108208672D01*
X191310588Y-108517504D01*
X191104005Y-108848935D01*
X191104000Y-108848944D01*
X190932007Y-109199577D01*
X190932001Y-109199590D01*
X190796367Y-109565812D01*
X190796367Y-109565813D01*
X190698471Y-109943908D01*
X190639331Y-110329951D01*
X190619551Y-110720000D01*
X183754868Y-110720000D01*
X184050275Y-110466401D01*
X184319351Y-110183333D01*
X184558410Y-109874495D01*
X184764997Y-109543056D01*
X184936993Y-109192418D01*
X185072633Y-108826179D01*
X185170526Y-108448096D01*
X185229666Y-108062049D01*
X185249447Y-107672000D01*
X185229666Y-107281951D01*
X185170526Y-106895904D01*
X185072633Y-106517821D01*
X184936993Y-106151582D01*
X184764997Y-105800944D01*
X184764992Y-105800935D01*
X184558409Y-105469504D01*
X184319355Y-105160672D01*
X184319354Y-105160671D01*
X184319351Y-105160667D01*
X184050275Y-104877599D01*
X184050274Y-104877598D01*
X183753944Y-104623206D01*
X183433393Y-104400097D01*
X183433392Y-104400096D01*
X183091916Y-104210561D01*
X183091917Y-104210561D01*
X183091911Y-104210558D01*
X182733007Y-104056541D01*
X182360387Y-103939631D01*
X182360381Y-103939630D01*
X182360378Y-103939629D01*
X182360377Y-103939629D01*
X181977821Y-103861012D01*
X181977820Y-103861011D01*
X181977816Y-103861011D01*
X181589275Y-103821500D01*
X181589274Y-103821500D01*
X181198724Y-103821500D01*
X181198723Y-103821500D01*
X180810181Y-103861011D01*
X180427616Y-103939630D01*
X180427610Y-103939631D01*
X180054990Y-104056541D01*
X179696086Y-104210558D01*
X179354604Y-104400097D01*
X179034053Y-104623206D01*
X178737723Y-104877598D01*
X178468642Y-105160672D01*
X178229588Y-105469504D01*
X178023005Y-105800935D01*
X178023000Y-105800944D01*
X177851007Y-106151577D01*
X177851001Y-106151590D01*
X177715367Y-106517812D01*
X177715367Y-106517813D01*
X177617471Y-106895908D01*
X177558331Y-107281951D01*
X177538551Y-107672000D01*
X169704345Y-107672000D01*
X169554978Y-107602896D01*
X169554973Y-107602894D01*
X169554968Y-107602892D01*
X169387142Y-107546344D01*
X169210668Y-107486883D01*
X168855844Y-107408781D01*
X168494659Y-107369500D01*
X168494658Y-107369500D01*
X168131340Y-107369500D01*
X168131338Y-107369500D01*
X167770153Y-107408781D01*
X167415329Y-107486883D01*
X167149177Y-107576560D01*
X167071030Y-107602892D01*
X167071027Y-107602893D01*
X167071019Y-107602896D01*
X166741299Y-107755440D01*
X166741295Y-107755442D01*
X166606362Y-107836629D01*
X166429980Y-107942755D01*
X166340331Y-108010903D01*
X166140754Y-108162617D01*
X166140744Y-108162625D01*
X165876977Y-108412479D01*
X165641771Y-108689386D01*
X165437883Y-108990098D01*
X165437877Y-108990107D01*
X165267705Y-109311086D01*
X165267699Y-109311098D01*
X165133225Y-109648603D01*
X165133220Y-109648618D01*
X165036029Y-109998670D01*
X165036023Y-109998696D01*
X164977249Y-110357200D01*
X164977247Y-110357217D01*
X164957578Y-110719997D01*
X164957578Y-110720002D01*
X145506420Y-110720002D01*
X145506420Y-110719997D01*
X145486750Y-110357217D01*
X145486748Y-110357200D01*
X145427974Y-109998696D01*
X145427973Y-109998695D01*
X145427972Y-109998684D01*
X145393491Y-109874495D01*
X145330777Y-109648618D01*
X145330772Y-109648603D01*
X145208019Y-109340515D01*
X145196297Y-109311095D01*
X145038539Y-109013532D01*
X145026120Y-108990107D01*
X145026118Y-108990104D01*
X145026116Y-108990100D01*
X144822226Y-108689386D01*
X144587020Y-108412479D01*
X144323253Y-108162625D01*
X144323243Y-108162617D01*
X144190947Y-108062049D01*
X144034018Y-107942755D01*
X143722707Y-107755445D01*
X143722706Y-107755444D01*
X143722702Y-107755442D01*
X143722698Y-107755440D01*
X143392978Y-107602896D01*
X143392973Y-107602894D01*
X143392968Y-107602892D01*
X143225142Y-107546344D01*
X143048668Y-107486883D01*
X142693844Y-107408781D01*
X142332659Y-107369500D01*
X142332658Y-107369500D01*
X141969340Y-107369500D01*
X141969338Y-107369500D01*
X141608153Y-107408781D01*
X141253329Y-107486883D01*
X140987177Y-107576560D01*
X140909030Y-107602892D01*
X140909027Y-107602893D01*
X140909019Y-107602896D01*
X140579299Y-107755440D01*
X140579295Y-107755442D01*
X140444362Y-107836629D01*
X140267980Y-107942755D01*
X140178331Y-108010903D01*
X139978754Y-108162617D01*
X139978744Y-108162625D01*
X139714977Y-108412479D01*
X139479771Y-108689386D01*
X139275883Y-108990098D01*
X139275877Y-108990107D01*
X139105705Y-109311086D01*
X139105699Y-109311098D01*
X138971225Y-109648603D01*
X138971220Y-109648618D01*
X138874029Y-109998670D01*
X138874023Y-109998696D01*
X138815249Y-110357200D01*
X138815247Y-110357217D01*
X138795578Y-110719997D01*
X138795578Y-110720002D01*
X93182420Y-110720002D01*
X93182420Y-110719997D01*
X93162750Y-110357217D01*
X93162748Y-110357200D01*
X93103974Y-109998696D01*
X93103973Y-109998695D01*
X93103972Y-109998684D01*
X93069491Y-109874495D01*
X93006777Y-109648618D01*
X93006772Y-109648603D01*
X92884019Y-109340515D01*
X92872297Y-109311095D01*
X92714539Y-109013532D01*
X92702120Y-108990107D01*
X92702118Y-108990104D01*
X92702116Y-108990100D01*
X92498226Y-108689386D01*
X92263020Y-108412479D01*
X91999253Y-108162625D01*
X91999243Y-108162617D01*
X91866947Y-108062049D01*
X91710018Y-107942755D01*
X91398707Y-107755445D01*
X91398706Y-107755444D01*
X91398702Y-107755442D01*
X91398698Y-107755440D01*
X91068978Y-107602896D01*
X91068973Y-107602894D01*
X91068968Y-107602892D01*
X90901142Y-107546344D01*
X90724668Y-107486883D01*
X90369844Y-107408781D01*
X90008659Y-107369500D01*
X90008658Y-107369500D01*
X89645340Y-107369500D01*
X89645338Y-107369500D01*
X89284153Y-107408781D01*
X88929329Y-107486883D01*
X88663177Y-107576560D01*
X88585030Y-107602892D01*
X88585027Y-107602893D01*
X88585019Y-107602896D01*
X88255299Y-107755440D01*
X88255295Y-107755442D01*
X88120362Y-107836629D01*
X87943980Y-107942755D01*
X87854331Y-108010903D01*
X87654754Y-108162617D01*
X87654744Y-108162625D01*
X87390977Y-108412479D01*
X87155771Y-108689386D01*
X86951883Y-108990098D01*
X86951877Y-108990107D01*
X86781705Y-109311086D01*
X86781699Y-109311098D01*
X86647225Y-109648603D01*
X86647220Y-109648618D01*
X86550029Y-109998670D01*
X86550023Y-109998696D01*
X86491249Y-110357200D01*
X86491247Y-110357217D01*
X86471578Y-110719997D01*
X86471578Y-110720002D01*
X79398324Y-110720002D01*
X79429132Y-110648581D01*
X79524364Y-110330485D01*
X79582023Y-110003484D01*
X79601330Y-109672000D01*
X79582023Y-109340516D01*
X79524364Y-109013515D01*
X79429132Y-108695419D01*
X79297616Y-108390530D01*
X79131593Y-108102970D01*
X79131592Y-108102968D01*
X78933320Y-107836643D01*
X78933313Y-107836635D01*
X78933309Y-107836629D01*
X78705446Y-107595107D01*
X78543152Y-107458926D01*
X78451086Y-107381674D01*
X78451078Y-107381668D01*
X78173668Y-107199212D01*
X77876945Y-107050192D01*
X77876939Y-107050189D01*
X77564929Y-106936627D01*
X77564908Y-106936620D01*
X77241837Y-106860050D01*
X77241822Y-106860048D01*
X76912022Y-106821500D01*
X76579976Y-106821500D01*
X76291401Y-106855229D01*
X76250175Y-106860048D01*
X76250160Y-106860050D01*
X75927089Y-106936620D01*
X75927068Y-106936627D01*
X75615058Y-107050189D01*
X75615052Y-107050192D01*
X75318329Y-107199212D01*
X75040919Y-107381668D01*
X75040911Y-107381674D01*
X74834935Y-107554508D01*
X74786552Y-107595107D01*
X74558689Y-107836629D01*
X74558686Y-107836632D01*
X74558684Y-107836635D01*
X74558677Y-107836643D01*
X74360405Y-108102968D01*
X74194384Y-108390525D01*
X74194378Y-108390538D01*
X74062865Y-108695419D01*
X73967633Y-109013518D01*
X73967630Y-109013532D01*
X73909976Y-109340504D01*
X73909975Y-109340515D01*
X73890668Y-109671996D01*
X73890668Y-109672003D01*
X67371126Y-109672003D01*
X67343633Y-109565821D01*
X67335201Y-109543055D01*
X67207996Y-109199590D01*
X67207995Y-109199589D01*
X67207993Y-109199582D01*
X67035997Y-108848944D01*
X67035992Y-108848935D01*
X66829409Y-108517504D01*
X66590355Y-108208672D01*
X66590354Y-108208671D01*
X66590351Y-108208667D01*
X66321275Y-107925599D01*
X66123070Y-107755445D01*
X66024944Y-107671206D01*
X65704393Y-107448097D01*
X65704392Y-107448096D01*
X65362916Y-107258561D01*
X65362917Y-107258561D01*
X65362911Y-107258558D01*
X65004007Y-107104541D01*
X64631387Y-106987631D01*
X64631381Y-106987630D01*
X64631378Y-106987629D01*
X64631377Y-106987629D01*
X64248821Y-106909012D01*
X64248820Y-106909011D01*
X64248816Y-106909011D01*
X63860275Y-106869500D01*
X63860274Y-106869500D01*
X63469724Y-106869500D01*
X63469723Y-106869500D01*
X63081181Y-106909011D01*
X62698616Y-106987630D01*
X62698610Y-106987631D01*
X62325990Y-107104541D01*
X61967086Y-107258558D01*
X61625604Y-107448097D01*
X61305053Y-107671206D01*
X61008723Y-107925598D01*
X60739642Y-108208672D01*
X60500588Y-108517504D01*
X60294005Y-108848935D01*
X60294000Y-108848944D01*
X60122007Y-109199577D01*
X60122001Y-109199590D01*
X59986367Y-109565812D01*
X59986367Y-109565813D01*
X59888471Y-109943908D01*
X59829331Y-110329951D01*
X59809551Y-110720000D01*
X52944868Y-110720000D01*
X53240275Y-110466401D01*
X53509351Y-110183333D01*
X53748410Y-109874495D01*
X53954997Y-109543056D01*
X54126993Y-109192418D01*
X54262633Y-108826179D01*
X54360526Y-108448096D01*
X54419666Y-108062049D01*
X54439447Y-107672000D01*
X54419666Y-107281951D01*
X54360526Y-106895904D01*
X54262633Y-106517821D01*
X54126993Y-106151582D01*
X53954997Y-105800944D01*
X53954992Y-105800935D01*
X53748409Y-105469504D01*
X53509355Y-105160672D01*
X53509354Y-105160671D01*
X53509351Y-105160667D01*
X53240275Y-104877599D01*
X53240274Y-104877598D01*
X52943944Y-104623206D01*
X52623393Y-104400097D01*
X52623392Y-104400096D01*
X52281916Y-104210561D01*
X52281917Y-104210561D01*
X52281911Y-104210558D01*
X51923007Y-104056541D01*
X51550387Y-103939631D01*
X51550381Y-103939630D01*
X51550378Y-103939629D01*
X51550377Y-103939629D01*
X51167821Y-103861012D01*
X51167820Y-103861011D01*
X51167816Y-103861011D01*
X50779275Y-103821500D01*
X50779274Y-103821500D01*
X50388724Y-103821500D01*
X50388723Y-103821500D01*
X50000181Y-103861011D01*
X49617616Y-103939630D01*
X49617610Y-103939631D01*
X49244990Y-104056541D01*
X48886086Y-104210558D01*
X48544604Y-104400097D01*
X48224053Y-104623206D01*
X47927723Y-104877598D01*
X47658642Y-105160672D01*
X47419588Y-105469504D01*
X47213005Y-105800935D01*
X47213000Y-105800944D01*
X47041007Y-106151577D01*
X47041001Y-106151590D01*
X46905367Y-106517812D01*
X46905367Y-106517813D01*
X46807471Y-106895908D01*
X46748331Y-107281951D01*
X46728551Y-107672000D01*
X42387899Y-107672000D01*
X42387899Y-96569600D01*
X63743991Y-96569600D01*
X63763600Y-96856280D01*
X63822065Y-97137634D01*
X63822066Y-97137637D01*
X63918293Y-97408393D01*
X63918292Y-97408393D01*
X64050497Y-97663535D01*
X64216211Y-97898300D01*
X64293736Y-97981308D01*
X64412346Y-98108308D01*
X64635252Y-98289655D01*
X64671932Y-98311961D01*
X64880781Y-98438965D01*
X65030440Y-98503970D01*
X65144341Y-98553444D01*
X65421041Y-98630971D01*
X65671319Y-98665371D01*
X65705720Y-98670100D01*
X65705721Y-98670100D01*
X65993078Y-98670100D01*
X66023769Y-98665881D01*
X66277757Y-98630971D01*
X66554457Y-98553444D01*
X66668360Y-98503969D01*
X66818016Y-98438965D01*
X66818019Y-98438963D01*
X66818024Y-98438961D01*
X67063546Y-98289655D01*
X67286452Y-98108308D01*
X67482588Y-97898298D01*
X67648300Y-97663536D01*
X67780503Y-97408397D01*
X67876733Y-97137632D01*
X67935197Y-96856286D01*
X67954807Y-96569600D01*
X67946120Y-96442600D01*
X89905991Y-96442600D01*
X89925600Y-96729280D01*
X89984065Y-97010634D01*
X89984066Y-97010637D01*
X90080293Y-97281393D01*
X90080292Y-97281393D01*
X90212497Y-97536535D01*
X90378211Y-97771300D01*
X90463322Y-97862431D01*
X90574346Y-97981308D01*
X90730453Y-98108310D01*
X90797252Y-98162655D01*
X91042781Y-98311965D01*
X91229636Y-98393126D01*
X91306341Y-98426444D01*
X91583041Y-98503971D01*
X91833319Y-98538371D01*
X91867720Y-98543100D01*
X91867721Y-98543100D01*
X92155078Y-98543100D01*
X92185769Y-98538881D01*
X92439757Y-98503971D01*
X92716457Y-98426444D01*
X92850300Y-98368308D01*
X92980016Y-98311965D01*
X92980019Y-98311963D01*
X92980024Y-98311961D01*
X93225546Y-98162655D01*
X93448452Y-97981308D01*
X93644588Y-97771298D01*
X93810300Y-97536536D01*
X93942503Y-97281397D01*
X94038733Y-97010632D01*
X94076352Y-96829600D01*
X116067991Y-96829600D01*
X116087600Y-97116280D01*
X116146065Y-97397634D01*
X116146066Y-97397637D01*
X116242293Y-97668393D01*
X116242292Y-97668393D01*
X116374497Y-97923535D01*
X116540211Y-98158300D01*
X116617736Y-98241308D01*
X116736346Y-98368308D01*
X116959252Y-98549655D01*
X117157314Y-98670100D01*
X117204781Y-98698965D01*
X117354440Y-98763970D01*
X117468341Y-98813444D01*
X117745041Y-98890971D01*
X117995319Y-98925371D01*
X118029720Y-98930100D01*
X118029721Y-98930100D01*
X118317078Y-98930100D01*
X118347769Y-98925881D01*
X118601757Y-98890971D01*
X118878457Y-98813444D01*
X118992360Y-98763969D01*
X119142016Y-98698965D01*
X119142019Y-98698963D01*
X119142024Y-98698961D01*
X119387546Y-98549655D01*
X119610452Y-98368308D01*
X119806588Y-98158298D01*
X119972300Y-97923536D01*
X120104503Y-97668397D01*
X120200733Y-97397632D01*
X120259197Y-97116286D01*
X120278807Y-96829600D01*
X120270120Y-96702600D01*
X142229991Y-96702600D01*
X142249600Y-96989280D01*
X142308065Y-97270634D01*
X142308066Y-97270637D01*
X142404293Y-97541393D01*
X142404292Y-97541393D01*
X142536497Y-97796535D01*
X142702211Y-98031300D01*
X142774132Y-98108308D01*
X142898346Y-98241308D01*
X143121252Y-98422655D01*
X143336324Y-98553444D01*
X143366781Y-98571965D01*
X143553636Y-98653126D01*
X143630341Y-98686444D01*
X143907041Y-98763971D01*
X144157319Y-98798371D01*
X144191720Y-98803100D01*
X144191721Y-98803100D01*
X144479078Y-98803100D01*
X144509769Y-98798881D01*
X144763757Y-98763971D01*
X145040457Y-98686444D01*
X145168174Y-98630969D01*
X145304016Y-98571965D01*
X145304019Y-98571963D01*
X145304024Y-98571961D01*
X145549546Y-98422655D01*
X145772452Y-98241308D01*
X145968588Y-98031298D01*
X146134300Y-97796536D01*
X146266503Y-97541397D01*
X146362733Y-97270632D01*
X146421197Y-96989286D01*
X146440807Y-96702600D01*
X146431709Y-96569600D01*
X168391991Y-96569600D01*
X168411600Y-96856280D01*
X168470065Y-97137634D01*
X168470066Y-97137637D01*
X168566293Y-97408393D01*
X168566292Y-97408393D01*
X168698497Y-97663535D01*
X168864211Y-97898300D01*
X168941736Y-97981308D01*
X169060346Y-98108308D01*
X169283252Y-98289655D01*
X169319932Y-98311961D01*
X169528781Y-98438965D01*
X169678440Y-98503970D01*
X169792341Y-98553444D01*
X170069041Y-98630971D01*
X170319319Y-98665371D01*
X170353720Y-98670100D01*
X170353721Y-98670100D01*
X170641078Y-98670100D01*
X170671769Y-98665881D01*
X170925757Y-98630971D01*
X171202457Y-98553444D01*
X171316360Y-98503969D01*
X171466016Y-98438965D01*
X171466019Y-98438963D01*
X171466024Y-98438961D01*
X171711546Y-98289655D01*
X171934452Y-98108308D01*
X172130588Y-97898298D01*
X172296300Y-97663536D01*
X172428503Y-97408397D01*
X172524733Y-97137632D01*
X172583197Y-96856286D01*
X172602807Y-96569600D01*
X172594120Y-96442600D01*
X194553991Y-96442600D01*
X194573600Y-96729280D01*
X194632065Y-97010634D01*
X194632066Y-97010637D01*
X194728293Y-97281393D01*
X194728292Y-97281393D01*
X194860497Y-97536535D01*
X195026211Y-97771300D01*
X195111322Y-97862431D01*
X195222346Y-97981308D01*
X195378453Y-98108310D01*
X195445252Y-98162655D01*
X195690781Y-98311965D01*
X195877636Y-98393126D01*
X195954341Y-98426444D01*
X196231041Y-98503971D01*
X196481319Y-98538371D01*
X196515720Y-98543100D01*
X196515721Y-98543100D01*
X196803078Y-98543100D01*
X196833769Y-98538881D01*
X197087757Y-98503971D01*
X197364457Y-98426444D01*
X197498300Y-98368308D01*
X197628016Y-98311965D01*
X197628019Y-98311963D01*
X197628024Y-98311961D01*
X197873546Y-98162655D01*
X198096452Y-97981308D01*
X198292588Y-97771298D01*
X198458300Y-97536536D01*
X198590503Y-97281397D01*
X198686733Y-97010632D01*
X198745197Y-96729286D01*
X198764807Y-96442600D01*
X198745197Y-96155914D01*
X198686733Y-95874568D01*
X198590504Y-95603806D01*
X198590505Y-95603806D01*
X198458300Y-95348664D01*
X198292586Y-95113899D01*
X198213953Y-95029705D01*
X198096452Y-94903892D01*
X197873546Y-94722545D01*
X197873545Y-94722544D01*
X197628016Y-94573234D01*
X197364462Y-94458758D01*
X197364460Y-94458757D01*
X197364457Y-94458756D01*
X197234977Y-94422477D01*
X197087763Y-94381230D01*
X197087758Y-94381229D01*
X197087757Y-94381229D01*
X196900830Y-94355536D01*
X196803078Y-94342100D01*
X196803077Y-94342100D01*
X196515721Y-94342100D01*
X196515720Y-94342100D01*
X196231041Y-94381229D01*
X196231034Y-94381230D01*
X196023260Y-94439445D01*
X195954341Y-94458756D01*
X195954338Y-94458756D01*
X195954335Y-94458758D01*
X195954334Y-94458758D01*
X195690781Y-94573234D01*
X195445252Y-94722544D01*
X195222349Y-94903889D01*
X195026211Y-95113899D01*
X194860497Y-95348664D01*
X194728293Y-95603806D01*
X194632066Y-95874562D01*
X194632065Y-95874565D01*
X194573600Y-96155919D01*
X194553991Y-96442600D01*
X172594120Y-96442600D01*
X172583197Y-96282914D01*
X172524733Y-96001568D01*
X172428504Y-95730806D01*
X172428505Y-95730806D01*
X172296300Y-95475664D01*
X172130586Y-95240899D01*
X172011975Y-95113899D01*
X171934452Y-95030892D01*
X171711546Y-94849545D01*
X171711545Y-94849544D01*
X171466016Y-94700234D01*
X171202462Y-94585758D01*
X171202460Y-94585757D01*
X171202457Y-94585756D01*
X171072977Y-94549477D01*
X170925763Y-94508230D01*
X170925758Y-94508229D01*
X170925757Y-94508229D01*
X170738830Y-94482536D01*
X170641078Y-94469100D01*
X170641077Y-94469100D01*
X170353721Y-94469100D01*
X170353720Y-94469100D01*
X170069041Y-94508229D01*
X170069034Y-94508230D01*
X169861260Y-94566445D01*
X169792341Y-94585756D01*
X169792338Y-94585756D01*
X169792335Y-94585758D01*
X169792334Y-94585758D01*
X169528781Y-94700234D01*
X169283252Y-94849544D01*
X169060349Y-95030889D01*
X168864211Y-95240899D01*
X168698497Y-95475664D01*
X168566293Y-95730806D01*
X168470066Y-96001562D01*
X168470065Y-96001565D01*
X168411600Y-96282919D01*
X168391991Y-96569600D01*
X146431709Y-96569600D01*
X146421197Y-96415914D01*
X146362733Y-96134568D01*
X146266504Y-95863806D01*
X146266505Y-95863806D01*
X146134300Y-95608664D01*
X145968586Y-95373899D01*
X145848616Y-95245444D01*
X145772452Y-95163892D01*
X145549546Y-94982545D01*
X145549545Y-94982544D01*
X145304016Y-94833234D01*
X145040462Y-94718758D01*
X145040460Y-94718757D01*
X145040457Y-94718756D01*
X144910977Y-94682477D01*
X144763763Y-94641230D01*
X144763758Y-94641229D01*
X144763757Y-94641229D01*
X144576830Y-94615536D01*
X144479078Y-94602100D01*
X144479077Y-94602100D01*
X144191721Y-94602100D01*
X144191720Y-94602100D01*
X143907041Y-94641229D01*
X143907034Y-94641230D01*
X143699260Y-94699445D01*
X143630341Y-94718756D01*
X143630338Y-94718756D01*
X143630335Y-94718758D01*
X143630334Y-94718758D01*
X143366781Y-94833234D01*
X143121252Y-94982544D01*
X142898349Y-95163889D01*
X142702211Y-95373899D01*
X142536497Y-95608664D01*
X142404293Y-95863806D01*
X142308066Y-96134562D01*
X142308065Y-96134565D01*
X142249600Y-96415919D01*
X142229991Y-96702600D01*
X120270120Y-96702600D01*
X120259197Y-96542914D01*
X120200733Y-96261568D01*
X120104504Y-95990806D01*
X120104505Y-95990806D01*
X119972300Y-95735664D01*
X119806586Y-95500899D01*
X119686616Y-95372444D01*
X119610452Y-95290892D01*
X119413870Y-95130961D01*
X119387545Y-95109544D01*
X119142016Y-94960234D01*
X118878462Y-94845758D01*
X118878460Y-94845757D01*
X118878457Y-94845756D01*
X118716257Y-94800310D01*
X118601763Y-94768230D01*
X118601758Y-94768229D01*
X118601757Y-94768229D01*
X118414830Y-94742536D01*
X118317078Y-94729100D01*
X118317077Y-94729100D01*
X118029721Y-94729100D01*
X118029720Y-94729100D01*
X117745041Y-94768229D01*
X117745034Y-94768230D01*
X117537260Y-94826445D01*
X117468341Y-94845756D01*
X117468338Y-94845756D01*
X117468335Y-94845758D01*
X117468334Y-94845758D01*
X117204781Y-94960234D01*
X116959252Y-95109544D01*
X116736349Y-95290889D01*
X116540211Y-95500899D01*
X116374497Y-95735664D01*
X116242293Y-95990806D01*
X116146066Y-96261562D01*
X116146065Y-96261565D01*
X116087600Y-96542919D01*
X116067991Y-96829600D01*
X94076352Y-96829600D01*
X94097197Y-96729286D01*
X94116807Y-96442600D01*
X94097197Y-96155914D01*
X94038733Y-95874568D01*
X93942504Y-95603806D01*
X93942505Y-95603806D01*
X93810300Y-95348664D01*
X93644586Y-95113899D01*
X93565953Y-95029705D01*
X93448452Y-94903892D01*
X93225546Y-94722545D01*
X93225545Y-94722544D01*
X92980016Y-94573234D01*
X92716462Y-94458758D01*
X92716460Y-94458757D01*
X92716457Y-94458756D01*
X92586977Y-94422477D01*
X92439763Y-94381230D01*
X92439758Y-94381229D01*
X92439757Y-94381229D01*
X92252830Y-94355536D01*
X92155078Y-94342100D01*
X92155077Y-94342100D01*
X91867721Y-94342100D01*
X91867720Y-94342100D01*
X91583041Y-94381229D01*
X91583034Y-94381230D01*
X91375260Y-94439445D01*
X91306341Y-94458756D01*
X91306338Y-94458756D01*
X91306335Y-94458758D01*
X91306334Y-94458758D01*
X91042781Y-94573234D01*
X90797252Y-94722544D01*
X90574349Y-94903889D01*
X90378211Y-95113899D01*
X90212497Y-95348664D01*
X90080293Y-95603806D01*
X89984066Y-95874562D01*
X89984065Y-95874565D01*
X89925600Y-96155919D01*
X89905991Y-96442600D01*
X67946120Y-96442600D01*
X67935197Y-96282914D01*
X67876733Y-96001568D01*
X67780504Y-95730806D01*
X67780505Y-95730806D01*
X67648300Y-95475664D01*
X67482586Y-95240899D01*
X67363975Y-95113899D01*
X67286452Y-95030892D01*
X67063546Y-94849545D01*
X67063545Y-94849544D01*
X66818016Y-94700234D01*
X66554462Y-94585758D01*
X66554460Y-94585757D01*
X66554457Y-94585756D01*
X66424977Y-94549477D01*
X66277763Y-94508230D01*
X66277758Y-94508229D01*
X66277757Y-94508229D01*
X66090830Y-94482536D01*
X65993078Y-94469100D01*
X65993077Y-94469100D01*
X65705721Y-94469100D01*
X65705720Y-94469100D01*
X65421041Y-94508229D01*
X65421034Y-94508230D01*
X65213260Y-94566445D01*
X65144341Y-94585756D01*
X65144338Y-94585756D01*
X65144335Y-94585758D01*
X65144334Y-94585758D01*
X64880781Y-94700234D01*
X64635252Y-94849544D01*
X64412349Y-95030889D01*
X64216211Y-95240899D01*
X64050497Y-95475664D01*
X63918293Y-95730806D01*
X63822066Y-96001562D01*
X63822065Y-96001565D01*
X63763600Y-96282919D01*
X63743991Y-96569600D01*
X42387899Y-96569600D01*
X42387899Y-93261600D01*
X50662991Y-93261600D01*
X50682600Y-93548280D01*
X50682600Y-93548284D01*
X50682601Y-93548286D01*
X50703446Y-93648600D01*
X50741065Y-93829634D01*
X50741066Y-93829637D01*
X50837293Y-94100393D01*
X50837292Y-94100393D01*
X50969497Y-94355535D01*
X51135211Y-94590300D01*
X51182776Y-94641229D01*
X51331346Y-94800308D01*
X51554252Y-94981655D01*
X51764555Y-95109544D01*
X51799781Y-95130965D01*
X51986636Y-95212126D01*
X52063341Y-95245444D01*
X52340041Y-95322971D01*
X52590319Y-95357371D01*
X52624720Y-95362100D01*
X52624721Y-95362100D01*
X52912078Y-95362100D01*
X52942769Y-95357881D01*
X53196757Y-95322971D01*
X53473457Y-95245444D01*
X53607300Y-95187308D01*
X53737016Y-95130965D01*
X53737019Y-95130963D01*
X53737024Y-95130961D01*
X53982546Y-94981655D01*
X54205452Y-94800308D01*
X54401588Y-94590298D01*
X54567300Y-94355536D01*
X54699503Y-94100397D01*
X54795733Y-93829632D01*
X54854197Y-93548286D01*
X54873807Y-93261600D01*
X54854197Y-92974914D01*
X54795733Y-92693568D01*
X54699504Y-92422806D01*
X54699505Y-92422806D01*
X54567300Y-92167664D01*
X54484757Y-92050727D01*
X63848899Y-92050727D01*
X63867618Y-92192902D01*
X63883129Y-92310716D01*
X63951001Y-92564018D01*
X63951004Y-92564028D01*
X64051352Y-92806290D01*
X64051357Y-92806300D01*
X64182474Y-93033403D01*
X64342117Y-93241451D01*
X64342125Y-93241460D01*
X64527539Y-93426874D01*
X64527547Y-93426881D01*
X64735595Y-93586524D01*
X64962698Y-93717641D01*
X64962708Y-93717646D01*
X65181533Y-93808286D01*
X65204980Y-93817998D01*
X65458283Y-93885870D01*
X65718279Y-93920100D01*
X65718286Y-93920100D01*
X65980512Y-93920100D01*
X65980519Y-93920100D01*
X66240515Y-93885870D01*
X66493818Y-93817998D01*
X66736096Y-93717643D01*
X66963202Y-93586524D01*
X67171250Y-93426882D01*
X67171254Y-93426877D01*
X67171259Y-93426874D01*
X67209533Y-93388600D01*
X76824991Y-93388600D01*
X76844600Y-93675280D01*
X76844600Y-93675284D01*
X76844601Y-93675286D01*
X76853794Y-93719524D01*
X76903065Y-93956634D01*
X76903066Y-93956637D01*
X76999293Y-94227393D01*
X76999292Y-94227393D01*
X77131497Y-94482535D01*
X77297211Y-94717300D01*
X77344776Y-94768229D01*
X77493346Y-94927308D01*
X77716252Y-95108655D01*
X77752932Y-95130961D01*
X77961781Y-95257965D01*
X78111440Y-95322970D01*
X78225341Y-95372444D01*
X78502041Y-95449971D01*
X78752319Y-95484371D01*
X78786720Y-95489100D01*
X78786721Y-95489100D01*
X79074078Y-95489100D01*
X79104769Y-95484881D01*
X79358757Y-95449971D01*
X79635457Y-95372444D01*
X79749360Y-95322969D01*
X79899016Y-95257965D01*
X79899019Y-95257963D01*
X79899024Y-95257961D01*
X80144546Y-95108655D01*
X80367452Y-94927308D01*
X80563588Y-94717298D01*
X80729300Y-94482536D01*
X80861503Y-94227397D01*
X80957733Y-93956632D01*
X81016197Y-93675286D01*
X81035807Y-93388600D01*
X81016197Y-93101914D01*
X80957733Y-92820568D01*
X80861504Y-92549806D01*
X80861505Y-92549806D01*
X80729300Y-92294664D01*
X80563586Y-92059899D01*
X80444975Y-91932899D01*
X80436409Y-91923727D01*
X90010899Y-91923727D01*
X90028828Y-92059902D01*
X90045129Y-92183716D01*
X90113001Y-92437018D01*
X90113004Y-92437028D01*
X90213352Y-92679290D01*
X90213357Y-92679300D01*
X90344474Y-92906403D01*
X90504117Y-93114451D01*
X90504125Y-93114460D01*
X90689539Y-93299874D01*
X90689547Y-93299881D01*
X90897595Y-93459524D01*
X91124698Y-93590641D01*
X91124708Y-93590646D01*
X91357043Y-93686882D01*
X91366980Y-93690998D01*
X91620283Y-93758870D01*
X91880279Y-93793100D01*
X91880286Y-93793100D01*
X92142512Y-93793100D01*
X92142519Y-93793100D01*
X92402515Y-93758870D01*
X92655818Y-93690998D01*
X92898096Y-93590643D01*
X93017683Y-93521600D01*
X102986991Y-93521600D01*
X103006600Y-93808280D01*
X103006600Y-93808284D01*
X103006601Y-93808286D01*
X103022723Y-93885869D01*
X103065065Y-94089634D01*
X103065066Y-94089637D01*
X103161293Y-94360393D01*
X103161292Y-94360393D01*
X103293497Y-94615535D01*
X103459211Y-94850300D01*
X103509263Y-94903892D01*
X103655346Y-95060308D01*
X103878252Y-95241655D01*
X104093324Y-95372444D01*
X104123781Y-95390965D01*
X104310636Y-95472126D01*
X104387341Y-95505444D01*
X104664041Y-95582971D01*
X104914319Y-95617371D01*
X104948720Y-95622100D01*
X104948721Y-95622100D01*
X105236078Y-95622100D01*
X105266769Y-95617881D01*
X105520757Y-95582971D01*
X105797457Y-95505444D01*
X105925174Y-95449969D01*
X106061016Y-95390965D01*
X106061019Y-95390963D01*
X106061024Y-95390961D01*
X106306546Y-95241655D01*
X106529452Y-95060308D01*
X106725588Y-94850298D01*
X106891300Y-94615536D01*
X107023503Y-94360397D01*
X107119733Y-94089632D01*
X107178197Y-93808286D01*
X107197807Y-93521600D01*
X107178197Y-93234914D01*
X107119733Y-92953568D01*
X107023504Y-92682806D01*
X107023505Y-92682806D01*
X106891300Y-92427664D01*
X106808757Y-92310727D01*
X116172899Y-92310727D01*
X116199522Y-92512939D01*
X116207129Y-92570716D01*
X116275001Y-92824018D01*
X116275004Y-92824028D01*
X116375352Y-93066290D01*
X116375357Y-93066300D01*
X116506474Y-93293403D01*
X116666117Y-93501451D01*
X116666125Y-93501460D01*
X116851539Y-93686874D01*
X116851547Y-93686881D01*
X117059595Y-93846524D01*
X117286698Y-93977641D01*
X117286708Y-93977646D01*
X117528970Y-94077994D01*
X117528980Y-94077998D01*
X117782283Y-94145870D01*
X118042279Y-94180100D01*
X118042286Y-94180100D01*
X118304512Y-94180100D01*
X118304519Y-94180100D01*
X118564515Y-94145870D01*
X118817818Y-94077998D01*
X119060096Y-93977643D01*
X119287202Y-93846524D01*
X119495250Y-93686882D01*
X119495254Y-93686877D01*
X119495259Y-93686874D01*
X119533533Y-93648600D01*
X129148991Y-93648600D01*
X129168600Y-93935280D01*
X129168600Y-93935284D01*
X129168601Y-93935286D01*
X129185970Y-94018869D01*
X129227065Y-94216634D01*
X129227066Y-94216637D01*
X129323293Y-94487393D01*
X129323292Y-94487393D01*
X129455497Y-94742535D01*
X129621211Y-94977300D01*
X129671263Y-95030892D01*
X129817346Y-95187308D01*
X130040252Y-95368655D01*
X130238314Y-95489100D01*
X130285781Y-95517965D01*
X130435440Y-95582970D01*
X130549341Y-95632444D01*
X130826041Y-95709971D01*
X131076319Y-95744371D01*
X131110720Y-95749100D01*
X131110721Y-95749100D01*
X131398078Y-95749100D01*
X131428769Y-95744881D01*
X131682757Y-95709971D01*
X131959457Y-95632444D01*
X132073360Y-95582969D01*
X132223016Y-95517965D01*
X132223019Y-95517963D01*
X132223024Y-95517961D01*
X132468546Y-95368655D01*
X132691452Y-95187308D01*
X132887588Y-94977298D01*
X133053300Y-94742536D01*
X133185503Y-94487397D01*
X133281733Y-94216632D01*
X133340197Y-93935286D01*
X133359807Y-93648600D01*
X133340197Y-93361914D01*
X133281733Y-93080568D01*
X133185504Y-92809806D01*
X133185505Y-92809806D01*
X133053300Y-92554664D01*
X132887586Y-92319899D01*
X132760409Y-92183727D01*
X142334899Y-92183727D01*
X142352828Y-92319902D01*
X142369129Y-92443716D01*
X142437001Y-92697018D01*
X142437004Y-92697028D01*
X142537352Y-92939290D01*
X142537357Y-92939300D01*
X142668474Y-93166403D01*
X142828117Y-93374451D01*
X142828125Y-93374460D01*
X143013539Y-93559874D01*
X143013547Y-93559881D01*
X143221595Y-93719524D01*
X143448698Y-93850641D01*
X143448708Y-93850646D01*
X143690970Y-93950994D01*
X143690980Y-93950998D01*
X143944283Y-94018870D01*
X144204279Y-94053100D01*
X144204286Y-94053100D01*
X144466512Y-94053100D01*
X144466519Y-94053100D01*
X144726515Y-94018870D01*
X144979818Y-93950998D01*
X145222096Y-93850643D01*
X145449202Y-93719524D01*
X145657250Y-93559882D01*
X145657254Y-93559877D01*
X145657259Y-93559874D01*
X145842673Y-93374460D01*
X145842676Y-93374455D01*
X145842681Y-93374451D01*
X145929275Y-93261600D01*
X155310991Y-93261600D01*
X155330600Y-93548280D01*
X155330600Y-93548284D01*
X155330601Y-93548286D01*
X155351446Y-93648600D01*
X155389065Y-93829634D01*
X155389066Y-93829637D01*
X155485293Y-94100393D01*
X155485292Y-94100393D01*
X155617497Y-94355535D01*
X155783211Y-94590300D01*
X155830776Y-94641229D01*
X155979346Y-94800308D01*
X156202252Y-94981655D01*
X156412555Y-95109544D01*
X156447781Y-95130965D01*
X156634636Y-95212126D01*
X156711341Y-95245444D01*
X156988041Y-95322971D01*
X157238319Y-95357371D01*
X157272720Y-95362100D01*
X157272721Y-95362100D01*
X157560078Y-95362100D01*
X157590769Y-95357881D01*
X157844757Y-95322971D01*
X158121457Y-95245444D01*
X158255300Y-95187308D01*
X158385016Y-95130965D01*
X158385019Y-95130963D01*
X158385024Y-95130961D01*
X158630546Y-94981655D01*
X158853452Y-94800308D01*
X159049588Y-94590298D01*
X159215300Y-94355536D01*
X159347503Y-94100397D01*
X159443733Y-93829632D01*
X159502197Y-93548286D01*
X159521807Y-93261600D01*
X159502197Y-92974914D01*
X159443733Y-92693568D01*
X159347504Y-92422806D01*
X159347505Y-92422806D01*
X159215300Y-92167664D01*
X159132757Y-92050727D01*
X168496899Y-92050727D01*
X168515618Y-92192902D01*
X168531129Y-92310716D01*
X168599001Y-92564018D01*
X168599004Y-92564028D01*
X168699352Y-92806290D01*
X168699357Y-92806300D01*
X168830474Y-93033403D01*
X168990117Y-93241451D01*
X168990125Y-93241460D01*
X169175539Y-93426874D01*
X169175547Y-93426881D01*
X169383595Y-93586524D01*
X169610698Y-93717641D01*
X169610708Y-93717646D01*
X169829533Y-93808286D01*
X169852980Y-93817998D01*
X170106283Y-93885870D01*
X170366279Y-93920100D01*
X170366286Y-93920100D01*
X170628512Y-93920100D01*
X170628519Y-93920100D01*
X170888515Y-93885870D01*
X171141818Y-93817998D01*
X171384096Y-93717643D01*
X171611202Y-93586524D01*
X171819250Y-93426882D01*
X171819254Y-93426877D01*
X171819259Y-93426874D01*
X171857533Y-93388600D01*
X181472991Y-93388600D01*
X181492600Y-93675280D01*
X181492600Y-93675284D01*
X181492601Y-93675286D01*
X181501794Y-93719524D01*
X181551065Y-93956634D01*
X181551066Y-93956637D01*
X181647293Y-94227393D01*
X181647292Y-94227393D01*
X181779497Y-94482535D01*
X181945211Y-94717300D01*
X181992776Y-94768229D01*
X182141346Y-94927308D01*
X182364252Y-95108655D01*
X182400932Y-95130961D01*
X182609781Y-95257965D01*
X182759440Y-95322970D01*
X182873341Y-95372444D01*
X183150041Y-95449971D01*
X183400319Y-95484371D01*
X183434720Y-95489100D01*
X183434721Y-95489100D01*
X183722078Y-95489100D01*
X183752769Y-95484881D01*
X184006757Y-95449971D01*
X184283457Y-95372444D01*
X184397360Y-95322969D01*
X184547016Y-95257965D01*
X184547019Y-95257963D01*
X184547024Y-95257961D01*
X184792546Y-95108655D01*
X185015452Y-94927308D01*
X185211588Y-94717298D01*
X185377300Y-94482536D01*
X185509503Y-94227397D01*
X185605733Y-93956632D01*
X185664197Y-93675286D01*
X185683807Y-93388600D01*
X185664197Y-93101914D01*
X185605733Y-92820568D01*
X185509504Y-92549806D01*
X185509505Y-92549806D01*
X185377300Y-92294664D01*
X185211586Y-92059899D01*
X185092975Y-91932899D01*
X185084409Y-91923727D01*
X194658899Y-91923727D01*
X194676828Y-92059902D01*
X194693129Y-92183716D01*
X194761001Y-92437018D01*
X194761004Y-92437028D01*
X194861352Y-92679290D01*
X194861357Y-92679300D01*
X194992474Y-92906403D01*
X195152117Y-93114451D01*
X195152125Y-93114460D01*
X195337539Y-93299874D01*
X195337547Y-93299881D01*
X195545595Y-93459524D01*
X195772698Y-93590641D01*
X195772708Y-93590646D01*
X196005043Y-93686882D01*
X196014980Y-93690998D01*
X196268283Y-93758870D01*
X196528279Y-93793100D01*
X196528286Y-93793100D01*
X196790512Y-93793100D01*
X196790519Y-93793100D01*
X197050515Y-93758870D01*
X197303818Y-93690998D01*
X197546096Y-93590643D01*
X197773202Y-93459524D01*
X197981250Y-93299882D01*
X197981254Y-93299877D01*
X197981259Y-93299874D01*
X198166673Y-93114460D01*
X198166676Y-93114455D01*
X198166681Y-93114451D01*
X198326323Y-92906403D01*
X198457442Y-92679297D01*
X198557797Y-92437019D01*
X198625669Y-92183716D01*
X198659899Y-91923720D01*
X198659899Y-69961480D01*
X198625669Y-69701484D01*
X198557797Y-69448181D01*
X198557793Y-69448171D01*
X198457445Y-69205909D01*
X198457440Y-69205899D01*
X198326323Y-68978796D01*
X198166680Y-68770748D01*
X198166673Y-68770740D01*
X197981259Y-68585326D01*
X197981250Y-68585318D01*
X197773202Y-68425675D01*
X197546099Y-68294558D01*
X197546089Y-68294553D01*
X197303827Y-68194205D01*
X197303820Y-68194203D01*
X197303818Y-68194202D01*
X197050515Y-68126330D01*
X196992738Y-68118723D01*
X196790526Y-68092100D01*
X196790519Y-68092100D01*
X196528279Y-68092100D01*
X196528271Y-68092100D01*
X196297171Y-68122526D01*
X196268283Y-68126330D01*
X196014980Y-68194202D01*
X196014970Y-68194205D01*
X195772708Y-68294553D01*
X195772698Y-68294558D01*
X195545595Y-68425675D01*
X195337547Y-68585318D01*
X195152117Y-68770748D01*
X194992474Y-68978796D01*
X194861357Y-69205899D01*
X194861352Y-69205909D01*
X194761004Y-69448171D01*
X194761001Y-69448181D01*
X194722222Y-69592909D01*
X194693129Y-69701485D01*
X194658899Y-69961472D01*
X194658899Y-91923727D01*
X185084409Y-91923727D01*
X185015452Y-91849892D01*
X184792546Y-91668545D01*
X184792545Y-91668544D01*
X184547016Y-91519234D01*
X184283462Y-91404758D01*
X184283460Y-91404757D01*
X184283457Y-91404756D01*
X184153977Y-91368477D01*
X184006763Y-91327230D01*
X184006758Y-91327229D01*
X184006757Y-91327229D01*
X183864417Y-91307664D01*
X183722078Y-91288100D01*
X183722077Y-91288100D01*
X183434721Y-91288100D01*
X183434720Y-91288100D01*
X183150041Y-91327229D01*
X183150034Y-91327230D01*
X182942260Y-91385445D01*
X182873341Y-91404756D01*
X182873338Y-91404756D01*
X182873335Y-91404758D01*
X182873334Y-91404758D01*
X182609781Y-91519234D01*
X182364252Y-91668544D01*
X182141349Y-91849889D01*
X181945211Y-92059899D01*
X181779497Y-92294664D01*
X181647293Y-92549806D01*
X181551066Y-92820562D01*
X181551065Y-92820565D01*
X181492600Y-93101919D01*
X181472991Y-93388600D01*
X171857533Y-93388600D01*
X172004673Y-93241460D01*
X172004676Y-93241455D01*
X172004681Y-93241451D01*
X172164323Y-93033403D01*
X172295442Y-92806297D01*
X172395797Y-92564019D01*
X172463669Y-92310716D01*
X172497899Y-92050720D01*
X172497899Y-88869727D01*
X181577899Y-88869727D01*
X181595409Y-89002720D01*
X181612129Y-89129716D01*
X181645972Y-89256019D01*
X181680001Y-89383018D01*
X181680004Y-89383028D01*
X181780352Y-89625290D01*
X181780357Y-89625300D01*
X181911474Y-89852403D01*
X182071117Y-90060451D01*
X182071125Y-90060460D01*
X182256539Y-90245874D01*
X182256547Y-90245881D01*
X182464595Y-90405524D01*
X182691698Y-90536641D01*
X182691708Y-90536646D01*
X182933970Y-90636994D01*
X182933980Y-90636998D01*
X183187283Y-90704870D01*
X183447279Y-90739100D01*
X183447286Y-90739100D01*
X183709512Y-90739100D01*
X183709519Y-90739100D01*
X183969515Y-90704870D01*
X184222818Y-90636998D01*
X184465096Y-90536643D01*
X184692202Y-90405524D01*
X184900250Y-90245882D01*
X184900254Y-90245877D01*
X184900259Y-90245874D01*
X185085673Y-90060460D01*
X185085676Y-90060455D01*
X185085681Y-90060451D01*
X185245323Y-89852403D01*
X185376442Y-89625297D01*
X185476797Y-89383019D01*
X185544669Y-89129716D01*
X185578899Y-88869720D01*
X185578899Y-66907480D01*
X185544669Y-66647484D01*
X185476797Y-66394181D01*
X185431535Y-66284909D01*
X185376445Y-66151909D01*
X185376440Y-66151899D01*
X185245323Y-65924796D01*
X185085680Y-65716748D01*
X185085673Y-65716740D01*
X184900259Y-65531326D01*
X184900250Y-65531318D01*
X184784632Y-65442600D01*
X194553991Y-65442600D01*
X194573600Y-65729280D01*
X194573600Y-65729284D01*
X194573601Y-65729286D01*
X194587838Y-65797797D01*
X194632065Y-66010634D01*
X194632066Y-66010637D01*
X194728293Y-66281393D01*
X194728292Y-66281393D01*
X194860497Y-66536535D01*
X195026211Y-66771300D01*
X195111322Y-66862431D01*
X195222346Y-66981308D01*
X195378453Y-67108310D01*
X195445252Y-67162655D01*
X195690781Y-67311965D01*
X195877636Y-67393126D01*
X195954341Y-67426444D01*
X196231041Y-67503971D01*
X196481319Y-67538371D01*
X196515720Y-67543100D01*
X196515721Y-67543100D01*
X196803078Y-67543100D01*
X196833769Y-67538881D01*
X197087757Y-67503971D01*
X197364457Y-67426444D01*
X197498300Y-67368308D01*
X197628016Y-67311965D01*
X197628019Y-67311963D01*
X197628024Y-67311961D01*
X197873546Y-67162655D01*
X198096452Y-66981308D01*
X198292588Y-66771298D01*
X198458300Y-66536536D01*
X198590503Y-66281397D01*
X198686733Y-66010632D01*
X198745197Y-65729286D01*
X198764807Y-65442600D01*
X198745197Y-65155914D01*
X198686733Y-64874568D01*
X198590504Y-64603806D01*
X198590505Y-64603806D01*
X198458300Y-64348664D01*
X198292586Y-64113899D01*
X198213953Y-64029705D01*
X198096452Y-63903892D01*
X197873546Y-63722545D01*
X197873545Y-63722544D01*
X197628016Y-63573234D01*
X197364462Y-63458758D01*
X197364460Y-63458757D01*
X197364457Y-63458756D01*
X197234977Y-63422477D01*
X197087763Y-63381230D01*
X197087758Y-63381229D01*
X197087757Y-63381229D01*
X196900830Y-63355536D01*
X196803078Y-63342100D01*
X196803077Y-63342100D01*
X196515721Y-63342100D01*
X196515720Y-63342100D01*
X196231041Y-63381229D01*
X196231034Y-63381230D01*
X196023260Y-63439445D01*
X195954341Y-63458756D01*
X195954338Y-63458756D01*
X195954335Y-63458758D01*
X195954334Y-63458758D01*
X195690781Y-63573234D01*
X195445252Y-63722544D01*
X195222349Y-63903889D01*
X195026211Y-64113899D01*
X194860497Y-64348664D01*
X194728293Y-64603806D01*
X194632066Y-64874562D01*
X194632065Y-64874565D01*
X194573600Y-65155919D01*
X194553991Y-65442600D01*
X184784632Y-65442600D01*
X184692202Y-65371675D01*
X184465099Y-65240558D01*
X184465089Y-65240553D01*
X184222827Y-65140205D01*
X184222820Y-65140203D01*
X184222818Y-65140202D01*
X183969515Y-65072330D01*
X183911738Y-65064723D01*
X183709526Y-65038100D01*
X183709519Y-65038100D01*
X183447279Y-65038100D01*
X183447271Y-65038100D01*
X183216171Y-65068526D01*
X183187283Y-65072330D01*
X182933980Y-65140202D01*
X182933970Y-65140205D01*
X182691708Y-65240553D01*
X182691698Y-65240558D01*
X182464595Y-65371675D01*
X182256547Y-65531318D01*
X182071117Y-65716748D01*
X181911474Y-65924796D01*
X181780357Y-66151899D01*
X181780352Y-66151909D01*
X181680004Y-66394171D01*
X181680001Y-66394181D01*
X181646159Y-66520484D01*
X181612129Y-66647485D01*
X181577899Y-66907472D01*
X181577899Y-88869727D01*
X172497899Y-88869727D01*
X172497899Y-70088480D01*
X172463669Y-69828484D01*
X172395797Y-69575181D01*
X172350535Y-69465909D01*
X172295445Y-69332909D01*
X172295440Y-69332899D01*
X172164323Y-69105796D01*
X172004680Y-68897748D01*
X172004673Y-68897740D01*
X171819259Y-68712326D01*
X171819250Y-68712318D01*
X171611202Y-68552675D01*
X171384099Y-68421558D01*
X171384089Y-68421553D01*
X171141827Y-68321205D01*
X171141820Y-68321203D01*
X171141818Y-68321202D01*
X170888515Y-68253330D01*
X170830738Y-68245723D01*
X170628526Y-68219100D01*
X170628519Y-68219100D01*
X170366279Y-68219100D01*
X170366271Y-68219100D01*
X170135171Y-68249526D01*
X170106283Y-68253330D01*
X169852980Y-68321202D01*
X169852970Y-68321205D01*
X169610708Y-68421553D01*
X169610698Y-68421558D01*
X169383595Y-68552675D01*
X169175547Y-68712318D01*
X168990117Y-68897748D01*
X168830474Y-69105796D01*
X168699357Y-69332899D01*
X168699352Y-69332909D01*
X168599004Y-69575171D01*
X168599001Y-69575181D01*
X168565159Y-69701484D01*
X168531129Y-69828485D01*
X168496899Y-70088472D01*
X168496899Y-92050727D01*
X159132757Y-92050727D01*
X159049586Y-91932899D01*
X158970953Y-91848705D01*
X158853452Y-91722892D01*
X158630546Y-91541545D01*
X158630545Y-91541544D01*
X158385016Y-91392234D01*
X158121462Y-91277758D01*
X158121460Y-91277757D01*
X158121457Y-91277756D01*
X157991977Y-91241477D01*
X157844763Y-91200230D01*
X157844758Y-91200229D01*
X157844757Y-91200229D01*
X157702417Y-91180664D01*
X157560078Y-91161100D01*
X157560077Y-91161100D01*
X157272721Y-91161100D01*
X157272720Y-91161100D01*
X156988041Y-91200229D01*
X156988034Y-91200230D01*
X156780260Y-91258445D01*
X156711341Y-91277756D01*
X156711338Y-91277756D01*
X156711335Y-91277758D01*
X156711334Y-91277758D01*
X156447781Y-91392234D01*
X156202252Y-91541544D01*
X155979349Y-91722889D01*
X155783211Y-91932899D01*
X155617497Y-92167664D01*
X155485293Y-92422806D01*
X155389066Y-92693562D01*
X155389065Y-92693565D01*
X155330600Y-92974919D01*
X155310991Y-93261600D01*
X145929275Y-93261600D01*
X146002323Y-93166403D01*
X146133442Y-92939297D01*
X146233797Y-92697019D01*
X146301669Y-92443716D01*
X146335899Y-92183720D01*
X146335899Y-88742727D01*
X155415899Y-88742727D01*
X155432618Y-88869713D01*
X155450129Y-89002716D01*
X155518001Y-89256018D01*
X155518004Y-89256028D01*
X155618352Y-89498290D01*
X155618357Y-89498300D01*
X155749474Y-89725403D01*
X155909117Y-89933451D01*
X155909125Y-89933460D01*
X156094539Y-90118874D01*
X156094547Y-90118881D01*
X156302595Y-90278524D01*
X156529698Y-90409641D01*
X156529708Y-90409646D01*
X156762043Y-90505882D01*
X156771980Y-90509998D01*
X157025283Y-90577870D01*
X157285279Y-90612100D01*
X157285286Y-90612100D01*
X157547512Y-90612100D01*
X157547519Y-90612100D01*
X157807515Y-90577870D01*
X158060818Y-90509998D01*
X158303096Y-90409643D01*
X158530202Y-90278524D01*
X158738250Y-90118882D01*
X158738254Y-90118877D01*
X158738259Y-90118874D01*
X158923673Y-89933460D01*
X158923676Y-89933455D01*
X158923681Y-89933451D01*
X159083323Y-89725403D01*
X159214442Y-89498297D01*
X159314797Y-89256019D01*
X159382669Y-89002716D01*
X159416899Y-88742720D01*
X159416899Y-66780480D01*
X159382669Y-66520484D01*
X159314797Y-66267181D01*
X159314793Y-66267171D01*
X159214445Y-66024909D01*
X159214440Y-66024899D01*
X159083323Y-65797796D01*
X158923680Y-65589748D01*
X158923673Y-65589740D01*
X158903533Y-65569600D01*
X168391991Y-65569600D01*
X168411600Y-65856280D01*
X168411600Y-65856284D01*
X168411601Y-65856286D01*
X168425838Y-65924797D01*
X168470065Y-66137634D01*
X168470066Y-66137637D01*
X168566293Y-66408393D01*
X168566292Y-66408393D01*
X168698497Y-66663535D01*
X168864211Y-66898300D01*
X168941736Y-66981308D01*
X169060346Y-67108308D01*
X169283252Y-67289655D01*
X169319932Y-67311961D01*
X169528781Y-67438965D01*
X169678440Y-67503970D01*
X169792341Y-67553444D01*
X170069041Y-67630971D01*
X170319319Y-67665371D01*
X170353720Y-67670100D01*
X170353721Y-67670100D01*
X170641078Y-67670100D01*
X170671769Y-67665881D01*
X170925757Y-67630971D01*
X171202457Y-67553444D01*
X171316360Y-67503969D01*
X171466016Y-67438965D01*
X171466019Y-67438963D01*
X171466024Y-67438961D01*
X171711546Y-67289655D01*
X171934452Y-67108308D01*
X172130588Y-66898298D01*
X172296300Y-66663536D01*
X172428503Y-66408397D01*
X172524733Y-66137632D01*
X172583197Y-65856286D01*
X172602807Y-65569600D01*
X172583197Y-65282914D01*
X172524733Y-65001568D01*
X172428504Y-64730806D01*
X172428505Y-64730806D01*
X172296300Y-64475664D01*
X172130586Y-64240899D01*
X172011975Y-64113899D01*
X171934452Y-64030892D01*
X171711546Y-63849545D01*
X171711545Y-63849544D01*
X171466016Y-63700234D01*
X171202462Y-63585758D01*
X171202460Y-63585757D01*
X171202457Y-63585756D01*
X171072977Y-63549477D01*
X170925763Y-63508230D01*
X170925758Y-63508229D01*
X170925757Y-63508229D01*
X170738830Y-63482536D01*
X170641078Y-63469100D01*
X170641077Y-63469100D01*
X170353721Y-63469100D01*
X170353720Y-63469100D01*
X170069041Y-63508229D01*
X170069034Y-63508230D01*
X169861260Y-63566445D01*
X169792341Y-63585756D01*
X169792338Y-63585756D01*
X169792335Y-63585758D01*
X169792334Y-63585758D01*
X169528781Y-63700234D01*
X169283252Y-63849544D01*
X169060349Y-64030889D01*
X168864211Y-64240899D01*
X168698497Y-64475664D01*
X168566293Y-64730806D01*
X168470066Y-65001562D01*
X168470065Y-65001565D01*
X168411600Y-65282919D01*
X168391991Y-65569600D01*
X158903533Y-65569600D01*
X158738259Y-65404326D01*
X158738250Y-65404318D01*
X158530202Y-65244675D01*
X158303099Y-65113558D01*
X158303089Y-65113553D01*
X158060827Y-65013205D01*
X158060820Y-65013203D01*
X158060818Y-65013202D01*
X157807515Y-64945330D01*
X157749738Y-64937723D01*
X157547526Y-64911100D01*
X157547519Y-64911100D01*
X157285279Y-64911100D01*
X157285271Y-64911100D01*
X157054171Y-64941526D01*
X157025283Y-64945330D01*
X156815421Y-65001562D01*
X156771980Y-65013202D01*
X156771970Y-65013205D01*
X156529708Y-65113553D01*
X156529698Y-65113558D01*
X156302595Y-65244675D01*
X156094547Y-65404318D01*
X155909117Y-65589748D01*
X155749474Y-65797796D01*
X155618357Y-66024899D01*
X155618352Y-66024909D01*
X155518004Y-66267171D01*
X155518001Y-66267181D01*
X155479222Y-66411909D01*
X155450129Y-66520485D01*
X155415899Y-66780472D01*
X155415899Y-88742727D01*
X146335899Y-88742727D01*
X146335899Y-70221480D01*
X146301669Y-69961484D01*
X146233797Y-69708181D01*
X146233793Y-69708171D01*
X146133445Y-69465909D01*
X146133440Y-69465899D01*
X146002323Y-69238796D01*
X145842680Y-69030748D01*
X145842673Y-69030740D01*
X145657259Y-68845326D01*
X145657250Y-68845318D01*
X145449202Y-68685675D01*
X145222099Y-68554558D01*
X145222089Y-68554553D01*
X144979827Y-68454205D01*
X144979820Y-68454203D01*
X144979818Y-68454202D01*
X144726515Y-68386330D01*
X144668738Y-68378723D01*
X144466526Y-68352100D01*
X144466519Y-68352100D01*
X144204279Y-68352100D01*
X144204271Y-68352100D01*
X143973171Y-68382526D01*
X143944283Y-68386330D01*
X143812810Y-68421558D01*
X143690980Y-68454202D01*
X143690970Y-68454205D01*
X143448708Y-68554553D01*
X143448698Y-68554558D01*
X143221595Y-68685675D01*
X143013547Y-68845318D01*
X142828117Y-69030748D01*
X142668474Y-69238796D01*
X142537357Y-69465899D01*
X142537352Y-69465909D01*
X142437004Y-69708171D01*
X142437001Y-69708181D01*
X142369129Y-69961485D01*
X142334899Y-70221472D01*
X142334899Y-92183727D01*
X132760409Y-92183727D01*
X132691452Y-92109892D01*
X132535344Y-91982889D01*
X132468545Y-91928544D01*
X132223016Y-91779234D01*
X131959462Y-91664758D01*
X131959460Y-91664757D01*
X131959457Y-91664756D01*
X131829977Y-91628477D01*
X131682763Y-91587230D01*
X131682758Y-91587229D01*
X131682757Y-91587229D01*
X131540417Y-91567664D01*
X131398078Y-91548100D01*
X131398077Y-91548100D01*
X131110721Y-91548100D01*
X131110720Y-91548100D01*
X130826041Y-91587229D01*
X130826034Y-91587230D01*
X130618260Y-91645445D01*
X130549341Y-91664756D01*
X130549338Y-91664756D01*
X130549335Y-91664758D01*
X130549334Y-91664758D01*
X130285781Y-91779234D01*
X130040252Y-91928544D01*
X129817349Y-92109889D01*
X129621211Y-92319899D01*
X129455497Y-92554664D01*
X129323293Y-92809806D01*
X129227066Y-93080562D01*
X129227065Y-93080565D01*
X129168600Y-93361919D01*
X129148991Y-93648600D01*
X119533533Y-93648600D01*
X119680673Y-93501460D01*
X119680676Y-93501455D01*
X119680681Y-93501451D01*
X119840323Y-93293403D01*
X119971442Y-93066297D01*
X120071797Y-92824019D01*
X120139669Y-92570716D01*
X120173899Y-92310720D01*
X120173899Y-89129727D01*
X129253899Y-89129727D01*
X129280522Y-89331939D01*
X129288129Y-89389716D01*
X129356001Y-89643018D01*
X129356004Y-89643028D01*
X129456352Y-89885290D01*
X129456357Y-89885300D01*
X129587474Y-90112403D01*
X129747117Y-90320451D01*
X129747125Y-90320460D01*
X129932539Y-90505874D01*
X129932547Y-90505881D01*
X130140595Y-90665524D01*
X130367698Y-90796641D01*
X130367708Y-90796646D01*
X130609970Y-90896994D01*
X130609980Y-90896998D01*
X130863283Y-90964870D01*
X131123279Y-90999100D01*
X131123286Y-90999100D01*
X131385512Y-90999100D01*
X131385519Y-90999100D01*
X131645515Y-90964870D01*
X131898818Y-90896998D01*
X132141096Y-90796643D01*
X132368202Y-90665524D01*
X132576250Y-90505882D01*
X132576254Y-90505877D01*
X132576259Y-90505874D01*
X132761673Y-90320460D01*
X132761676Y-90320455D01*
X132761681Y-90320451D01*
X132921323Y-90112403D01*
X133052442Y-89885297D01*
X133152797Y-89643019D01*
X133220669Y-89389716D01*
X133254899Y-89129720D01*
X133254899Y-67167480D01*
X133220669Y-66907484D01*
X133152797Y-66654181D01*
X133152793Y-66654171D01*
X133052445Y-66411909D01*
X133052440Y-66411899D01*
X132921323Y-66184796D01*
X132787682Y-66010634D01*
X132761681Y-65976749D01*
X132761680Y-65976748D01*
X132761673Y-65976740D01*
X132576259Y-65791326D01*
X132576250Y-65791318D01*
X132460632Y-65702600D01*
X142229991Y-65702600D01*
X142249600Y-65989280D01*
X142249600Y-65989284D01*
X142249601Y-65989286D01*
X142263838Y-66057797D01*
X142308065Y-66270634D01*
X142308066Y-66270637D01*
X142404293Y-66541393D01*
X142404292Y-66541393D01*
X142536497Y-66796535D01*
X142702211Y-67031300D01*
X142774132Y-67108308D01*
X142898346Y-67241308D01*
X143121252Y-67422655D01*
X143336324Y-67553444D01*
X143366781Y-67571965D01*
X143553636Y-67653126D01*
X143630341Y-67686444D01*
X143907041Y-67763971D01*
X144157319Y-67798371D01*
X144191720Y-67803100D01*
X144191721Y-67803100D01*
X144479078Y-67803100D01*
X144509769Y-67798881D01*
X144763757Y-67763971D01*
X145040457Y-67686444D01*
X145168174Y-67630969D01*
X145304016Y-67571965D01*
X145304019Y-67571963D01*
X145304024Y-67571961D01*
X145549546Y-67422655D01*
X145772452Y-67241308D01*
X145968588Y-67031298D01*
X146134300Y-66796536D01*
X146266503Y-66541397D01*
X146362733Y-66270632D01*
X146421197Y-65989286D01*
X146440807Y-65702600D01*
X146421197Y-65415914D01*
X146362733Y-65134568D01*
X146319599Y-65013202D01*
X146266504Y-64863806D01*
X146266505Y-64863806D01*
X146134300Y-64608664D01*
X145968586Y-64373899D01*
X145848616Y-64245444D01*
X145772452Y-64163892D01*
X145549546Y-63982545D01*
X145549545Y-63982544D01*
X145304016Y-63833234D01*
X145040462Y-63718758D01*
X145040460Y-63718757D01*
X145040457Y-63718756D01*
X144910977Y-63682477D01*
X144763763Y-63641230D01*
X144763758Y-63641229D01*
X144763757Y-63641229D01*
X144576830Y-63615536D01*
X144479078Y-63602100D01*
X144479077Y-63602100D01*
X144191721Y-63602100D01*
X144191720Y-63602100D01*
X143907041Y-63641229D01*
X143907034Y-63641230D01*
X143699260Y-63699445D01*
X143630341Y-63718756D01*
X143630338Y-63718756D01*
X143630335Y-63718758D01*
X143630334Y-63718758D01*
X143366781Y-63833234D01*
X143121252Y-63982544D01*
X142898349Y-64163889D01*
X142702211Y-64373899D01*
X142536497Y-64608664D01*
X142404293Y-64863806D01*
X142308066Y-65134562D01*
X142308065Y-65134565D01*
X142249600Y-65415919D01*
X142229991Y-65702600D01*
X132460632Y-65702600D01*
X132368202Y-65631675D01*
X132141099Y-65500558D01*
X132141089Y-65500553D01*
X131898827Y-65400205D01*
X131898820Y-65400203D01*
X131898818Y-65400202D01*
X131645515Y-65332330D01*
X131587738Y-65324723D01*
X131385526Y-65298100D01*
X131385519Y-65298100D01*
X131123279Y-65298100D01*
X131123271Y-65298100D01*
X130892171Y-65328526D01*
X130863283Y-65332330D01*
X130609980Y-65400202D01*
X130609970Y-65400205D01*
X130367708Y-65500553D01*
X130367698Y-65500558D01*
X130140595Y-65631675D01*
X129932547Y-65791318D01*
X129747117Y-65976748D01*
X129587474Y-66184796D01*
X129456357Y-66411899D01*
X129456352Y-66411909D01*
X129356004Y-66654171D01*
X129356001Y-66654181D01*
X129290591Y-66898298D01*
X129288129Y-66907485D01*
X129253899Y-67167472D01*
X129253899Y-89129727D01*
X120173899Y-89129727D01*
X120173899Y-70348480D01*
X120139669Y-70088484D01*
X120071797Y-69835181D01*
X120071793Y-69835171D01*
X119971445Y-69592909D01*
X119971440Y-69592899D01*
X119840323Y-69365796D01*
X119680680Y-69157748D01*
X119680673Y-69157740D01*
X119495259Y-68972326D01*
X119495250Y-68972318D01*
X119287202Y-68812675D01*
X119060099Y-68681558D01*
X119060089Y-68681553D01*
X118817827Y-68581205D01*
X118817820Y-68581203D01*
X118817818Y-68581202D01*
X118564515Y-68513330D01*
X118506738Y-68505723D01*
X118304526Y-68479100D01*
X118304519Y-68479100D01*
X118042279Y-68479100D01*
X118042271Y-68479100D01*
X117811171Y-68509526D01*
X117782283Y-68513330D01*
X117528980Y-68581202D01*
X117528970Y-68581205D01*
X117286708Y-68681553D01*
X117286698Y-68681558D01*
X117059595Y-68812675D01*
X116851547Y-68972318D01*
X116666117Y-69157748D01*
X116506474Y-69365796D01*
X116375357Y-69592899D01*
X116375352Y-69592909D01*
X116275004Y-69835171D01*
X116275001Y-69835181D01*
X116241159Y-69961484D01*
X116207129Y-70088485D01*
X116172899Y-70348472D01*
X116172899Y-92310727D01*
X106808757Y-92310727D01*
X106725586Y-92192899D01*
X106601374Y-92059902D01*
X106529452Y-91982892D01*
X106306546Y-91801545D01*
X106306545Y-91801544D01*
X106061016Y-91652234D01*
X105797462Y-91537758D01*
X105797460Y-91537757D01*
X105797457Y-91537756D01*
X105667977Y-91501477D01*
X105520763Y-91460230D01*
X105520758Y-91460229D01*
X105520757Y-91460229D01*
X105378417Y-91440664D01*
X105236078Y-91421100D01*
X105236077Y-91421100D01*
X104948721Y-91421100D01*
X104948720Y-91421100D01*
X104664041Y-91460229D01*
X104664034Y-91460230D01*
X104456260Y-91518445D01*
X104387341Y-91537756D01*
X104387338Y-91537756D01*
X104387335Y-91537758D01*
X104387334Y-91537758D01*
X104123781Y-91652234D01*
X103878252Y-91801544D01*
X103655349Y-91982889D01*
X103459211Y-92192899D01*
X103293497Y-92427664D01*
X103161293Y-92682806D01*
X103065066Y-92953562D01*
X103065065Y-92953565D01*
X103006600Y-93234919D01*
X102986991Y-93521600D01*
X93017683Y-93521600D01*
X93125202Y-93459524D01*
X93333250Y-93299882D01*
X93333254Y-93299877D01*
X93333259Y-93299874D01*
X93518673Y-93114460D01*
X93518676Y-93114455D01*
X93518681Y-93114451D01*
X93678323Y-92906403D01*
X93809442Y-92679297D01*
X93909797Y-92437019D01*
X93977669Y-92183716D01*
X94011899Y-91923720D01*
X94011899Y-89002727D01*
X103091899Y-89002727D01*
X103108619Y-89129720D01*
X103126129Y-89262716D01*
X103194001Y-89516018D01*
X103194004Y-89516028D01*
X103294352Y-89758290D01*
X103294357Y-89758300D01*
X103425474Y-89985403D01*
X103585117Y-90193451D01*
X103585125Y-90193460D01*
X103770539Y-90378874D01*
X103770547Y-90378881D01*
X103978595Y-90538524D01*
X104205698Y-90669641D01*
X104205708Y-90669646D01*
X104447970Y-90769994D01*
X104447980Y-90769998D01*
X104701283Y-90837870D01*
X104961279Y-90872100D01*
X104961286Y-90872100D01*
X105223512Y-90872100D01*
X105223519Y-90872100D01*
X105483515Y-90837870D01*
X105736818Y-90769998D01*
X105979096Y-90669643D01*
X106206202Y-90538524D01*
X106414250Y-90378882D01*
X106414254Y-90378877D01*
X106414259Y-90378874D01*
X106599673Y-90193460D01*
X106599676Y-90193455D01*
X106599681Y-90193451D01*
X106759323Y-89985403D01*
X106890442Y-89758297D01*
X106990797Y-89516019D01*
X107058669Y-89262716D01*
X107092899Y-89002720D01*
X107092899Y-67040480D01*
X107058669Y-66780484D01*
X106990797Y-66527181D01*
X106990793Y-66527171D01*
X106890445Y-66284909D01*
X106890440Y-66284899D01*
X106759323Y-66057796D01*
X106599680Y-65849748D01*
X106599673Y-65849740D01*
X106579533Y-65829600D01*
X116067991Y-65829600D01*
X116087600Y-66116280D01*
X116087600Y-66116284D01*
X116087601Y-66116286D01*
X116101838Y-66184797D01*
X116146065Y-66397634D01*
X116146066Y-66397637D01*
X116242293Y-66668393D01*
X116242292Y-66668393D01*
X116374497Y-66923535D01*
X116540211Y-67158300D01*
X116617736Y-67241308D01*
X116736346Y-67368308D01*
X116959252Y-67549655D01*
X117157314Y-67670100D01*
X117204781Y-67698965D01*
X117354440Y-67763970D01*
X117468341Y-67813444D01*
X117745041Y-67890971D01*
X117995319Y-67925371D01*
X118029720Y-67930100D01*
X118029721Y-67930100D01*
X118317078Y-67930100D01*
X118347769Y-67925881D01*
X118601757Y-67890971D01*
X118878457Y-67813444D01*
X118992360Y-67763969D01*
X119142016Y-67698965D01*
X119142019Y-67698963D01*
X119142024Y-67698961D01*
X119387546Y-67549655D01*
X119610452Y-67368308D01*
X119806588Y-67158298D01*
X119972300Y-66923536D01*
X120104503Y-66668397D01*
X120200733Y-66397632D01*
X120259197Y-66116286D01*
X120278807Y-65829600D01*
X120259197Y-65542914D01*
X120200733Y-65261568D01*
X120157599Y-65140202D01*
X120104504Y-64990806D01*
X120104505Y-64990806D01*
X119972300Y-64735664D01*
X119806586Y-64500899D01*
X119686616Y-64372444D01*
X119610452Y-64290892D01*
X119413870Y-64130961D01*
X119387545Y-64109544D01*
X119142016Y-63960234D01*
X118878462Y-63845758D01*
X118878460Y-63845757D01*
X118878457Y-63845756D01*
X118716257Y-63800310D01*
X118601763Y-63768230D01*
X118601758Y-63768229D01*
X118601757Y-63768229D01*
X118414830Y-63742536D01*
X118317078Y-63729100D01*
X118317077Y-63729100D01*
X118029721Y-63729100D01*
X118029720Y-63729100D01*
X117745041Y-63768229D01*
X117745034Y-63768230D01*
X117537260Y-63826445D01*
X117468341Y-63845756D01*
X117468338Y-63845756D01*
X117468335Y-63845758D01*
X117468334Y-63845758D01*
X117204781Y-63960234D01*
X116959252Y-64109544D01*
X116736349Y-64290889D01*
X116540211Y-64500899D01*
X116374497Y-64735664D01*
X116242293Y-64990806D01*
X116146066Y-65261562D01*
X116146065Y-65261565D01*
X116087600Y-65542919D01*
X116067991Y-65829600D01*
X106579533Y-65829600D01*
X106414259Y-65664326D01*
X106414250Y-65664318D01*
X106206202Y-65504675D01*
X105979099Y-65373558D01*
X105979089Y-65373553D01*
X105736827Y-65273205D01*
X105736820Y-65273203D01*
X105736818Y-65273202D01*
X105483515Y-65205330D01*
X105425738Y-65197723D01*
X105223526Y-65171100D01*
X105223519Y-65171100D01*
X104961279Y-65171100D01*
X104961271Y-65171100D01*
X104730171Y-65201526D01*
X104701283Y-65205330D01*
X104569810Y-65240558D01*
X104447980Y-65273202D01*
X104447970Y-65273205D01*
X104205708Y-65373553D01*
X104205698Y-65373558D01*
X103978595Y-65504675D01*
X103770547Y-65664318D01*
X103585117Y-65849748D01*
X103425474Y-66057796D01*
X103294357Y-66284899D01*
X103294352Y-66284909D01*
X103194004Y-66527171D01*
X103194001Y-66527181D01*
X103128591Y-66771298D01*
X103126129Y-66780485D01*
X103091899Y-67040472D01*
X103091899Y-89002727D01*
X94011899Y-89002727D01*
X94011899Y-69961480D01*
X93977669Y-69701484D01*
X93909797Y-69448181D01*
X93909793Y-69448171D01*
X93809445Y-69205909D01*
X93809440Y-69205899D01*
X93678323Y-68978796D01*
X93518680Y-68770748D01*
X93518673Y-68770740D01*
X93333259Y-68585326D01*
X93333250Y-68585318D01*
X93125202Y-68425675D01*
X92898099Y-68294558D01*
X92898089Y-68294553D01*
X92655827Y-68194205D01*
X92655820Y-68194203D01*
X92655818Y-68194202D01*
X92402515Y-68126330D01*
X92344738Y-68118723D01*
X92142526Y-68092100D01*
X92142519Y-68092100D01*
X91880279Y-68092100D01*
X91880271Y-68092100D01*
X91649171Y-68122526D01*
X91620283Y-68126330D01*
X91366980Y-68194202D01*
X91366970Y-68194205D01*
X91124708Y-68294553D01*
X91124698Y-68294558D01*
X90897595Y-68425675D01*
X90689547Y-68585318D01*
X90504117Y-68770748D01*
X90344474Y-68978796D01*
X90213357Y-69205899D01*
X90213352Y-69205909D01*
X90113004Y-69448171D01*
X90113001Y-69448181D01*
X90074222Y-69592909D01*
X90045129Y-69701485D01*
X90010899Y-69961472D01*
X90010899Y-91923727D01*
X80436409Y-91923727D01*
X80367452Y-91849892D01*
X80144546Y-91668545D01*
X80144545Y-91668544D01*
X79899016Y-91519234D01*
X79635462Y-91404758D01*
X79635460Y-91404757D01*
X79635457Y-91404756D01*
X79505977Y-91368477D01*
X79358763Y-91327230D01*
X79358758Y-91327229D01*
X79358757Y-91327229D01*
X79216417Y-91307664D01*
X79074078Y-91288100D01*
X79074077Y-91288100D01*
X78786721Y-91288100D01*
X78786720Y-91288100D01*
X78502041Y-91327229D01*
X78502034Y-91327230D01*
X78294260Y-91385445D01*
X78225341Y-91404756D01*
X78225338Y-91404756D01*
X78225335Y-91404758D01*
X78225334Y-91404758D01*
X77961781Y-91519234D01*
X77716252Y-91668544D01*
X77493349Y-91849889D01*
X77297211Y-92059899D01*
X77131497Y-92294664D01*
X76999293Y-92549806D01*
X76903066Y-92820562D01*
X76903065Y-92820565D01*
X76844600Y-93101919D01*
X76824991Y-93388600D01*
X67209533Y-93388600D01*
X67356673Y-93241460D01*
X67356676Y-93241455D01*
X67356681Y-93241451D01*
X67516323Y-93033403D01*
X67647442Y-92806297D01*
X67747797Y-92564019D01*
X67815669Y-92310716D01*
X67849899Y-92050720D01*
X67849899Y-88869727D01*
X76929899Y-88869727D01*
X76947409Y-89002720D01*
X76964129Y-89129716D01*
X76997972Y-89256019D01*
X77032001Y-89383018D01*
X77032004Y-89383028D01*
X77132352Y-89625290D01*
X77132357Y-89625300D01*
X77263474Y-89852403D01*
X77423117Y-90060451D01*
X77423125Y-90060460D01*
X77608539Y-90245874D01*
X77608547Y-90245881D01*
X77816595Y-90405524D01*
X78043698Y-90536641D01*
X78043708Y-90536646D01*
X78285970Y-90636994D01*
X78285980Y-90636998D01*
X78539283Y-90704870D01*
X78799279Y-90739100D01*
X78799286Y-90739100D01*
X79061512Y-90739100D01*
X79061519Y-90739100D01*
X79321515Y-90704870D01*
X79574818Y-90636998D01*
X79817096Y-90536643D01*
X80044202Y-90405524D01*
X80252250Y-90245882D01*
X80252254Y-90245877D01*
X80252259Y-90245874D01*
X80437673Y-90060460D01*
X80437676Y-90060455D01*
X80437681Y-90060451D01*
X80597323Y-89852403D01*
X80728442Y-89625297D01*
X80828797Y-89383019D01*
X80896669Y-89129716D01*
X80930899Y-88869720D01*
X80930899Y-66907480D01*
X80896669Y-66647484D01*
X80828797Y-66394181D01*
X80783535Y-66284909D01*
X80728445Y-66151909D01*
X80728440Y-66151899D01*
X80597323Y-65924796D01*
X80437680Y-65716748D01*
X80437673Y-65716740D01*
X80252259Y-65531326D01*
X80252250Y-65531318D01*
X80136632Y-65442600D01*
X89905991Y-65442600D01*
X89925600Y-65729280D01*
X89925600Y-65729284D01*
X89925601Y-65729286D01*
X89939838Y-65797797D01*
X89984065Y-66010634D01*
X89984066Y-66010637D01*
X90080293Y-66281393D01*
X90080292Y-66281393D01*
X90212497Y-66536535D01*
X90378211Y-66771300D01*
X90463322Y-66862431D01*
X90574346Y-66981308D01*
X90730453Y-67108310D01*
X90797252Y-67162655D01*
X91042781Y-67311965D01*
X91229636Y-67393126D01*
X91306341Y-67426444D01*
X91583041Y-67503971D01*
X91833319Y-67538371D01*
X91867720Y-67543100D01*
X91867721Y-67543100D01*
X92155078Y-67543100D01*
X92185769Y-67538881D01*
X92439757Y-67503971D01*
X92716457Y-67426444D01*
X92850300Y-67368308D01*
X92980016Y-67311965D01*
X92980019Y-67311963D01*
X92980024Y-67311961D01*
X93225546Y-67162655D01*
X93448452Y-66981308D01*
X93644588Y-66771298D01*
X93810300Y-66536536D01*
X93942503Y-66281397D01*
X94038733Y-66010632D01*
X94097197Y-65729286D01*
X94116807Y-65442600D01*
X94097197Y-65155914D01*
X94038733Y-64874568D01*
X93942504Y-64603806D01*
X93942505Y-64603806D01*
X93810300Y-64348664D01*
X93644586Y-64113899D01*
X93565953Y-64029705D01*
X93448452Y-63903892D01*
X93225546Y-63722545D01*
X93225545Y-63722544D01*
X92980016Y-63573234D01*
X92716462Y-63458758D01*
X92716460Y-63458757D01*
X92716457Y-63458756D01*
X92586977Y-63422477D01*
X92439763Y-63381230D01*
X92439758Y-63381229D01*
X92439757Y-63381229D01*
X92252830Y-63355536D01*
X92155078Y-63342100D01*
X92155077Y-63342100D01*
X91867721Y-63342100D01*
X91867720Y-63342100D01*
X91583041Y-63381229D01*
X91583034Y-63381230D01*
X91375260Y-63439445D01*
X91306341Y-63458756D01*
X91306338Y-63458756D01*
X91306335Y-63458758D01*
X91306334Y-63458758D01*
X91042781Y-63573234D01*
X90797252Y-63722544D01*
X90574349Y-63903889D01*
X90378211Y-64113899D01*
X90212497Y-64348664D01*
X90080293Y-64603806D01*
X89984066Y-64874562D01*
X89984065Y-64874565D01*
X89925600Y-65155919D01*
X89905991Y-65442600D01*
X80136632Y-65442600D01*
X80044202Y-65371675D01*
X79817099Y-65240558D01*
X79817089Y-65240553D01*
X79574827Y-65140205D01*
X79574820Y-65140203D01*
X79574818Y-65140202D01*
X79321515Y-65072330D01*
X79263738Y-65064723D01*
X79061526Y-65038100D01*
X79061519Y-65038100D01*
X78799279Y-65038100D01*
X78799271Y-65038100D01*
X78568171Y-65068526D01*
X78539283Y-65072330D01*
X78285980Y-65140202D01*
X78285970Y-65140205D01*
X78043708Y-65240553D01*
X78043698Y-65240558D01*
X77816595Y-65371675D01*
X77608547Y-65531318D01*
X77423117Y-65716748D01*
X77263474Y-65924796D01*
X77132357Y-66151899D01*
X77132352Y-66151909D01*
X77032004Y-66394171D01*
X77032001Y-66394181D01*
X76998159Y-66520484D01*
X76964129Y-66647485D01*
X76929899Y-66907472D01*
X76929899Y-88869727D01*
X67849899Y-88869727D01*
X67849899Y-70088480D01*
X67815669Y-69828484D01*
X67747797Y-69575181D01*
X67702535Y-69465909D01*
X67647445Y-69332909D01*
X67647440Y-69332899D01*
X67516323Y-69105796D01*
X67356680Y-68897748D01*
X67356673Y-68897740D01*
X67171259Y-68712326D01*
X67171250Y-68712318D01*
X66963202Y-68552675D01*
X66736099Y-68421558D01*
X66736089Y-68421553D01*
X66493827Y-68321205D01*
X66493820Y-68321203D01*
X66493818Y-68321202D01*
X66240515Y-68253330D01*
X66182738Y-68245723D01*
X65980526Y-68219100D01*
X65980519Y-68219100D01*
X65718279Y-68219100D01*
X65718271Y-68219100D01*
X65487171Y-68249526D01*
X65458283Y-68253330D01*
X65204980Y-68321202D01*
X65204970Y-68321205D01*
X64962708Y-68421553D01*
X64962698Y-68421558D01*
X64735595Y-68552675D01*
X64527547Y-68712318D01*
X64342117Y-68897748D01*
X64182474Y-69105796D01*
X64051357Y-69332899D01*
X64051352Y-69332909D01*
X63951004Y-69575171D01*
X63951001Y-69575181D01*
X63917159Y-69701484D01*
X63883129Y-69828485D01*
X63848899Y-70088472D01*
X63848899Y-92050727D01*
X54484757Y-92050727D01*
X54401586Y-91932899D01*
X54322953Y-91848705D01*
X54205452Y-91722892D01*
X53982546Y-91541545D01*
X53982545Y-91541544D01*
X53737016Y-91392234D01*
X53473462Y-91277758D01*
X53473460Y-91277757D01*
X53473457Y-91277756D01*
X53343977Y-91241477D01*
X53196763Y-91200230D01*
X53196758Y-91200229D01*
X53196757Y-91200229D01*
X53054417Y-91180664D01*
X52912078Y-91161100D01*
X52912077Y-91161100D01*
X52624721Y-91161100D01*
X52624720Y-91161100D01*
X52340041Y-91200229D01*
X52340034Y-91200230D01*
X52132260Y-91258445D01*
X52063341Y-91277756D01*
X52063338Y-91277756D01*
X52063335Y-91277758D01*
X52063334Y-91277758D01*
X51799781Y-91392234D01*
X51554252Y-91541544D01*
X51331349Y-91722889D01*
X51135211Y-91932899D01*
X50969497Y-92167664D01*
X50837293Y-92422806D01*
X50741066Y-92693562D01*
X50741065Y-92693565D01*
X50682600Y-92974919D01*
X50662991Y-93261600D01*
X42387899Y-93261600D01*
X42387899Y-88742727D01*
X50767899Y-88742727D01*
X50784618Y-88869713D01*
X50802129Y-89002716D01*
X50870001Y-89256018D01*
X50870004Y-89256028D01*
X50970352Y-89498290D01*
X50970357Y-89498300D01*
X51101474Y-89725403D01*
X51261117Y-89933451D01*
X51261125Y-89933460D01*
X51446539Y-90118874D01*
X51446547Y-90118881D01*
X51654595Y-90278524D01*
X51881698Y-90409641D01*
X51881708Y-90409646D01*
X52114043Y-90505882D01*
X52123980Y-90509998D01*
X52377283Y-90577870D01*
X52637279Y-90612100D01*
X52637286Y-90612100D01*
X52899512Y-90612100D01*
X52899519Y-90612100D01*
X53159515Y-90577870D01*
X53412818Y-90509998D01*
X53655096Y-90409643D01*
X53882202Y-90278524D01*
X54090250Y-90118882D01*
X54090254Y-90118877D01*
X54090259Y-90118874D01*
X54275673Y-89933460D01*
X54275676Y-89933455D01*
X54275681Y-89933451D01*
X54435323Y-89725403D01*
X54566442Y-89498297D01*
X54666797Y-89256019D01*
X54734669Y-89002716D01*
X54768899Y-88742720D01*
X54768899Y-66780480D01*
X54734669Y-66520484D01*
X54666797Y-66267181D01*
X54666793Y-66267171D01*
X54566445Y-66024909D01*
X54566440Y-66024899D01*
X54435323Y-65797796D01*
X54275680Y-65589748D01*
X54275673Y-65589740D01*
X54255533Y-65569600D01*
X63743991Y-65569600D01*
X63763600Y-65856280D01*
X63763600Y-65856284D01*
X63763601Y-65856286D01*
X63777838Y-65924797D01*
X63822065Y-66137634D01*
X63822066Y-66137637D01*
X63918293Y-66408393D01*
X63918292Y-66408393D01*
X64050497Y-66663535D01*
X64216211Y-66898300D01*
X64293736Y-66981308D01*
X64412346Y-67108308D01*
X64635252Y-67289655D01*
X64671932Y-67311961D01*
X64880781Y-67438965D01*
X65030440Y-67503970D01*
X65144341Y-67553444D01*
X65421041Y-67630971D01*
X65671319Y-67665371D01*
X65705720Y-67670100D01*
X65705721Y-67670100D01*
X65993078Y-67670100D01*
X66023769Y-67665881D01*
X66277757Y-67630971D01*
X66554457Y-67553444D01*
X66668360Y-67503969D01*
X66818016Y-67438965D01*
X66818019Y-67438963D01*
X66818024Y-67438961D01*
X67063546Y-67289655D01*
X67286452Y-67108308D01*
X67482588Y-66898298D01*
X67648300Y-66663536D01*
X67780503Y-66408397D01*
X67876733Y-66137632D01*
X67935197Y-65856286D01*
X67954807Y-65569600D01*
X67935197Y-65282914D01*
X67876733Y-65001568D01*
X67780504Y-64730806D01*
X67780505Y-64730806D01*
X67648300Y-64475664D01*
X67482586Y-64240899D01*
X67363975Y-64113899D01*
X67286452Y-64030892D01*
X67063546Y-63849545D01*
X67063545Y-63849544D01*
X66818016Y-63700234D01*
X66554462Y-63585758D01*
X66554460Y-63585757D01*
X66554457Y-63585756D01*
X66424977Y-63549477D01*
X66277763Y-63508230D01*
X66277758Y-63508229D01*
X66277757Y-63508229D01*
X66090830Y-63482536D01*
X65993078Y-63469100D01*
X65993077Y-63469100D01*
X65705721Y-63469100D01*
X65705720Y-63469100D01*
X65421041Y-63508229D01*
X65421034Y-63508230D01*
X65213260Y-63566445D01*
X65144341Y-63585756D01*
X65144338Y-63585756D01*
X65144335Y-63585758D01*
X65144334Y-63585758D01*
X64880781Y-63700234D01*
X64635252Y-63849544D01*
X64412349Y-64030889D01*
X64216211Y-64240899D01*
X64050497Y-64475664D01*
X63918293Y-64730806D01*
X63822066Y-65001562D01*
X63822065Y-65001565D01*
X63763600Y-65282919D01*
X63743991Y-65569600D01*
X54255533Y-65569600D01*
X54090259Y-65404326D01*
X54090250Y-65404318D01*
X53882202Y-65244675D01*
X53655099Y-65113558D01*
X53655089Y-65113553D01*
X53412827Y-65013205D01*
X53412820Y-65013203D01*
X53412818Y-65013202D01*
X53159515Y-64945330D01*
X53101738Y-64937723D01*
X52899526Y-64911100D01*
X52899519Y-64911100D01*
X52637279Y-64911100D01*
X52637271Y-64911100D01*
X52406171Y-64941526D01*
X52377283Y-64945330D01*
X52167421Y-65001562D01*
X52123980Y-65013202D01*
X52123970Y-65013205D01*
X51881708Y-65113553D01*
X51881698Y-65113558D01*
X51654595Y-65244675D01*
X51446547Y-65404318D01*
X51261117Y-65589748D01*
X51101474Y-65797796D01*
X50970357Y-66024899D01*
X50970352Y-66024909D01*
X50870004Y-66267171D01*
X50870001Y-66267181D01*
X50831222Y-66411909D01*
X50802129Y-66520485D01*
X50767899Y-66780472D01*
X50767899Y-88742727D01*
X42387899Y-88742727D01*
X42387899Y-62261600D01*
X50662991Y-62261600D01*
X50682600Y-62548280D01*
X50741065Y-62829634D01*
X50741066Y-62829637D01*
X50837293Y-63100393D01*
X50837292Y-63100393D01*
X50969497Y-63355535D01*
X51135211Y-63590300D01*
X51182776Y-63641229D01*
X51331346Y-63800308D01*
X51554252Y-63981655D01*
X51764555Y-64109544D01*
X51799781Y-64130965D01*
X51986636Y-64212126D01*
X52063341Y-64245444D01*
X52340041Y-64322971D01*
X52590319Y-64357371D01*
X52624720Y-64362100D01*
X52624721Y-64362100D01*
X52912078Y-64362100D01*
X52942769Y-64357881D01*
X53196757Y-64322971D01*
X53473457Y-64245444D01*
X53607300Y-64187308D01*
X53737016Y-64130965D01*
X53737019Y-64130963D01*
X53737024Y-64130961D01*
X53982546Y-63981655D01*
X54205452Y-63800308D01*
X54401588Y-63590298D01*
X54567300Y-63355536D01*
X54699503Y-63100397D01*
X54795733Y-62829632D01*
X54854197Y-62548286D01*
X54865120Y-62388600D01*
X76824991Y-62388600D01*
X76844600Y-62675280D01*
X76903065Y-62956634D01*
X76903066Y-62956637D01*
X76999293Y-63227393D01*
X76999292Y-63227393D01*
X77131497Y-63482535D01*
X77297211Y-63717300D01*
X77344776Y-63768229D01*
X77493346Y-63927308D01*
X77716252Y-64108655D01*
X77752932Y-64130961D01*
X77961781Y-64257965D01*
X78111440Y-64322970D01*
X78225341Y-64372444D01*
X78502041Y-64449971D01*
X78752319Y-64484371D01*
X78786720Y-64489100D01*
X78786721Y-64489100D01*
X79074078Y-64489100D01*
X79104769Y-64484881D01*
X79358757Y-64449971D01*
X79635457Y-64372444D01*
X79749360Y-64322969D01*
X79899016Y-64257965D01*
X79899019Y-64257963D01*
X79899024Y-64257961D01*
X80144546Y-64108655D01*
X80367452Y-63927308D01*
X80563588Y-63717298D01*
X80729300Y-63482536D01*
X80861503Y-63227397D01*
X80957733Y-62956632D01*
X81016197Y-62675286D01*
X81026709Y-62521600D01*
X102986991Y-62521600D01*
X103006600Y-62808280D01*
X103065065Y-63089634D01*
X103065066Y-63089637D01*
X103161293Y-63360393D01*
X103161292Y-63360393D01*
X103293497Y-63615535D01*
X103459211Y-63850300D01*
X103509263Y-63903892D01*
X103655346Y-64060308D01*
X103878252Y-64241655D01*
X104093324Y-64372444D01*
X104123781Y-64390965D01*
X104310636Y-64472126D01*
X104387341Y-64505444D01*
X104664041Y-64582971D01*
X104914319Y-64617371D01*
X104948720Y-64622100D01*
X104948721Y-64622100D01*
X105236078Y-64622100D01*
X105266769Y-64617881D01*
X105520757Y-64582971D01*
X105797457Y-64505444D01*
X105925174Y-64449969D01*
X106061016Y-64390965D01*
X106061019Y-64390963D01*
X106061024Y-64390961D01*
X106306546Y-64241655D01*
X106529452Y-64060308D01*
X106725588Y-63850298D01*
X106891300Y-63615536D01*
X107023503Y-63360397D01*
X107119733Y-63089632D01*
X107178197Y-62808286D01*
X107189120Y-62648600D01*
X129148991Y-62648600D01*
X129168600Y-62935280D01*
X129227065Y-63216634D01*
X129227066Y-63216637D01*
X129323293Y-63487393D01*
X129323292Y-63487393D01*
X129455497Y-63742535D01*
X129621211Y-63977300D01*
X129671263Y-64030892D01*
X129817346Y-64187308D01*
X130040252Y-64368655D01*
X130238314Y-64489100D01*
X130285781Y-64517965D01*
X130435440Y-64582970D01*
X130549341Y-64632444D01*
X130826041Y-64709971D01*
X131076319Y-64744371D01*
X131110720Y-64749100D01*
X131110721Y-64749100D01*
X131398078Y-64749100D01*
X131428769Y-64744881D01*
X131682757Y-64709971D01*
X131959457Y-64632444D01*
X132073360Y-64582969D01*
X132223016Y-64517965D01*
X132223019Y-64517963D01*
X132223024Y-64517961D01*
X132468546Y-64368655D01*
X132691452Y-64187308D01*
X132887588Y-63977298D01*
X133053300Y-63742536D01*
X133185503Y-63487397D01*
X133281733Y-63216632D01*
X133340197Y-62935286D01*
X133359807Y-62648600D01*
X133340197Y-62361914D01*
X133319352Y-62261600D01*
X155310991Y-62261600D01*
X155330600Y-62548280D01*
X155389065Y-62829634D01*
X155389066Y-62829637D01*
X155485293Y-63100393D01*
X155485292Y-63100393D01*
X155617497Y-63355535D01*
X155783211Y-63590300D01*
X155830776Y-63641229D01*
X155979346Y-63800308D01*
X156202252Y-63981655D01*
X156412555Y-64109544D01*
X156447781Y-64130965D01*
X156634636Y-64212126D01*
X156711341Y-64245444D01*
X156988041Y-64322971D01*
X157238319Y-64357371D01*
X157272720Y-64362100D01*
X157272721Y-64362100D01*
X157560078Y-64362100D01*
X157590769Y-64357881D01*
X157844757Y-64322971D01*
X158121457Y-64245444D01*
X158255300Y-64187308D01*
X158385016Y-64130965D01*
X158385019Y-64130963D01*
X158385024Y-64130961D01*
X158630546Y-63981655D01*
X158853452Y-63800308D01*
X159049588Y-63590298D01*
X159215300Y-63355536D01*
X159347503Y-63100397D01*
X159443733Y-62829632D01*
X159502197Y-62548286D01*
X159513120Y-62388600D01*
X181472991Y-62388600D01*
X181492600Y-62675280D01*
X181551065Y-62956634D01*
X181551066Y-62956637D01*
X181647293Y-63227393D01*
X181647292Y-63227393D01*
X181779497Y-63482535D01*
X181945211Y-63717300D01*
X181992776Y-63768229D01*
X182141346Y-63927308D01*
X182364252Y-64108655D01*
X182400932Y-64130961D01*
X182609781Y-64257965D01*
X182759440Y-64322970D01*
X182873341Y-64372444D01*
X183150041Y-64449971D01*
X183400319Y-64484371D01*
X183434720Y-64489100D01*
X183434721Y-64489100D01*
X183722078Y-64489100D01*
X183752769Y-64484881D01*
X184006757Y-64449971D01*
X184283457Y-64372444D01*
X184397360Y-64322969D01*
X184547016Y-64257965D01*
X184547019Y-64257963D01*
X184547024Y-64257961D01*
X184792546Y-64108655D01*
X185015452Y-63927308D01*
X185211588Y-63717298D01*
X185377300Y-63482536D01*
X185509503Y-63227397D01*
X185605733Y-62956632D01*
X185664197Y-62675286D01*
X185683807Y-62388600D01*
X185664197Y-62101914D01*
X185605733Y-61820568D01*
X185509504Y-61549806D01*
X185509505Y-61549806D01*
X185377300Y-61294664D01*
X185211586Y-61059899D01*
X185092975Y-60932899D01*
X185015452Y-60849892D01*
X184792546Y-60668545D01*
X184792545Y-60668544D01*
X184547016Y-60519234D01*
X184283462Y-60404758D01*
X184283460Y-60404757D01*
X184283457Y-60404756D01*
X184153977Y-60368477D01*
X184006763Y-60327230D01*
X184006758Y-60327229D01*
X184006757Y-60327229D01*
X183864417Y-60307664D01*
X183722078Y-60288100D01*
X183722077Y-60288100D01*
X183434721Y-60288100D01*
X183434720Y-60288100D01*
X183150041Y-60327229D01*
X183150034Y-60327230D01*
X182942260Y-60385445D01*
X182873341Y-60404756D01*
X182873338Y-60404756D01*
X182873335Y-60404758D01*
X182873334Y-60404758D01*
X182609781Y-60519234D01*
X182364252Y-60668544D01*
X182141349Y-60849889D01*
X181945211Y-61059899D01*
X181779497Y-61294664D01*
X181647293Y-61549806D01*
X181551066Y-61820562D01*
X181551065Y-61820565D01*
X181492600Y-62101919D01*
X181472991Y-62388600D01*
X159513120Y-62388600D01*
X159521807Y-62261600D01*
X159502197Y-61974914D01*
X159443733Y-61693568D01*
X159347504Y-61422806D01*
X159347505Y-61422806D01*
X159215300Y-61167664D01*
X159049586Y-60932899D01*
X158970953Y-60848705D01*
X158853452Y-60722892D01*
X158630546Y-60541545D01*
X158630545Y-60541544D01*
X158385016Y-60392234D01*
X158121462Y-60277758D01*
X158121460Y-60277757D01*
X158121457Y-60277756D01*
X157991977Y-60241477D01*
X157844763Y-60200230D01*
X157844758Y-60200229D01*
X157844757Y-60200229D01*
X157702417Y-60180664D01*
X157560078Y-60161100D01*
X157560077Y-60161100D01*
X157272721Y-60161100D01*
X157272720Y-60161100D01*
X156988041Y-60200229D01*
X156988034Y-60200230D01*
X156780260Y-60258445D01*
X156711341Y-60277756D01*
X156711338Y-60277756D01*
X156711335Y-60277758D01*
X156711334Y-60277758D01*
X156447781Y-60392234D01*
X156202252Y-60541544D01*
X155979349Y-60722889D01*
X155783211Y-60932899D01*
X155617497Y-61167664D01*
X155485293Y-61422806D01*
X155389066Y-61693562D01*
X155389065Y-61693565D01*
X155330600Y-61974919D01*
X155310991Y-62261600D01*
X133319352Y-62261600D01*
X133281733Y-62080568D01*
X133185504Y-61809806D01*
X133185505Y-61809806D01*
X133053300Y-61554664D01*
X132887586Y-61319899D01*
X132745407Y-61167664D01*
X132691452Y-61109892D01*
X132535344Y-60982889D01*
X132468545Y-60928544D01*
X132223016Y-60779234D01*
X131959462Y-60664758D01*
X131959460Y-60664757D01*
X131959457Y-60664756D01*
X131829977Y-60628477D01*
X131682763Y-60587230D01*
X131682758Y-60587229D01*
X131682757Y-60587229D01*
X131540417Y-60567664D01*
X131398078Y-60548100D01*
X131398077Y-60548100D01*
X131110721Y-60548100D01*
X131110720Y-60548100D01*
X130826041Y-60587229D01*
X130826034Y-60587230D01*
X130618260Y-60645445D01*
X130549341Y-60664756D01*
X130549338Y-60664756D01*
X130549335Y-60664758D01*
X130549334Y-60664758D01*
X130285781Y-60779234D01*
X130040252Y-60928544D01*
X129817349Y-61109889D01*
X129621211Y-61319899D01*
X129455497Y-61554664D01*
X129323293Y-61809806D01*
X129227066Y-62080562D01*
X129227065Y-62080565D01*
X129168600Y-62361919D01*
X129148991Y-62648600D01*
X107189120Y-62648600D01*
X107197807Y-62521600D01*
X107178197Y-62234914D01*
X107119733Y-61953568D01*
X107023504Y-61682806D01*
X107023505Y-61682806D01*
X106891300Y-61427664D01*
X106725586Y-61192899D01*
X106601374Y-61059902D01*
X106529452Y-60982892D01*
X106306546Y-60801545D01*
X106306545Y-60801544D01*
X106061016Y-60652234D01*
X105797462Y-60537758D01*
X105797460Y-60537757D01*
X105797457Y-60537756D01*
X105667977Y-60501477D01*
X105520763Y-60460230D01*
X105520758Y-60460229D01*
X105520757Y-60460229D01*
X105378417Y-60440664D01*
X105236078Y-60421100D01*
X105236077Y-60421100D01*
X104948721Y-60421100D01*
X104948720Y-60421100D01*
X104664041Y-60460229D01*
X104664034Y-60460230D01*
X104456260Y-60518445D01*
X104387341Y-60537756D01*
X104387338Y-60537756D01*
X104387335Y-60537758D01*
X104387334Y-60537758D01*
X104123781Y-60652234D01*
X103878252Y-60801544D01*
X103655349Y-60982889D01*
X103459211Y-61192899D01*
X103293497Y-61427664D01*
X103161293Y-61682806D01*
X103065066Y-61953562D01*
X103065065Y-61953565D01*
X103006600Y-62234919D01*
X102986991Y-62521600D01*
X81026709Y-62521600D01*
X81035807Y-62388600D01*
X81016197Y-62101914D01*
X80957733Y-61820568D01*
X80861504Y-61549806D01*
X80861505Y-61549806D01*
X80729300Y-61294664D01*
X80563586Y-61059899D01*
X80444975Y-60932899D01*
X80367452Y-60849892D01*
X80144546Y-60668545D01*
X80144545Y-60668544D01*
X79899016Y-60519234D01*
X79635462Y-60404758D01*
X79635460Y-60404757D01*
X79635457Y-60404756D01*
X79505977Y-60368477D01*
X79358763Y-60327230D01*
X79358758Y-60327229D01*
X79358757Y-60327229D01*
X79216417Y-60307664D01*
X79074078Y-60288100D01*
X79074077Y-60288100D01*
X78786721Y-60288100D01*
X78786720Y-60288100D01*
X78502041Y-60327229D01*
X78502034Y-60327230D01*
X78294260Y-60385445D01*
X78225341Y-60404756D01*
X78225338Y-60404756D01*
X78225335Y-60404758D01*
X78225334Y-60404758D01*
X77961781Y-60519234D01*
X77716252Y-60668544D01*
X77493349Y-60849889D01*
X77297211Y-61059899D01*
X77131497Y-61294664D01*
X76999293Y-61549806D01*
X76903066Y-61820562D01*
X76903065Y-61820565D01*
X76844600Y-62101919D01*
X76824991Y-62388600D01*
X54865120Y-62388600D01*
X54873807Y-62261600D01*
X54854197Y-61974914D01*
X54795733Y-61693568D01*
X54699504Y-61422806D01*
X54699505Y-61422806D01*
X54567300Y-61167664D01*
X54401586Y-60932899D01*
X54322953Y-60848705D01*
X54205452Y-60722892D01*
X53982546Y-60541545D01*
X53982545Y-60541544D01*
X53737016Y-60392234D01*
X53473462Y-60277758D01*
X53473460Y-60277757D01*
X53473457Y-60277756D01*
X53343977Y-60241477D01*
X53196763Y-60200230D01*
X53196758Y-60200229D01*
X53196757Y-60200229D01*
X53054417Y-60180664D01*
X52912078Y-60161100D01*
X52912077Y-60161100D01*
X52624721Y-60161100D01*
X52624720Y-60161100D01*
X52340041Y-60200229D01*
X52340034Y-60200230D01*
X52132260Y-60258445D01*
X52063341Y-60277756D01*
X52063338Y-60277756D01*
X52063335Y-60277758D01*
X52063334Y-60277758D01*
X51799781Y-60392234D01*
X51554252Y-60541544D01*
X51331349Y-60722889D01*
X51135211Y-60932899D01*
X50969497Y-61167664D01*
X50837293Y-61422806D01*
X50741066Y-61693562D01*
X50741065Y-61693565D01*
X50682600Y-61974919D01*
X50662991Y-62261600D01*
X42387899Y-62261600D01*
X42387899Y-45696002D01*
X47228578Y-45696002D01*
X47248247Y-46058782D01*
X47248249Y-46058799D01*
X47307023Y-46417303D01*
X47307029Y-46417329D01*
X47404220Y-46767381D01*
X47404225Y-46767396D01*
X47538699Y-47104901D01*
X47538705Y-47104913D01*
X47708877Y-47425892D01*
X47708883Y-47425901D01*
X47876161Y-47672618D01*
X47912772Y-47726614D01*
X48147978Y-48003521D01*
X48411745Y-48253375D01*
X48700980Y-48473245D01*
X49012291Y-48660555D01*
X49012293Y-48660556D01*
X49012295Y-48660557D01*
X49012299Y-48660559D01*
X49192655Y-48744000D01*
X49342030Y-48813108D01*
X49686329Y-48929116D01*
X50041152Y-49007218D01*
X50402340Y-49046500D01*
X50402346Y-49046500D01*
X50765652Y-49046500D01*
X50765658Y-49046500D01*
X51126846Y-49007218D01*
X51481669Y-48929116D01*
X51825968Y-48813108D01*
X51975339Y-48744002D01*
X60309578Y-48744002D01*
X60329247Y-49106782D01*
X60329249Y-49106799D01*
X60388023Y-49465303D01*
X60388029Y-49465329D01*
X60485220Y-49815381D01*
X60485225Y-49815396D01*
X60619699Y-50152901D01*
X60619705Y-50152913D01*
X60789877Y-50473892D01*
X60789880Y-50473897D01*
X60789882Y-50473900D01*
X60993772Y-50774614D01*
X61228978Y-51051521D01*
X61492745Y-51301375D01*
X61781980Y-51521245D01*
X62093291Y-51708555D01*
X62093293Y-51708556D01*
X62093295Y-51708557D01*
X62093299Y-51708559D01*
X62423019Y-51861103D01*
X62423030Y-51861108D01*
X62767329Y-51977116D01*
X63122152Y-52055218D01*
X63483340Y-52094500D01*
X63483346Y-52094500D01*
X63846652Y-52094500D01*
X63846658Y-52094500D01*
X64207846Y-52055218D01*
X64562669Y-51977116D01*
X64906968Y-51861108D01*
X65236707Y-51708555D01*
X65548018Y-51521245D01*
X65837253Y-51301375D01*
X66101020Y-51051521D01*
X66336226Y-50774614D01*
X66540116Y-50473900D01*
X66710297Y-50152905D01*
X66844774Y-49815391D01*
X66941972Y-49465316D01*
X67000750Y-49106785D01*
X67020420Y-48744000D01*
X67000750Y-48381215D01*
X66941972Y-48022684D01*
X66924096Y-47958303D01*
X66844777Y-47672618D01*
X66844772Y-47672603D01*
X66710298Y-47335098D01*
X66710297Y-47335095D01*
X66540116Y-47014100D01*
X66336226Y-46713386D01*
X66101020Y-46436479D01*
X65837253Y-46186625D01*
X65837243Y-46186617D01*
X65768634Y-46134462D01*
X65548018Y-45966755D01*
X65236707Y-45779445D01*
X65236706Y-45779444D01*
X65236702Y-45779442D01*
X65236698Y-45779440D01*
X65056349Y-45696002D01*
X73390578Y-45696002D01*
X73410247Y-46058782D01*
X73410249Y-46058799D01*
X73469023Y-46417303D01*
X73469029Y-46417329D01*
X73566220Y-46767381D01*
X73566225Y-46767396D01*
X73700699Y-47104901D01*
X73700705Y-47104913D01*
X73870877Y-47425892D01*
X73870883Y-47425901D01*
X74038161Y-47672618D01*
X74074772Y-47726614D01*
X74309978Y-48003521D01*
X74573745Y-48253375D01*
X74862980Y-48473245D01*
X75174291Y-48660555D01*
X75174293Y-48660556D01*
X75174295Y-48660557D01*
X75174299Y-48660559D01*
X75354655Y-48744000D01*
X75504030Y-48813108D01*
X75848329Y-48929116D01*
X76203152Y-49007218D01*
X76564340Y-49046500D01*
X76564346Y-49046500D01*
X76927652Y-49046500D01*
X76927658Y-49046500D01*
X77288846Y-49007218D01*
X77643669Y-48929116D01*
X77987968Y-48813108D01*
X78137339Y-48744002D01*
X86471578Y-48744002D01*
X86491247Y-49106782D01*
X86491249Y-49106799D01*
X86550023Y-49465303D01*
X86550029Y-49465329D01*
X86647220Y-49815381D01*
X86647225Y-49815396D01*
X86781699Y-50152901D01*
X86781705Y-50152913D01*
X86951877Y-50473892D01*
X86951880Y-50473897D01*
X86951882Y-50473900D01*
X87155772Y-50774614D01*
X87390978Y-51051521D01*
X87654745Y-51301375D01*
X87943980Y-51521245D01*
X88255291Y-51708555D01*
X88255293Y-51708556D01*
X88255295Y-51708557D01*
X88255299Y-51708559D01*
X88585019Y-51861103D01*
X88585030Y-51861108D01*
X88929329Y-51977116D01*
X89284152Y-52055218D01*
X89645340Y-52094500D01*
X89645346Y-52094500D01*
X90008652Y-52094500D01*
X90008658Y-52094500D01*
X90369846Y-52055218D01*
X90724669Y-51977116D01*
X91068968Y-51861108D01*
X91398707Y-51708555D01*
X91710018Y-51521245D01*
X91999253Y-51301375D01*
X92263020Y-51051521D01*
X92498226Y-50774614D01*
X92702116Y-50473900D01*
X92872297Y-50152905D01*
X93006774Y-49815391D01*
X93103972Y-49465316D01*
X93162750Y-49106785D01*
X93182420Y-48744000D01*
X93162750Y-48381215D01*
X93103972Y-48022684D01*
X93086096Y-47958303D01*
X93006777Y-47672618D01*
X93006772Y-47672603D01*
X92872298Y-47335098D01*
X92872297Y-47335095D01*
X92702116Y-47014100D01*
X92498226Y-46713386D01*
X92263020Y-46436479D01*
X91999253Y-46186625D01*
X91999243Y-46186617D01*
X91930634Y-46134462D01*
X91710018Y-45966755D01*
X91398707Y-45779445D01*
X91398706Y-45779444D01*
X91398702Y-45779442D01*
X91398698Y-45779440D01*
X91218349Y-45696002D01*
X99552578Y-45696002D01*
X99572247Y-46058782D01*
X99572249Y-46058799D01*
X99631023Y-46417303D01*
X99631029Y-46417329D01*
X99728220Y-46767381D01*
X99728225Y-46767396D01*
X99862699Y-47104901D01*
X99862705Y-47104913D01*
X100032877Y-47425892D01*
X100032883Y-47425901D01*
X100200161Y-47672618D01*
X100236772Y-47726614D01*
X100471978Y-48003521D01*
X100735745Y-48253375D01*
X101024980Y-48473245D01*
X101336291Y-48660555D01*
X101336293Y-48660556D01*
X101336295Y-48660557D01*
X101336299Y-48660559D01*
X101516655Y-48744000D01*
X101666030Y-48813108D01*
X102010329Y-48929116D01*
X102365152Y-49007218D01*
X102726340Y-49046500D01*
X102726346Y-49046500D01*
X103089652Y-49046500D01*
X103089658Y-49046500D01*
X103450846Y-49007218D01*
X103805669Y-48929116D01*
X104149968Y-48813108D01*
X104299339Y-48744002D01*
X112633578Y-48744002D01*
X112653247Y-49106782D01*
X112653249Y-49106799D01*
X112712023Y-49465303D01*
X112712029Y-49465329D01*
X112809220Y-49815381D01*
X112809225Y-49815396D01*
X112943699Y-50152901D01*
X112943705Y-50152913D01*
X113113877Y-50473892D01*
X113113880Y-50473897D01*
X113113882Y-50473900D01*
X113317772Y-50774614D01*
X113552978Y-51051521D01*
X113816745Y-51301375D01*
X114105980Y-51521245D01*
X114417291Y-51708555D01*
X114417293Y-51708556D01*
X114417295Y-51708557D01*
X114417299Y-51708559D01*
X114747019Y-51861103D01*
X114747030Y-51861108D01*
X115091329Y-51977116D01*
X115446152Y-52055218D01*
X115807340Y-52094500D01*
X115807346Y-52094500D01*
X116170652Y-52094500D01*
X116170658Y-52094500D01*
X116531846Y-52055218D01*
X116886669Y-51977116D01*
X117230968Y-51861108D01*
X117560707Y-51708555D01*
X117872018Y-51521245D01*
X118161253Y-51301375D01*
X118425020Y-51051521D01*
X118660226Y-50774614D01*
X118864116Y-50473900D01*
X119034297Y-50152905D01*
X119168774Y-49815391D01*
X119265972Y-49465316D01*
X119324750Y-49106785D01*
X119344420Y-48744000D01*
X119324750Y-48381215D01*
X119265972Y-48022684D01*
X119248096Y-47958303D01*
X119168777Y-47672618D01*
X119168772Y-47672603D01*
X119034298Y-47335098D01*
X119034297Y-47335095D01*
X118864116Y-47014100D01*
X118660226Y-46713386D01*
X118425020Y-46436479D01*
X118161253Y-46186625D01*
X118161243Y-46186617D01*
X118092634Y-46134462D01*
X117872018Y-45966755D01*
X117560707Y-45779445D01*
X117560706Y-45779444D01*
X117560702Y-45779442D01*
X117560698Y-45779440D01*
X117380349Y-45696002D01*
X125714578Y-45696002D01*
X125734247Y-46058782D01*
X125734249Y-46058799D01*
X125793023Y-46417303D01*
X125793029Y-46417329D01*
X125890220Y-46767381D01*
X125890225Y-46767396D01*
X126024699Y-47104901D01*
X126024705Y-47104913D01*
X126194877Y-47425892D01*
X126194883Y-47425901D01*
X126362161Y-47672618D01*
X126398772Y-47726614D01*
X126633978Y-48003521D01*
X126897745Y-48253375D01*
X127186980Y-48473245D01*
X127498291Y-48660555D01*
X127498293Y-48660556D01*
X127498295Y-48660557D01*
X127498299Y-48660559D01*
X127678655Y-48744000D01*
X127828030Y-48813108D01*
X128172329Y-48929116D01*
X128527152Y-49007218D01*
X128888340Y-49046500D01*
X128888346Y-49046500D01*
X129251652Y-49046500D01*
X129251658Y-49046500D01*
X129612846Y-49007218D01*
X129967669Y-48929116D01*
X130311968Y-48813108D01*
X130461339Y-48744002D01*
X138795578Y-48744002D01*
X138815247Y-49106782D01*
X138815249Y-49106799D01*
X138874023Y-49465303D01*
X138874029Y-49465329D01*
X138971220Y-49815381D01*
X138971225Y-49815396D01*
X139105699Y-50152901D01*
X139105705Y-50152913D01*
X139275877Y-50473892D01*
X139275880Y-50473897D01*
X139275882Y-50473900D01*
X139479772Y-50774614D01*
X139714978Y-51051521D01*
X139978745Y-51301375D01*
X140267980Y-51521245D01*
X140579291Y-51708555D01*
X140579293Y-51708556D01*
X140579295Y-51708557D01*
X140579299Y-51708559D01*
X140909019Y-51861103D01*
X140909030Y-51861108D01*
X141253329Y-51977116D01*
X141608152Y-52055218D01*
X141969340Y-52094500D01*
X141969346Y-52094500D01*
X142332652Y-52094500D01*
X142332658Y-52094500D01*
X142693846Y-52055218D01*
X143048669Y-51977116D01*
X143392968Y-51861108D01*
X143722707Y-51708555D01*
X144034018Y-51521245D01*
X144323253Y-51301375D01*
X144587020Y-51051521D01*
X144822226Y-50774614D01*
X145026116Y-50473900D01*
X145196297Y-50152905D01*
X145330774Y-49815391D01*
X145427972Y-49465316D01*
X145486750Y-49106785D01*
X145506420Y-48744000D01*
X145486750Y-48381215D01*
X145427972Y-48022684D01*
X145410096Y-47958303D01*
X145330777Y-47672618D01*
X145330772Y-47672603D01*
X145196298Y-47335098D01*
X145196297Y-47335095D01*
X145026116Y-47014100D01*
X144822226Y-46713386D01*
X144587020Y-46436479D01*
X144323253Y-46186625D01*
X144323243Y-46186617D01*
X144254634Y-46134462D01*
X144034018Y-45966755D01*
X143722707Y-45779445D01*
X143722706Y-45779444D01*
X143722702Y-45779442D01*
X143722698Y-45779440D01*
X143542349Y-45696002D01*
X151876578Y-45696002D01*
X151896247Y-46058782D01*
X151896249Y-46058799D01*
X151955023Y-46417303D01*
X151955029Y-46417329D01*
X152052220Y-46767381D01*
X152052225Y-46767396D01*
X152186699Y-47104901D01*
X152186705Y-47104913D01*
X152356877Y-47425892D01*
X152356883Y-47425901D01*
X152524161Y-47672618D01*
X152560772Y-47726614D01*
X152795978Y-48003521D01*
X153059745Y-48253375D01*
X153348980Y-48473245D01*
X153660291Y-48660555D01*
X153660293Y-48660556D01*
X153660295Y-48660557D01*
X153660299Y-48660559D01*
X153840655Y-48744000D01*
X153990030Y-48813108D01*
X154334329Y-48929116D01*
X154689152Y-49007218D01*
X155050340Y-49046500D01*
X155050346Y-49046500D01*
X155413652Y-49046500D01*
X155413658Y-49046500D01*
X155774846Y-49007218D01*
X156129669Y-48929116D01*
X156473968Y-48813108D01*
X156623339Y-48744002D01*
X164957578Y-48744002D01*
X164977247Y-49106782D01*
X164977249Y-49106799D01*
X165036023Y-49465303D01*
X165036029Y-49465329D01*
X165133220Y-49815381D01*
X165133225Y-49815396D01*
X165267699Y-50152901D01*
X165267705Y-50152913D01*
X165437877Y-50473892D01*
X165437880Y-50473897D01*
X165437882Y-50473900D01*
X165641772Y-50774614D01*
X165876978Y-51051521D01*
X166140745Y-51301375D01*
X166429980Y-51521245D01*
X166741291Y-51708555D01*
X166741293Y-51708556D01*
X166741295Y-51708557D01*
X166741299Y-51708559D01*
X167071019Y-51861103D01*
X167071030Y-51861108D01*
X167415329Y-51977116D01*
X167770152Y-52055218D01*
X168131340Y-52094500D01*
X168131346Y-52094500D01*
X168494652Y-52094500D01*
X168494658Y-52094500D01*
X168855846Y-52055218D01*
X169210669Y-51977116D01*
X169554968Y-51861108D01*
X169884707Y-51708555D01*
X170196018Y-51521245D01*
X170485253Y-51301375D01*
X170749020Y-51051521D01*
X170984226Y-50774614D01*
X171188116Y-50473900D01*
X171358297Y-50152905D01*
X171492774Y-49815391D01*
X171589972Y-49465316D01*
X171648750Y-49106785D01*
X171668420Y-48744000D01*
X171648750Y-48381215D01*
X171589972Y-48022684D01*
X171572096Y-47958303D01*
X171492777Y-47672618D01*
X171492772Y-47672603D01*
X171358298Y-47335098D01*
X171358297Y-47335095D01*
X171188116Y-47014100D01*
X170984226Y-46713386D01*
X170749020Y-46436479D01*
X170485253Y-46186625D01*
X170485243Y-46186617D01*
X170416634Y-46134462D01*
X170196018Y-45966755D01*
X169884707Y-45779445D01*
X169884706Y-45779444D01*
X169884702Y-45779442D01*
X169884698Y-45779440D01*
X169704349Y-45696002D01*
X178038578Y-45696002D01*
X178058247Y-46058782D01*
X178058249Y-46058799D01*
X178117023Y-46417303D01*
X178117029Y-46417329D01*
X178214220Y-46767381D01*
X178214225Y-46767396D01*
X178348699Y-47104901D01*
X178348705Y-47104913D01*
X178518877Y-47425892D01*
X178518883Y-47425901D01*
X178686161Y-47672618D01*
X178722772Y-47726614D01*
X178957978Y-48003521D01*
X179221745Y-48253375D01*
X179510980Y-48473245D01*
X179822291Y-48660555D01*
X179822293Y-48660556D01*
X179822295Y-48660557D01*
X179822299Y-48660559D01*
X180002655Y-48744000D01*
X180152030Y-48813108D01*
X180496329Y-48929116D01*
X180851152Y-49007218D01*
X181212340Y-49046500D01*
X181212346Y-49046500D01*
X181575652Y-49046500D01*
X181575658Y-49046500D01*
X181936846Y-49007218D01*
X182291669Y-48929116D01*
X182635968Y-48813108D01*
X182785339Y-48744002D01*
X191119578Y-48744002D01*
X191139247Y-49106782D01*
X191139249Y-49106799D01*
X191198023Y-49465303D01*
X191198029Y-49465329D01*
X191295220Y-49815381D01*
X191295225Y-49815396D01*
X191429699Y-50152901D01*
X191429705Y-50152913D01*
X191599877Y-50473892D01*
X191599880Y-50473897D01*
X191599882Y-50473900D01*
X191803772Y-50774614D01*
X192038978Y-51051521D01*
X192302745Y-51301375D01*
X192591980Y-51521245D01*
X192903291Y-51708555D01*
X192903293Y-51708556D01*
X192903295Y-51708557D01*
X192903299Y-51708559D01*
X193233019Y-51861103D01*
X193233030Y-51861108D01*
X193577329Y-51977116D01*
X193932152Y-52055218D01*
X194293340Y-52094500D01*
X194293346Y-52094500D01*
X194656652Y-52094500D01*
X194656658Y-52094500D01*
X195017846Y-52055218D01*
X195372669Y-51977116D01*
X195716968Y-51861108D01*
X196046707Y-51708555D01*
X196358018Y-51521245D01*
X196647253Y-51301375D01*
X196911020Y-51051521D01*
X197146226Y-50774614D01*
X197350116Y-50473900D01*
X197520297Y-50152905D01*
X197654774Y-49815391D01*
X197751972Y-49465316D01*
X197810750Y-49106785D01*
X197830420Y-48744000D01*
X197810750Y-48381215D01*
X197751972Y-48022684D01*
X197734096Y-47958303D01*
X197654777Y-47672618D01*
X197654772Y-47672603D01*
X197520298Y-47335098D01*
X197520297Y-47335095D01*
X197350116Y-47014100D01*
X197146226Y-46713386D01*
X196911020Y-46436479D01*
X196647253Y-46186625D01*
X196647243Y-46186617D01*
X196578634Y-46134462D01*
X196358018Y-45966755D01*
X196046707Y-45779445D01*
X196046706Y-45779444D01*
X196046702Y-45779442D01*
X196046698Y-45779440D01*
X195716978Y-45626896D01*
X195716973Y-45626894D01*
X195716968Y-45626892D01*
X195549142Y-45570344D01*
X195372668Y-45510883D01*
X195017844Y-45432781D01*
X194656659Y-45393500D01*
X194656658Y-45393500D01*
X194293340Y-45393500D01*
X194293338Y-45393500D01*
X193932153Y-45432781D01*
X193577329Y-45510883D01*
X193311177Y-45600560D01*
X193233030Y-45626892D01*
X193233027Y-45626893D01*
X193233019Y-45626896D01*
X192903299Y-45779440D01*
X192903295Y-45779442D01*
X192671452Y-45918937D01*
X192591980Y-45966755D01*
X192502331Y-46034903D01*
X192302754Y-46186617D01*
X192302744Y-46186625D01*
X192038977Y-46436479D01*
X191803771Y-46713386D01*
X191599883Y-47014098D01*
X191599877Y-47014107D01*
X191429705Y-47335086D01*
X191429699Y-47335098D01*
X191295225Y-47672603D01*
X191295220Y-47672618D01*
X191198029Y-48022670D01*
X191198023Y-48022696D01*
X191139249Y-48381200D01*
X191139247Y-48381217D01*
X191119578Y-48743997D01*
X191119578Y-48744002D01*
X182785339Y-48744002D01*
X182965707Y-48660555D01*
X183277018Y-48473245D01*
X183566253Y-48253375D01*
X183830020Y-48003521D01*
X184065226Y-47726614D01*
X184269116Y-47425900D01*
X184439297Y-47104905D01*
X184573774Y-46767391D01*
X184588769Y-46713386D01*
X184670968Y-46417329D01*
X184670972Y-46417316D01*
X184729750Y-46058785D01*
X184749420Y-45696000D01*
X184729750Y-45333215D01*
X184670972Y-44974684D01*
X184653096Y-44910303D01*
X184573777Y-44624618D01*
X184573772Y-44624603D01*
X184439298Y-44287098D01*
X184439297Y-44287095D01*
X184269116Y-43966100D01*
X184065226Y-43665386D01*
X183830020Y-43388479D01*
X183566253Y-43138625D01*
X183566243Y-43138617D01*
X183497634Y-43086462D01*
X183277018Y-42918755D01*
X182965707Y-42731445D01*
X182965706Y-42731444D01*
X182965702Y-42731442D01*
X182965698Y-42731440D01*
X182635978Y-42578896D01*
X182635973Y-42578894D01*
X182635968Y-42578892D01*
X182468142Y-42522344D01*
X182291668Y-42462883D01*
X181936844Y-42384781D01*
X181575659Y-42345500D01*
X181575658Y-42345500D01*
X181212340Y-42345500D01*
X181212338Y-42345500D01*
X180851153Y-42384781D01*
X180496329Y-42462883D01*
X180230177Y-42552560D01*
X180152030Y-42578892D01*
X180152027Y-42578893D01*
X180152019Y-42578896D01*
X179822299Y-42731440D01*
X179822295Y-42731442D01*
X179590452Y-42870937D01*
X179510980Y-42918755D01*
X179421331Y-42986903D01*
X179221754Y-43138617D01*
X179221744Y-43138625D01*
X178957977Y-43388479D01*
X178722771Y-43665386D01*
X178518883Y-43966098D01*
X178518877Y-43966107D01*
X178348705Y-44287086D01*
X178348699Y-44287098D01*
X178214225Y-44624603D01*
X178214220Y-44624618D01*
X178117029Y-44974670D01*
X178117023Y-44974696D01*
X178058249Y-45333200D01*
X178058247Y-45333217D01*
X178038578Y-45695997D01*
X178038578Y-45696002D01*
X169704349Y-45696002D01*
X169554978Y-45626896D01*
X169554973Y-45626894D01*
X169554968Y-45626892D01*
X169387142Y-45570344D01*
X169210668Y-45510883D01*
X168855844Y-45432781D01*
X168494659Y-45393500D01*
X168494658Y-45393500D01*
X168131340Y-45393500D01*
X168131338Y-45393500D01*
X167770153Y-45432781D01*
X167415329Y-45510883D01*
X167149177Y-45600560D01*
X167071030Y-45626892D01*
X167071027Y-45626893D01*
X167071019Y-45626896D01*
X166741299Y-45779440D01*
X166741295Y-45779442D01*
X166509452Y-45918937D01*
X166429980Y-45966755D01*
X166340331Y-46034903D01*
X166140754Y-46186617D01*
X166140744Y-46186625D01*
X165876977Y-46436479D01*
X165641771Y-46713386D01*
X165437883Y-47014098D01*
X165437877Y-47014107D01*
X165267705Y-47335086D01*
X165267699Y-47335098D01*
X165133225Y-47672603D01*
X165133220Y-47672618D01*
X165036029Y-48022670D01*
X165036023Y-48022696D01*
X164977249Y-48381200D01*
X164977247Y-48381217D01*
X164957578Y-48743997D01*
X164957578Y-48744002D01*
X156623339Y-48744002D01*
X156803707Y-48660555D01*
X157115018Y-48473245D01*
X157404253Y-48253375D01*
X157668020Y-48003521D01*
X157903226Y-47726614D01*
X158107116Y-47425900D01*
X158277297Y-47104905D01*
X158411774Y-46767391D01*
X158426769Y-46713386D01*
X158508968Y-46417329D01*
X158508972Y-46417316D01*
X158567750Y-46058785D01*
X158587420Y-45696000D01*
X158567750Y-45333215D01*
X158508972Y-44974684D01*
X158491096Y-44910303D01*
X158411777Y-44624618D01*
X158411772Y-44624603D01*
X158277298Y-44287098D01*
X158277297Y-44287095D01*
X158107116Y-43966100D01*
X157903226Y-43665386D01*
X157668020Y-43388479D01*
X157404253Y-43138625D01*
X157404243Y-43138617D01*
X157335634Y-43086462D01*
X157115018Y-42918755D01*
X156803707Y-42731445D01*
X156803706Y-42731444D01*
X156803702Y-42731442D01*
X156803698Y-42731440D01*
X156473978Y-42578896D01*
X156473973Y-42578894D01*
X156473968Y-42578892D01*
X156306142Y-42522344D01*
X156129668Y-42462883D01*
X155774844Y-42384781D01*
X155413659Y-42345500D01*
X155413658Y-42345500D01*
X155050340Y-42345500D01*
X155050338Y-42345500D01*
X154689153Y-42384781D01*
X154334329Y-42462883D01*
X154068177Y-42552560D01*
X153990030Y-42578892D01*
X153990027Y-42578893D01*
X153990019Y-42578896D01*
X153660299Y-42731440D01*
X153660295Y-42731442D01*
X153428452Y-42870937D01*
X153348980Y-42918755D01*
X153259331Y-42986903D01*
X153059754Y-43138617D01*
X153059744Y-43138625D01*
X152795977Y-43388479D01*
X152560771Y-43665386D01*
X152356883Y-43966098D01*
X152356877Y-43966107D01*
X152186705Y-44287086D01*
X152186699Y-44287098D01*
X152052225Y-44624603D01*
X152052220Y-44624618D01*
X151955029Y-44974670D01*
X151955023Y-44974696D01*
X151896249Y-45333200D01*
X151896247Y-45333217D01*
X151876578Y-45695997D01*
X151876578Y-45696002D01*
X143542349Y-45696002D01*
X143392978Y-45626896D01*
X143392973Y-45626894D01*
X143392968Y-45626892D01*
X143225142Y-45570344D01*
X143048668Y-45510883D01*
X142693844Y-45432781D01*
X142332659Y-45393500D01*
X142332658Y-45393500D01*
X141969340Y-45393500D01*
X141969338Y-45393500D01*
X141608153Y-45432781D01*
X141253329Y-45510883D01*
X140987177Y-45600560D01*
X140909030Y-45626892D01*
X140909027Y-45626893D01*
X140909019Y-45626896D01*
X140579299Y-45779440D01*
X140579295Y-45779442D01*
X140347452Y-45918937D01*
X140267980Y-45966755D01*
X140178331Y-46034903D01*
X139978754Y-46186617D01*
X139978744Y-46186625D01*
X139714977Y-46436479D01*
X139479771Y-46713386D01*
X139275883Y-47014098D01*
X139275877Y-47014107D01*
X139105705Y-47335086D01*
X139105699Y-47335098D01*
X138971225Y-47672603D01*
X138971220Y-47672618D01*
X138874029Y-48022670D01*
X138874023Y-48022696D01*
X138815249Y-48381200D01*
X138815247Y-48381217D01*
X138795578Y-48743997D01*
X138795578Y-48744002D01*
X130461339Y-48744002D01*
X130641707Y-48660555D01*
X130953018Y-48473245D01*
X131242253Y-48253375D01*
X131506020Y-48003521D01*
X131741226Y-47726614D01*
X131945116Y-47425900D01*
X132115297Y-47104905D01*
X132249774Y-46767391D01*
X132264769Y-46713386D01*
X132346968Y-46417329D01*
X132346972Y-46417316D01*
X132405750Y-46058785D01*
X132425420Y-45696000D01*
X132405750Y-45333215D01*
X132346972Y-44974684D01*
X132329096Y-44910303D01*
X132249777Y-44624618D01*
X132249772Y-44624603D01*
X132115298Y-44287098D01*
X132115297Y-44287095D01*
X131945116Y-43966100D01*
X131741226Y-43665386D01*
X131506020Y-43388479D01*
X131242253Y-43138625D01*
X131242243Y-43138617D01*
X131173634Y-43086462D01*
X130953018Y-42918755D01*
X130641707Y-42731445D01*
X130641706Y-42731444D01*
X130641702Y-42731442D01*
X130641698Y-42731440D01*
X130311978Y-42578896D01*
X130311973Y-42578894D01*
X130311968Y-42578892D01*
X130144142Y-42522344D01*
X129967668Y-42462883D01*
X129612844Y-42384781D01*
X129251659Y-42345500D01*
X129251658Y-42345500D01*
X128888340Y-42345500D01*
X128888338Y-42345500D01*
X128527153Y-42384781D01*
X128172329Y-42462883D01*
X127906177Y-42552560D01*
X127828030Y-42578892D01*
X127828027Y-42578893D01*
X127828019Y-42578896D01*
X127498299Y-42731440D01*
X127498295Y-42731442D01*
X127266452Y-42870937D01*
X127186980Y-42918755D01*
X127097331Y-42986903D01*
X126897754Y-43138617D01*
X126897744Y-43138625D01*
X126633977Y-43388479D01*
X126398771Y-43665386D01*
X126194883Y-43966098D01*
X126194877Y-43966107D01*
X126024705Y-44287086D01*
X126024699Y-44287098D01*
X125890225Y-44624603D01*
X125890220Y-44624618D01*
X125793029Y-44974670D01*
X125793023Y-44974696D01*
X125734249Y-45333200D01*
X125734247Y-45333217D01*
X125714578Y-45695997D01*
X125714578Y-45696002D01*
X117380349Y-45696002D01*
X117230978Y-45626896D01*
X117230973Y-45626894D01*
X117230968Y-45626892D01*
X117063142Y-45570344D01*
X116886668Y-45510883D01*
X116531844Y-45432781D01*
X116170659Y-45393500D01*
X116170658Y-45393500D01*
X115807340Y-45393500D01*
X115807338Y-45393500D01*
X115446153Y-45432781D01*
X115091329Y-45510883D01*
X114825177Y-45600560D01*
X114747030Y-45626892D01*
X114747027Y-45626893D01*
X114747019Y-45626896D01*
X114417299Y-45779440D01*
X114417295Y-45779442D01*
X114185452Y-45918937D01*
X114105980Y-45966755D01*
X114016331Y-46034903D01*
X113816754Y-46186617D01*
X113816744Y-46186625D01*
X113552977Y-46436479D01*
X113317771Y-46713386D01*
X113113883Y-47014098D01*
X113113877Y-47014107D01*
X112943705Y-47335086D01*
X112943699Y-47335098D01*
X112809225Y-47672603D01*
X112809220Y-47672618D01*
X112712029Y-48022670D01*
X112712023Y-48022696D01*
X112653249Y-48381200D01*
X112653247Y-48381217D01*
X112633578Y-48743997D01*
X112633578Y-48744002D01*
X104299339Y-48744002D01*
X104479707Y-48660555D01*
X104791018Y-48473245D01*
X105080253Y-48253375D01*
X105344020Y-48003521D01*
X105579226Y-47726614D01*
X105783116Y-47425900D01*
X105953297Y-47104905D01*
X106087774Y-46767391D01*
X106102769Y-46713386D01*
X106184968Y-46417329D01*
X106184972Y-46417316D01*
X106243750Y-46058785D01*
X106263420Y-45696000D01*
X106243750Y-45333215D01*
X106184972Y-44974684D01*
X106167096Y-44910303D01*
X106087777Y-44624618D01*
X106087772Y-44624603D01*
X105953298Y-44287098D01*
X105953297Y-44287095D01*
X105783116Y-43966100D01*
X105579226Y-43665386D01*
X105344020Y-43388479D01*
X105080253Y-43138625D01*
X105080243Y-43138617D01*
X105011634Y-43086462D01*
X104791018Y-42918755D01*
X104479707Y-42731445D01*
X104479706Y-42731444D01*
X104479702Y-42731442D01*
X104479698Y-42731440D01*
X104149978Y-42578896D01*
X104149973Y-42578894D01*
X104149968Y-42578892D01*
X103982142Y-42522344D01*
X103805668Y-42462883D01*
X103450844Y-42384781D01*
X103089659Y-42345500D01*
X103089658Y-42345500D01*
X102726340Y-42345500D01*
X102726338Y-42345500D01*
X102365153Y-42384781D01*
X102010329Y-42462883D01*
X101744177Y-42552560D01*
X101666030Y-42578892D01*
X101666027Y-42578893D01*
X101666019Y-42578896D01*
X101336299Y-42731440D01*
X101336295Y-42731442D01*
X101104452Y-42870937D01*
X101024980Y-42918755D01*
X100935331Y-42986903D01*
X100735754Y-43138617D01*
X100735744Y-43138625D01*
X100471977Y-43388479D01*
X100236771Y-43665386D01*
X100032883Y-43966098D01*
X100032877Y-43966107D01*
X99862705Y-44287086D01*
X99862699Y-44287098D01*
X99728225Y-44624603D01*
X99728220Y-44624618D01*
X99631029Y-44974670D01*
X99631023Y-44974696D01*
X99572249Y-45333200D01*
X99572247Y-45333217D01*
X99552578Y-45695997D01*
X99552578Y-45696002D01*
X91218349Y-45696002D01*
X91068978Y-45626896D01*
X91068973Y-45626894D01*
X91068968Y-45626892D01*
X90901142Y-45570344D01*
X90724668Y-45510883D01*
X90369844Y-45432781D01*
X90008659Y-45393500D01*
X90008658Y-45393500D01*
X89645340Y-45393500D01*
X89645338Y-45393500D01*
X89284153Y-45432781D01*
X88929329Y-45510883D01*
X88663177Y-45600560D01*
X88585030Y-45626892D01*
X88585027Y-45626893D01*
X88585019Y-45626896D01*
X88255299Y-45779440D01*
X88255295Y-45779442D01*
X88023452Y-45918937D01*
X87943980Y-45966755D01*
X87854331Y-46034903D01*
X87654754Y-46186617D01*
X87654744Y-46186625D01*
X87390977Y-46436479D01*
X87155771Y-46713386D01*
X86951883Y-47014098D01*
X86951877Y-47014107D01*
X86781705Y-47335086D01*
X86781699Y-47335098D01*
X86647225Y-47672603D01*
X86647220Y-47672618D01*
X86550029Y-48022670D01*
X86550023Y-48022696D01*
X86491249Y-48381200D01*
X86491247Y-48381217D01*
X86471578Y-48743997D01*
X86471578Y-48744002D01*
X78137339Y-48744002D01*
X78317707Y-48660555D01*
X78629018Y-48473245D01*
X78918253Y-48253375D01*
X79182020Y-48003521D01*
X79417226Y-47726614D01*
X79621116Y-47425900D01*
X79791297Y-47104905D01*
X79925774Y-46767391D01*
X79940769Y-46713386D01*
X80022968Y-46417329D01*
X80022972Y-46417316D01*
X80081750Y-46058785D01*
X80101420Y-45696000D01*
X80081750Y-45333215D01*
X80022972Y-44974684D01*
X80005096Y-44910303D01*
X79925777Y-44624618D01*
X79925772Y-44624603D01*
X79791298Y-44287098D01*
X79791297Y-44287095D01*
X79621116Y-43966100D01*
X79417226Y-43665386D01*
X79182020Y-43388479D01*
X78918253Y-43138625D01*
X78918243Y-43138617D01*
X78849634Y-43086462D01*
X78629018Y-42918755D01*
X78317707Y-42731445D01*
X78317706Y-42731444D01*
X78317702Y-42731442D01*
X78317698Y-42731440D01*
X77987978Y-42578896D01*
X77987973Y-42578894D01*
X77987968Y-42578892D01*
X77820142Y-42522344D01*
X77643668Y-42462883D01*
X77288844Y-42384781D01*
X76927659Y-42345500D01*
X76927658Y-42345500D01*
X76564340Y-42345500D01*
X76564338Y-42345500D01*
X76203153Y-42384781D01*
X75848329Y-42462883D01*
X75582177Y-42552560D01*
X75504030Y-42578892D01*
X75504027Y-42578893D01*
X75504019Y-42578896D01*
X75174299Y-42731440D01*
X75174295Y-42731442D01*
X74942452Y-42870937D01*
X74862980Y-42918755D01*
X74773331Y-42986903D01*
X74573754Y-43138617D01*
X74573744Y-43138625D01*
X74309977Y-43388479D01*
X74074771Y-43665386D01*
X73870883Y-43966098D01*
X73870877Y-43966107D01*
X73700705Y-44287086D01*
X73700699Y-44287098D01*
X73566225Y-44624603D01*
X73566220Y-44624618D01*
X73469029Y-44974670D01*
X73469023Y-44974696D01*
X73410249Y-45333200D01*
X73410247Y-45333217D01*
X73390578Y-45695997D01*
X73390578Y-45696002D01*
X65056349Y-45696002D01*
X64906978Y-45626896D01*
X64906973Y-45626894D01*
X64906968Y-45626892D01*
X64739142Y-45570344D01*
X64562668Y-45510883D01*
X64207844Y-45432781D01*
X63846659Y-45393500D01*
X63846658Y-45393500D01*
X63483340Y-45393500D01*
X63483338Y-45393500D01*
X63122153Y-45432781D01*
X62767329Y-45510883D01*
X62501177Y-45600560D01*
X62423030Y-45626892D01*
X62423027Y-45626893D01*
X62423019Y-45626896D01*
X62093299Y-45779440D01*
X62093295Y-45779442D01*
X61861452Y-45918937D01*
X61781980Y-45966755D01*
X61692331Y-46034903D01*
X61492754Y-46186617D01*
X61492744Y-46186625D01*
X61228977Y-46436479D01*
X60993771Y-46713386D01*
X60789883Y-47014098D01*
X60789877Y-47014107D01*
X60619705Y-47335086D01*
X60619699Y-47335098D01*
X60485225Y-47672603D01*
X60485220Y-47672618D01*
X60388029Y-48022670D01*
X60388023Y-48022696D01*
X60329249Y-48381200D01*
X60329247Y-48381217D01*
X60309578Y-48743997D01*
X60309578Y-48744002D01*
X51975339Y-48744002D01*
X52155707Y-48660555D01*
X52467018Y-48473245D01*
X52756253Y-48253375D01*
X53020020Y-48003521D01*
X53255226Y-47726614D01*
X53459116Y-47425900D01*
X53629297Y-47104905D01*
X53763774Y-46767391D01*
X53778769Y-46713386D01*
X53860968Y-46417329D01*
X53860972Y-46417316D01*
X53919750Y-46058785D01*
X53939420Y-45696000D01*
X53919750Y-45333215D01*
X53860972Y-44974684D01*
X53843096Y-44910303D01*
X53763777Y-44624618D01*
X53763772Y-44624603D01*
X53629298Y-44287098D01*
X53629297Y-44287095D01*
X53459116Y-43966100D01*
X53255226Y-43665386D01*
X53020020Y-43388479D01*
X52756253Y-43138625D01*
X52756243Y-43138617D01*
X52687634Y-43086462D01*
X52467018Y-42918755D01*
X52155707Y-42731445D01*
X52155706Y-42731444D01*
X52155702Y-42731442D01*
X52155698Y-42731440D01*
X51825978Y-42578896D01*
X51825973Y-42578894D01*
X51825968Y-42578892D01*
X51658142Y-42522344D01*
X51481668Y-42462883D01*
X51126844Y-42384781D01*
X50765659Y-42345500D01*
X50765658Y-42345500D01*
X50402340Y-42345500D01*
X50402338Y-42345500D01*
X50041153Y-42384781D01*
X49686329Y-42462883D01*
X49420177Y-42552560D01*
X49342030Y-42578892D01*
X49342027Y-42578893D01*
X49342019Y-42578896D01*
X49012299Y-42731440D01*
X49012295Y-42731442D01*
X48780452Y-42870937D01*
X48700980Y-42918755D01*
X48611331Y-42986903D01*
X48411754Y-43138617D01*
X48411744Y-43138625D01*
X48147977Y-43388479D01*
X47912771Y-43665386D01*
X47708883Y-43966098D01*
X47708877Y-43966107D01*
X47538705Y-44287086D01*
X47538699Y-44287098D01*
X47404225Y-44624603D01*
X47404220Y-44624618D01*
X47307029Y-44974670D01*
X47307023Y-44974696D01*
X47248249Y-45333200D01*
X47248247Y-45333217D01*
X47228578Y-45695997D01*
X47228578Y-45696002D01*
X42387899Y-45696002D01*
X42387899Y-32477653D01*
X45836899Y-32477653D01*
X45836900Y-32477669D01*
X45877116Y-32783142D01*
X45956863Y-33080762D01*
X46074775Y-33365426D01*
X46074780Y-33365437D01*
X46167413Y-33525880D01*
X46228837Y-33632270D01*
X46228839Y-33632273D01*
X46228840Y-33632274D01*
X46416406Y-33876715D01*
X46416412Y-33876722D01*
X46634276Y-34094586D01*
X46634282Y-34094591D01*
X46878729Y-34282162D01*
X47050229Y-34381178D01*
X47145561Y-34436218D01*
X47145566Y-34436220D01*
X47145569Y-34436222D01*
X47430235Y-34554135D01*
X47727855Y-34633882D01*
X48033339Y-34674100D01*
X48033346Y-34674100D01*
X50341452Y-34674100D01*
X50341459Y-34674100D01*
X50646943Y-34633882D01*
X50944563Y-34554135D01*
X51229229Y-34436222D01*
X51496069Y-34282162D01*
X51740516Y-34094591D01*
X51958390Y-33876717D01*
X52145961Y-33632270D01*
X52300021Y-33365430D01*
X52417934Y-33080764D01*
X52497681Y-32783144D01*
X52537899Y-32477660D01*
X52537899Y-32477653D01*
X194096899Y-32477653D01*
X194096900Y-32477669D01*
X194137116Y-32783142D01*
X194216863Y-33080762D01*
X194334775Y-33365426D01*
X194334780Y-33365437D01*
X194427413Y-33525880D01*
X194488837Y-33632270D01*
X194488839Y-33632273D01*
X194488840Y-33632274D01*
X194676406Y-33876715D01*
X194676412Y-33876722D01*
X194894276Y-34094586D01*
X194894282Y-34094591D01*
X195138729Y-34282162D01*
X195310229Y-34381178D01*
X195405561Y-34436218D01*
X195405566Y-34436220D01*
X195405569Y-34436222D01*
X195690235Y-34554135D01*
X195987855Y-34633882D01*
X196293339Y-34674100D01*
X196293346Y-34674100D01*
X198601452Y-34674100D01*
X198601459Y-34674100D01*
X198906943Y-34633882D01*
X199204563Y-34554135D01*
X199489229Y-34436222D01*
X199756069Y-34282162D01*
X200000516Y-34094591D01*
X200218390Y-33876717D01*
X200405961Y-33632270D01*
X200560021Y-33365430D01*
X200677934Y-33080764D01*
X200757681Y-32783144D01*
X200797899Y-32477660D01*
X200797899Y-32169540D01*
X200757681Y-31864056D01*
X200677934Y-31566436D01*
X200560021Y-31281770D01*
X200560019Y-31281767D01*
X200560017Y-31281762D01*
X200504977Y-31186430D01*
X200405961Y-31014930D01*
X200218390Y-30770483D01*
X200218385Y-30770477D01*
X200000521Y-30552613D01*
X200000514Y-30552607D01*
X199756073Y-30365041D01*
X199756072Y-30365040D01*
X199756069Y-30365038D01*
X199649679Y-30303614D01*
X199489236Y-30210981D01*
X199489225Y-30210976D01*
X199204561Y-30093064D01*
X198906941Y-30013317D01*
X198601468Y-29973101D01*
X198601465Y-29973100D01*
X198601459Y-29973100D01*
X196293339Y-29973100D01*
X196293333Y-29973100D01*
X196293329Y-29973101D01*
X195987856Y-30013317D01*
X195690236Y-30093064D01*
X195405572Y-30210976D01*
X195405561Y-30210981D01*
X195138724Y-30365041D01*
X194894283Y-30552607D01*
X194894276Y-30552613D01*
X194676412Y-30770477D01*
X194676406Y-30770484D01*
X194488840Y-31014925D01*
X194334780Y-31281762D01*
X194334775Y-31281773D01*
X194216863Y-31566437D01*
X194137116Y-31864057D01*
X194096900Y-32169530D01*
X194096899Y-32169546D01*
X194096899Y-32477653D01*
X52537899Y-32477653D01*
X52537899Y-32169540D01*
X52497681Y-31864056D01*
X52417934Y-31566436D01*
X52300021Y-31281770D01*
X52300019Y-31281767D01*
X52300017Y-31281762D01*
X52244977Y-31186430D01*
X52145961Y-31014930D01*
X51958390Y-30770483D01*
X51958385Y-30770477D01*
X51740521Y-30552613D01*
X51740514Y-30552607D01*
X51496073Y-30365041D01*
X51496072Y-30365040D01*
X51496069Y-30365038D01*
X51389679Y-30303614D01*
X51229236Y-30210981D01*
X51229225Y-30210976D01*
X50944561Y-30093064D01*
X50646941Y-30013317D01*
X50341468Y-29973101D01*
X50341465Y-29973100D01*
X50341459Y-29973100D01*
X48033339Y-29973100D01*
X48033333Y-29973100D01*
X48033329Y-29973101D01*
X47727856Y-30013317D01*
X47430236Y-30093064D01*
X47145572Y-30210976D01*
X47145561Y-30210981D01*
X46878724Y-30365041D01*
X46634283Y-30552607D01*
X46634276Y-30552613D01*
X46416412Y-30770477D01*
X46416406Y-30770484D01*
X46228840Y-31014925D01*
X46074780Y-31281762D01*
X46074775Y-31281773D01*
X45956863Y-31566437D01*
X45877116Y-31864057D01*
X45836900Y-32169530D01*
X45836899Y-32169546D01*
X45836899Y-32477653D01*
X42387899Y-32477653D01*
X42387899Y-29648100D01*
X42407584Y-29581061D01*
X42460388Y-29535306D01*
X42511899Y-29524100D01*
X204122899Y-29524100D01*
X204189938Y-29543785D01*
G37*
%TD.AperFunction*%
M02*
